<?xml version="1.0" encoding="UTF-8"?>
<svg id="Layer_1" data-name="Layer 1" xmlns="http://www.w3.org/2000/svg" viewBox="0 0 317.25075 182.54368">
  <defs>
    <style>
      .cls-1 {
        fill: #fff;
        stroke-width: 2.94023px;
      }

      .cls-1, .cls-2 {
        stroke: #edebdc;
      }

      .cls-2 {
        fill: #d2cfc6;
        stroke-miterlimit: 10;
        stroke-width: 8.82068px;
      }

      .cls-3 {
        fill: #e37869;
      }
    </style>
  </defs>
  <path class="cls-2" d="M237.86033,87.80613l-.17099,29.4542c-.024,4.242,3.394,7.7,7.63599,7.725h0c4.24101.024,7.69901-3.394,7.72401-7.63599l.17-29.45441c.02499-4.24149-3.39401-7.6997-7.63501-7.7242-4.24199-.0246-7.7,3.3939-7.724,7.6354Z"/>
  <path class="cls-2" d="M213.66833,128.35534c3.99701.02399,7.25601-3.38901,7.27901-7.62401l.02499-4.594c.02301-4.235-3.19899-7.688-7.196-7.713-3.99699-.024-7.256,3.389-7.27899,7.624l-.02501,4.595c-.02299,4.234,3.19901,7.687,7.196,7.71201Z"/>
  <path class="cls-2" d="M10.24264,4.41043c-2.84282-.01638-5.16064,2.2749-5.17701,5.11771l-.30533,53.0187-.02961-.0002-.32026,55.6097c-.01637,2.84299,2.27492,5.16,5.11771,5.17699l42.7771.246c2.8313.017,5.1178,2.316,5.1178,5.148v44.259c0,2.842,2.3046,5.147,5.1475,5.147h18.7998c2.8428,0,5.1474-2.30501,5.1474-5.147v-44.032c0-2.855,2.3227-5.16401,5.1771-5.148l26.7515.154c2.84299.017,5.134,2.335,5.117,5.17799l-.121,20.84c-.017,2.843,2.274,5.16101,5.117,5.177l22.39301.129c2.84299.01701,5.13399,2.33501,5.118,5.177l-.034,5.83101c-.01601,2.843,2.27499,5.161,5.118,5.177l19.078.11c2.84299.01599,5.161-2.27501,5.17699-5.11801l.035-6.11699c.01601-2.843-2.27499-5.16101-5.118-5.177-2.842-.017-5.134-2.33501-5.117-5.17801l.12001-20.554c.017-2.842,2.334-5.133,5.17699-5.117l5.19501.03001c2.843.016,5.161-2.275,5.177-5.118l.29199-50.2185c.017-2.8427,2.334-5.1338,5.177-5.1174l1.033.0059c2.843.0164,5.134,2.3341,5.118,5.1768l-.071,12.3888c-.01599,2.8427,2.27501,5.1604,5.118,5.1768l5.065.0293c2.843.0164,5.161-2.275,5.177-5.1179l.071-12.3881c.01601-2.8429,2.334-5.1343,5.177-5.1179l45.957.2648c2.84299.0163,5.16-2.275,5.177-5.1179l.276-48.1152c.01599-2.84273-2.27499-5.16049-5.11801-5.17686L10.24264,4.41043Z"/>
  <rect class="cls-1" x="174.64934" y="30.40314" width="68.8013" height="29.9903" rx="4.41034" ry="4.41034"/>
  <rect class="cls-1" x="87.61924" y="30.40314" width="68.80129" height="29.9903" rx="4.41034" ry="4.41034"/>
  <rect class="cls-1" x="139.95434" y="70.39013" width="84.6785" height="29.9903" rx="4.41034" ry="4.41034"/>
  <rect class="cls-1" x="164.01034" y="149.77633" width="90.55899" height="29.9903" rx="4.41034" ry="4.41034"/>
  <rect class="cls-1" x="169.35734" y="109.78933" width="68.8013" height="29.9903" rx="4.41034" ry="4.41034"/>
  <rect class="cls-1" x="91.73494" y="109.78933" width="68.8013" height="29.9903" rx="4.41034" ry="4.41034"/>
  <rect class="cls-1" x="5.88045" y="131.72233" width="68.8013" height="29.9903" rx="4.41034" ry="4.41034"/>
  <rect class="cls-1" x="246.97934" y="71.88044" width="68.8013" height="29.9903" rx="4.41034" ry="4.41034"/>
  <rect class="cls-1" x="246.39134" y="110.10334" width="68.80128" height="29.9903" rx="4.41034" ry="4.41034"/>
  <path class="cls-3" d="M190.80934,50.71874c-.659,0-1.25101-.08-1.778-.24-.52701-.1693-1.03-.461-1.51001-.875-.12299-.1035-.217-.2211-.28299-.3528-.065-.1317-.09801-.2634-.09801-.3952,0-.2164.075-.4045.22501-.5645.16-.1693.358-.254.593-.254.179,0,.33899.0564.48.1693.358.2917.71001.5128,1.058.6634.358.1505.79601.2258,1.313.2258.34799,0,.668-.0518.95999-.1553.291-.1129.52701-.2587.705-.4375.179-.1882.269-.3999.269-.6351,0-.2822-.08499-.5222-.25499-.7197-.16901-.1976-.42801-.3623-.776-.494-.34801-.1411-.79001-.2493-1.326-.3246-.508-.0753-.955-.1882-1.341-.3387-.386-.16-.70999-.3575-.974-.5928-.254-.2446-.44699-.5269-.57899-.8468-.131-.3293-.19701-.6962-.19701-1.1008,0-.6115.155-1.1337.466-1.5665.319-.4328.748-.7621,1.284-.9879.53601-.2259,1.12901-.3388,1.778-.3388.612,0,1.17601.0941,1.694.2823.52701.1788.955.4093,1.28401.6915.27299.2164.409.4658.409.748,0,.207-.08.3952-.24001.5646-.16.1693-.34799.254-.564.254-.14101,0-.26801-.0423-.381-.127-.151-.1317-.35301-.2541-.60701-.367-.254-.1223-.522-.2211-.80499-.2963-.282-.0847-.545-.1271-.79001-.1271-.40399,0-.748.0518-1.03.1553-.27299.1035-.48.2446-.621.4234-.14099.1788-.21199.3857-.21199.621,0,.2822.08.5174.23999.7056.16901.1788.40901.3246.72.4375.31001.1035.68201.1976,1.11501.2823.564.1035,1.058.2258,1.48199.3669.43201.1412.79001.3246,1.07201.5504.283.2164.494.494.63499.8327.142.3293.21201.7339.21201,1.2137,0,.6116-.16901,1.1385-.508,1.5807-.339.4422-.78601.7809-1.341,1.0161-.545.2353-1.138.3529-1.778.3529ZM196.91534,40.69844h4.728c.245,0,.44699.0799.60699.2399.17.1505.254.3481.254.5927,0,.2353-.084.4281-.254.5787-.16.1411-.362.2117-.60699.2117h-3.951l.127-.2399v2.752l-.11299-.1129h3.302c.245,0,.44699.08.60699.2399.16899.1506.254.3482.254.5928,0,.2352-.08501.4281-.254.5786-.16.1411-.362.2117-.60699.2117h-3.26001l.071-.1129v2.8508l-.11299-.127h3.937c.245,0,.44699.0847.60699.2541.17.1599.254.3481.254.5645,0,.2352-.084.4281-.254.5786-.16.1506-.362.2258-.60699.2258h-4.728c-.244,0-.451-.0799-.621-.2399-.159-.1693-.239-.3763-.239-.621v-8.1573c0-.2447.08-.4469.239-.6069.17-.1693.377-.254.621-.254ZM213.22033,45.63804c0,.7056-.118,1.3642-.353,1.9758-.235.6116-.569,1.1526-1.002,1.623-.423.461-.931.8233-1.524,1.0867-.584.2634-1.22301.3952-1.92.3952-.696,0-1.336-.1318-1.91901-.3952-.58299-.2634-1.09099-.6257-1.524-1.0867-.424-.4704-.75299-1.0114-.98799-1.623-.235-.6116-.353-1.2702-.353-1.9758,0-.7057.118-1.3643.353-1.9759.235-.6115.564-1.1478.98799-1.6089.43301-.4704.94101-.8373,1.524-1.1008.58301-.2634,1.22301-.3952,1.91901-.3952.69699,0,1.336.1318,1.92.3952.593.2635,1.101.6304,1.524,1.1008.433.4611.767.9974,1.002,1.6089.235.6116.353,1.2702.353,1.9759ZM211.38534,45.63804c0-.6304-.127-1.1997-.38101-1.7077-.254-.5175-.60199-.9268-1.04399-1.2279-.44301-.301-.955-.4516-1.539-.4516-.58301,0-1.09601.1506-1.53799.4516-.442.3011-.79001.7057-1.04401,1.2138-.245.508-.367,1.082-.367,1.7218,0,.6303.12201,1.2043.367,1.7218.254.508.60201.9126,1.04401,1.2137.44199.3011.95499.4516,1.53799.4516.584,0,1.09599-.1505,1.539-.4516.442-.3011.78999-.7057,1.04399-1.2137.25401-.5175.38101-1.0915.38101-1.7218ZM221.85434,40.68434c.245,0,.442.0846.593.254.14999.1599.226.3622.226.6069v5.1089c0,.7809-.17,1.4725-.508,2.0746-.33.6022-.78601,1.0726-1.369,1.4113-.584.3387-1.261.5081-2.033.5081-.771,0-1.453-.1694-2.04599-.5081-.58301-.3387-1.04401-.8091-1.38301-1.4113-.32899-.6021-.494-1.2937-.494-2.0746v-5.1089c0-.2447.08501-.447.25401-.6069.16899-.1694.386-.254.64899-.254.216,0,.40901.0846.57901.254.17799.1599.26799.3622.26799.6069v5.1089c0,.4704.09901.8797.29601,1.2278.207.3388.47501.6022.80501.7904.338.1881.696.2822,1.07199.2822.405,0,.78101-.0941,1.129-.2822.34801-.1882.63101-.4516.847-.7904.21701-.3481.32501-.7574.32501-1.2278v-5.1089c0-.2447.06999-.447.211-.6069.142-.1694.334-.254.57899-.254ZM230.23834,48.92634c.245,0,.44699.08.60699.2399.17.1506.254.3482.254.5928,0,.2352-.084.4328-.254.5927-.16.1506-.362.2258-.60699.2258h-4.586c-.24501,0-.45201-.0799-.621-.2399-.16-.1693-.24001-.3763-.24001-.621v-8.1573c0-.2447.084-.4469.254-.6069.16901-.1693.38501-.254.649-.254.226,0,.423.0847.593.254.17799.16.26801.3622.26801.6069v7.6069l-.311-.2399h3.994Z"/>
  <path class="cls-3" d="M101.48834,40.69844c.903,0,1.576.2117,2.018.6351.443.4234.664,1.049.664,1.877,0,.4422-.109.8327-.325,1.1714-.216.3293-.536.588-.96.7762-.423.1788-.945.2682-1.566.2682l.056-.6351c.29201,0,.62601.0423,1.00201.127.377.0753.739.2164,1.087.4234.357.1976.649.4798.875.8468.235.3575.353.8185.353,1.383,0,.621-.104,1.1291-.311,1.5243-.197.3951-.461.7009-.79.9173s-.682.367-1.059.4516c-.376.0753-.738.1129-1.086.1129h-3.5144c-.2446,0-.4516-.0799-.621-.2399-.1599-.1693-.2399-.3763-.2399-.621v-8.1573c0-.2447.08-.4469.2399-.6069.1694-.1693.3764-.254.621-.254h3.5564ZM101.23433,42.36374h-2.512l.1834-.2258v2.5545l-.1693-.127h2.53989c.273,0,.51801-.0894.734-.2682.217-.1788.325-.4375.325-.7762,0-.4046-.104-.6963-.311-.875-.197-.1882-.461-.2823-.79-.2823ZM101.34733,46.23074h-2.5686l.127-.1129v2.9779l-.1411-.1412h2.6817c.433,0,.77599-.1129,1.03-.3387.254-.2352.381-.5833.381-1.0444,0-.4233-.085-.7291-.254-.9173-.169-.1882-.372-.3058-.607-.3528-.235-.0471-.451-.0706-.649-.0706ZM107.18033,40.69844h4.72701c.245,0,.447.0799.60699.2399.17001.1505.25401.3481.25401.5927,0,.2353-.084.4281-.25401.5787-.16.1411-.362.2117-.60699.2117h-3.951l.127-.2399v2.752l-.113-.1129h3.302c.245,0,.447.08.607.2399.17.1506.254.3482.254.5928,0,.2352-.084.4281-.254.5786-.16.1411-.362.2117-.607.2117h-3.26l.071-.1129v2.8508l-.113-.127h3.937c.245,0,.447.0847.60699.2541.17001.1599.25401.3481.25401.5645,0,.2352-.084.4281-.25401.5786-.16.1506-.362.2258-.60699.2258h-4.72701c-.245,0-.452-.0799-.62099-.2399-.16-.1693-.24001-.3763-.24001-.621v-8.1573c0-.2447.08-.4469.24001-.6069.169-.1693.376-.254.62099-.254ZM116.15934,49.71664c0,.2447-.089.4517-.268.621-.179.16-.386.2399-.621.2399-.263,0-.475-.0799-.635-.2399-.16-.1693-.24-.3763-.24-.621v-8.1573c0-.2447.085-.4469.254-.6069.169-.1693.386-.254.649-.254.226,0,.424.0847.593.254.179.16.268.3622.268.6069v8.1573ZM120.58233,50.71874c-.536,0-1.035-.1082-1.49599-.3246-.46101-.2164-.83701-.5269-1.12901-.9315-.113-.1694-.169-.334-.169-.494,0-.2352.089-.4328.26801-.5927.188-.16.37199-.2399.55-.2399.141,0,.278.0423.41.127.141.0847.268.1835.381.2964.188.1693.371.2916.55.3669.188.0659.39999.0988.63499.0988.28201,0,.54601-.0706.79-.2117.245-.1411.443-.3293.593-.5645.151-.2352.226-.4893.226-.7621v-5.9275c0-.2447.089-.4469.26801-.6069.17899-.1693.38599-.254.62099-.254.264,0,.475.0847.635.254.16.16.24.3622.24.6069v5.9275c0,.5739-.15,1.1055-.451,1.5947-.302.4893-.706.8845-1.214,1.1855-.508.3011-1.077.4517-1.708.4517ZM127.83334,49.71664c0,.2447-.09001.4517-.26801.621-.179.16-.386.2399-.621.2399-.264,0-.475-.0799-.63499-.2399-.16-.1693-.24001-.3763-.24001-.621v-8.1573c0-.2447.084-.4469.25401-.6069.169-.1693.386-.254.64899-.254.22601,0,.423.0847.593.254.17799.16.26801.3622.26801.6069v8.1573ZM137.44934,40.69844c.226,0,.41.0752.55099.2258.14101.1505.211.3387.211.5645v8.2279c0,.2447-.084.4517-.254.621-.16.16-.362.2399-.606.2399-.123,0-.25-.0188-.381-.0564-.123-.0471-.217-.1082-.283-.1835l-5.54599-7.0424.367-.2258v6.7178c0,.2258-.076.414-.22601.5645-.14099.1506-.32899.2258-.56499.2258-.22501,0-.40901-.0752-.55-.2258-.14101-.1505-.21201-.3387-.21201-.5645v-8.2279c0-.2447.08-.4469.24001-.6069.17-.1693.377-.254.621-.254.13199,0,.26799.0282.409.0847.142.047.245.1223.311.2258l5.377,6.8589-.24001.1694v-6.5485c0-.2258.071-.414.21201-.5645.14099-.1506.32899-.2258.564-.2258ZM144.99133,50.71874c-.715,0-1.383-.1318-2.004-.3952s-1.16699-.6257-1.63699-1.0867c-.47101-.4704-.843-1.0114-1.11501-1.623-.26399-.6116-.396-1.2702-.396-1.9758,0-.7057.132-1.3643.396-1.9759.272-.6115.644-1.1478,1.11501-1.6089.47-.4704,1.01599-.8373,1.63699-1.1008.621-.2634,1.289-.3952,2.004-.3952.442,0,.87001.0471,1.28401.1412.414.0941.795.2352,1.14299.4234.14101.0752.24501.1787.311.3105.075.1223.11301.2493.11301.381,0,.2258-.076.4281-.22601.6069-.151.1787-.34399.2681-.57899.2681-.075,0-.155-.0094-.24001-.0282-.075-.0188-.14999-.047-.226-.0847-.235-.1035-.48399-.1835-.748-.2399-.263-.0565-.541-.0847-.832-.0847-.612,0-1.172.1553-1.67999.4657-.498.3011-.89799.7104-1.19901,1.2279-.29199.5081-.43799,1.0726-.43799,1.6936,0,.6115.146,1.176.43799,1.6935.30101.5175.701.9315,1.19901,1.242.508.3011,1.06799.4516,1.67999.4516.28201,0,.59201-.0282.931-.0847.339-.0564.61601-.1317.83301-.2258l-.127.4234v-2.4133l.23999.2117h-1.56699c-.244,0-.451-.08-.621-.24-.16-.1599-.24001-.3622-.24001-.6068,0-.2447.08-.4469.24001-.6069.17-.1599.377-.2399.621-.2399h2.31499c.244,0,.44701.0847.60701.254.16.16.23999.3623.23999.6069v2.992c0,.1881-.04799.3434-.142.4657-.084.1223-.183.2211-.29599.2964-.433.2634-.908.4751-1.425.6351-.508.1505-1.045.2258-1.60901.2258Z"/>
  <path class="cls-3" d="M151.03734,90.70584c-.658,0-1.25099-.08-1.778-.2399-.52699-.1694-1.03-.46111-1.50999-.875-.12201-.1035-.216-.22121-.282-.35291-.06601-.1317-.09901-.2634-.09901-.3951,0-.2164.07501-.4046.22601-.56461.15999-.1693.35699-.254.59299-.254.17801,0,.33801.0565.479.1694.358.2916.711.5127,1.05901.6633.35699.1505.795.2258,1.312.2258.349,0,.668-.0518.96001-.1553.29199-.1129.52699-.2587.70599-.4375.179-.1881.26801-.3998.26801-.63509,0-.2822-.08501-.5221-.254-.7197-.16901-.1976-.42801-.3623-.776-.494-.34801-.14111-.791-.24931-1.32701-.3246-.508-.0753-.955-.1882-1.34099-.33871-.38501-.1599-.71001-.3575-.974-.5927-.25401-.2447-.44601-.5269-.578-.8468-.132-.3293-.198-.6963-.198-1.1009,0-.6115.155-1.1337.46599-1.5665.32001-.4328.748-.7621,1.28401-.9879.53699-.2258,1.129-.3387,1.77899-.3387.61101,0,1.17599.0941,1.69301.2822.52699.1788.95499.4093,1.284.6916.27299.2164.41.4657.41.748,0,.20699-.08.3951-.24001.5645-.16.1693-.34801.254-.565.254-.14101,0-.26801-.0423-.381-.127-.15001-.1317-.353-.254-.60701-.36691-.254-.1223-.52199-.2211-.80399-.29639-.28201-.0847-.54601-.127-.79001-.127-.405,0-.748.0517-1.03101.1552-.27299.1035-.48.2446-.62099.4234-.14101.1788-.211.3858-.211.621,0,.2822.07999.51749.23999.7056.16901.1788.409.3246.71901.4375.31099.1035.68199.1976,1.11499.2823.565.1035,1.05901.2258,1.48201.3669.433.1412.78999.3246,1.073.5505.282.2164.49399.4939.63499.8326.14101.3293.211.73389.211,1.2138,0,.6115-.16899,1.1384-.508,1.5806-.338.4422-.785.7809-1.34,1.0162-.54601.2352-1.13901.3528-1.77901.3528ZM157.18634,80.68554c.226,0,.424.0847.593.254.179.16.26799.3623.26799.6069v8.1574c0,.2446-.08899.4516-.26799.6209-.179.16-.386.24001-.621.24001-.263,0-.47501-.08-.63499-.24001-.16-.1693-.24001-.3763-.24001-.6209v-8.1574c0-.2446.08499-.4469.254-.6069.16901-.1693.386-.254.649-.254ZM163.43834,80.68554c.26401,0,.47501.0847.63499.254.16.16.24001.3623.24001.6069v8.1574c0,.2446-.084.4516-.254.6209-.16.16-.37601.24001-.649.24001-.226,0-.42799-.08-.60699-.24001-.16901-.1693-.254-.3763-.254-.6209v-8.1574c0-.2446.09-.4469.26799-.6069.179-.1693.386-.254.621-.254ZM157.14433,84.79244h6.29401v1.62299h-6.29401v-1.62299ZM170.05433,82.90133l-3.049,7.1694c-.065.1788-.16901.3199-.31.4234-.132.0941-.278.1411-.438.1411-.254,0-.442-.0705-.564-.2117-.12201-.1411-.18401-.3152-.18401-.5222,0-.08459.01401-.174.043-.2681l3.51401-8.4396c.075-.1882.18799-.334.33899-.4375.16-.1035.32901-.1459.50801-.12711.16899,0,.32399.0518.465.1553.151.0941.259.2305.325.4093l3.472,8.2702c.047.12241.07001.23531.07001.33881,0,.254-.084.4563-.25401.6068-.15999.1506-.338.2258-.536.2258-.16899,0-.325-.0517-.466-.1552-.131-.1035-.235-.2446-.31-.4234l-3.034-7.0707.409-.0846ZM167.44334,88.34894l.776-1.623h3.81099l.26801,1.623h-4.855ZM182.93434,80.68554c.226,0,.41.0753.55099.2258.14101.1505.21201.3387.21201.5645v8.228c0,.2446-.08501.4516-.255.6209-.159.16-.362.24001-.606.24001-.123,0-.25-.01891-.381-.0565-.123-.047-.217-.1082-.283-.1835l-5.54599-7.0424.36699-.2258v6.7178c0,.2258-.075.414-.226.5645-.14099.1506-.32899.22591-.56499.22591-.22501,0-.40901-.0753-.55-.22591-.14101-.1505-.21201-.3387-.21201-.5645v-8.2279c0-.2446.08-.4469.24001-.6069.17-.1693.377-.254.621-.254.13199,0,.26799.0282.40999.0847.14101.047.244.1223.31.2258l5.37701,6.8589-.24001.1694v-6.5485c0-.2258.071-.414.21201-.5645.14099-.1505.32899-.2258.564-.2258ZM190.47633,90.70584c-.715,0-1.383-.1317-2.004-.3952-.621-.2634-1.16699-.6257-1.63699-1.0867-.47101-.4704-.84201-1.0114-1.11501-1.623-.26399-.6116-.396-1.2702-.396-1.9758,0-.7057.132-1.3643.396-1.9759.27299-.6115.644-1.1478,1.11501-1.6088.47-.4705,1.01599-.83739,1.63699-1.1009.621-.2634,1.289-.3951,2.004-.3951.442,0,.87001.047,1.28401.1411s.795.2352,1.14299.4234c.14101.0753.24501.1788.311.3105.075.1223.11301.2493.11301.381,0,.2258-.076.4281-.22601.6069-.151.17879-.34399.2681-.57899.2681-.075,0-.155-.0094-.24001-.0282-.075-.0188-.14999-.047-.226-.0847-.235-.1035-.48399-.1834-.748-.2399-.263-.0564-.541-.0847-.832-.0847-.612,0-1.172.1553-1.67999.46581-.498.30099-.89799.7103-1.19901,1.2278-.29199.50809-.438,1.0726-.438,1.6936,0,.6115.14601,1.1761.438,1.6935.30101.51749.701.9315,1.19901,1.242.508.3011,1.06799.4516,1.67999.4516.28201,0,.593-.0282.931-.0847.339-.0564.61601-.1317.83301-.2258l-.127.4234v-2.4133l.23999.2117h-1.56699c-.244,0-.451-.08-.621-.2399-.16-.16-.24001-.3623-.24001-.6069s.08-.4469.24001-.6069c.17-.1599.377-.2399.621-.2399h2.31499c.244,0,.44701.08469.60701.254.15999.16.23999.3623.23999.6069v2.992c0,.1882-.047.3434-.142.4657-.084.1223-.183.2211-.29599.2964-.433.2634-.908.4751-1.425.6351-.508.1505-1.045.2258-1.60901.2258ZM196.54834,80.68554c.226,0,.424.0847.593.254.179.16.26799.3623.26799.6069v8.1574c0,.2446-.08899.4516-.26799.6209-.179.16-.386.24001-.621.24001-.263,0-.47501-.08-.63499-.24001-.16-.1693-.24001-.3763-.24001-.6209v-8.1574c0-.2446.08501-.4469.254-.6069.17-.1693.386-.254.649-.254ZM202.80134,80.68554c.263,0,.47499.0847.63499.254.16.16.24001.3623.24001.6069v8.1574c0,.2446-.08501.4516-.25401.6209-.15999.16-.377.24001-.64999.24001-.22501,0-.42799-.08-.60699-.24001-.16901-.1693-.254-.3763-.254-.6209v-8.1574c0-.2446.09-.4469.269-.6069.17799-.1693.38499-.254.621-.254ZM196.50633,84.79244h6.29501v1.62299h-6.29501v-1.62299ZM209.41633,82.90133l-3.048,7.1694c-.06599.1788-.17.3199-.31099.4234-.132.0941-.27701.1411-.437.1411-.25401,0-.44301-.0705-.565-.2117-.12201-.1411-.183-.3152-.183-.5222,0-.08459.01399-.174.04199-.2681l3.51401-8.4396c.075-.1882.18799-.334.33899-.4375.16-.1035.32901-.1459.50801-.12711.16899,0,.325.0518.46599.1553.15001.0941.25801.2305.32401.4093l3.472,8.2702c.047.12241.071.23531.071.33881,0,.254-.08499.4563-.254.6068-.16.1506-.339.2258-.537.2258-.16899,0-.32401-.0517-.465-.1552-.132-.1035-.23601-.2446-.311-.4234l-3.034-7.0707.409-.0846ZM206.80534,88.34894l.776-1.623h3.81099l.26801,1.623h-4.855ZM216.56733,89.70384c0,.2446-.09.4516-.26799.6209-.179.16-.386.24001-.621.24001-.26401,0-.47501-.08-.63501-.24001-.15999-.1693-.23999-.3763-.23999-.6209v-8.1574c0-.2446.084-.4469.254-.6069.16899-.1693.38499-.254.649-.254.226,0,.42299.0847.593.254.17799.16.26799.3623.26799.6069v8.1574Z"/>
  <path class="cls-3" d="M174.07734,170.09234c-.658,0-1.25101-.08-1.778-.24001-.52701-.17-1.03001-.461-1.51001-.875-.12199-.104-.216-.222-.282-.353-.06599-.132-.099-.26401-.099-.395,0-.217.075-.405.226-.565.16-.16899.35699-.254.593-.254.17799,0,.338.05701.479.16901.358.29199.711.513,1.05899.66399.35701.15001.795.22601,1.31201.22601.349,0,.668-.052.95999-.15601.29201-.11301.52701-.258.70599-.437.179-.188.26801-.40001.26801-.63501,0-.28299-.08499-.52199-.254-.72-.16901-.198-.42799-.362-.776-.49399-.34799-.14101-.791-.24901-1.327-.325-.50801-.07501-.955-.188-1.341-.33801-.38499-.15999-.71001-.358-.97301-.593-.25499-.245-.44699-.52699-.57899-.84698-.132-.32901-.198-.69601-.198-1.10101,0-.61099.15601-1.133.466-1.56599.31999-.433.748-.76199,1.284-.98801.537-.226,1.129-.33899,1.77901-.33899.61099,0,1.17599.09399,1.69299.282.52699.179.955.41,1.284.692.27301.216.41.466.41.748,0,.207-.08.39499-.24001.564-.15999.17-.34799.254-.56499.254-.14101,0-.26801-.04199-.38101-.127-.14999-.131-.353-.254-.60699-.366-.254-.123-.522-.222-.804-.297-.282-.08501-.54601-.127-.78999-.127-.40501,0-.748.052-1.03101.155-.27299.10399-.48.245-.621.424-.14099.179-.211.386-.211.621,0,.282.08.517.24001.705.16899.179.409.325.71899.43799.311.10301.68201.19701,1.11501.28201.56499.10399,1.05899.226,1.48199.36699.433.14101.78999.32501,1.073.55101.282.21599.494.493.63499.832.14101.32899.21201.73399.21201,1.21399,0,.61101-.17,1.138-.509,1.58101-.338.442-.78499.78-1.34,1.01599-.54601.235-1.13899.35301-1.77899.35301ZM181.08734,169.09033c0,.244-.089.451-.26801.62001-.179.16-.386.23999-.621.23999-.263,0-.47499-.07999-.63499-.23999-.16-.16901-.24001-.37601-.24001-.62001v-8.15799c0-.244.08501-.44701.25401-.60701.16899-.16899.38599-.254.64899-.254.22601,0,.42401.08501.593.254.179.16.26801.36301.26801.60701v8.15799ZM190.70434,160.07133c.22499,0,.409.076.54999.226.14101.151.21201.339.21201.565v8.228c0,.244-.08501.451-.254.62001-.16.16-.36301.23999-.60699.23999-.12201,0-.24901-.01799-.38101-.056-.12199-.047-.217-.10799-.282-.18399l-5.547-7.04201.367-.226v6.718c0,.226-.07501.414-.226.565-.14101.14999-.32901.22499-.56401.22499-.226,0-.41-.075-.55099-.22499-.14101-.151-.211-.339-.211-.565v-8.228c0-.244.08-.44701.23999-.60701.16901-.16899.37601-.254.621-.254.13101,0,.26801.028.40901.08501.14099.047.24399.12199.31.226l5.377,6.85899-.24001.16901v-6.548c0-.226.071-.414.21201-.565.14099-.14999.32899-.226.565-.226ZM198.24534,170.09234c-.71501,0-1.38301-.132-2.00401-.39601-.62099-.263-1.16699-.625-1.63699-1.086-.47099-.47099-.842-1.01199-1.11501-1.623-.26399-.612-.39499-1.271-.39499-1.976,0-.70599.131-1.364.39499-1.976.27301-.612.64401-1.14799,1.11501-1.60899.47-.47,1.01601-.83701,1.63699-1.10101.621-.263,1.289-.39499,2.00401-.39499.44199,0,.87.047,1.284.14099.414.09401.795.235,1.14299.42401.14201.075.24501.17799.311.31.075.12199.11301.24899.11301.381,0,.226-.07501.42799-.226.60699-.15001.179-.343.26801-.57901.26801-.075,0-.155-.009-.23999-.028-.07501-.019-.15001-.047-.22501-.08501-.23601-.103-.485-.183-.748-.23999-.26399-.056-.541-.084-.83299-.084-.612,0-1.17101.155-1.679.465-.49901.30099-.899.711-1.20001,1.228-.29199.508-.43799,1.073-.43799,1.694,0,.61101.146,1.17599.43799,1.69301.30101.51799.701.93199,1.20001,1.24199.508.30101,1.067.45201,1.679.45201.282,0,.59299-.028.931-.08501.33899-.056.61699-.131.83299-.226l-.127.424v-2.41299l.24001.211h-1.567c-.244,0-.451-.08-.62001-.24001-.15999-.16-.23999-.362-.23999-.60699,0-.244.08-.446.23999-.606.16901-.16.37601-.24001.62001-.24001h2.315c.245,0,.44699.084.60699.25401.16.15999.24001.362.24001.60699v2.992c0,.18799-.04701.34299-.14101.465-.08501.123-.18401.22099-.297.297-.43201.263-.908.47501-1.425.63499-.508.15001-1.04401.22601-1.60899.22601ZM207.04234,162.28734l-3.04901,7.16901c-.06599.179-.16899.31999-.31.424-.13199.09399-.278.14099-.43799.14099-.25401,0-.442-.071-.56401-.21199-.123-.14101-.18399-.315-.18399-.522,0-.08499.01399-.174.04199-.26801l3.515-8.43999c.075-.188.188-.334.338-.43701.16-.10399.33-.146.50801-.127.17,0,.325.052.46599.155.151.09401.259.231.32501.40901l3.472,8.271c.047.12199.06999.235.06999.338,0,.254-.08499.457-.254.60699-.16.151-.339.226-.536.226-.17,0-.32501-.05199-.466-.155-.132-.10399-.235-.245-.31-.424l-3.035-7.06999.41-.08501ZM204.43133,167.73533l.776-1.623h3.81l.26901,1.623h-4.85501ZM216.50734,160.07133c.489,0,.94501.14101,1.369.42401.433.282.78099.66299,1.04399,1.14299.26401.48.395,1.01601.395,1.60901,0,.58299-.131,1.11499-.395,1.59399-.263.48-.61099.866-1.04399,1.158-.424.282-.88.42299-1.369.42299h-2.597l.14101-.254v2.922c0,.244-.07501.451-.22601.62001-.14999.16-.34799.23999-.592.23999-.23599,0-.429-.07999-.57899-.23999-.151-.16901-.226-.37601-.226-.62001v-8.15799c0-.244.08-.44701.23999-.60701.16901-.16899.37601-.254.621-.254h3.218ZM216.50734,164.81334c.179,0,.353-.075.522-.226.16899-.15001.31-.343.423-.578.11299-.245.17-.49899.17-.76199,0-.27301-.05701-.52701-.17-.76201-.11301-.23599-.25401-.424-.423-.565-.16901-.14999-.343-.226-.522-.226h-2.625l.16901-.254v3.599l-.15501-.226h2.61101ZM230.02133,165.01133c0,.705-.118,1.364-.353,1.976-.235.61101-.569,1.15201-1.002,1.623-.424.461-.93199.823-1.524,1.086-.584.26401-1.224.39601-1.92.39601s-1.336-.132-1.91899-.39601c-.584-.263-1.09201-.625-1.524-1.086-.424-.47099-.75301-1.01199-.98801-1.623-.23599-.612-.353-1.271-.353-1.976,0-.70599.117-1.364.353-1.976.235-.612.56401-1.14799.98801-1.60899.43199-.47.94-.83701,1.524-1.10101.58299-.263,1.22299-.39499,1.91899-.39499s1.336.13199,1.92.39499c.59201.26401,1.10001.63101,1.524,1.10101.433.461.767.99699,1.002,1.60899s.353,1.27.353,1.976ZM228.18634,165.01133c0-.631-.127-1.2-.381-1.70799-.254-.517-.60201-.927-1.04401-1.22801-.44299-.30099-.955-.45099-1.539-.45099-.58299,0-1.09599.14999-1.53799.45099-.442.30101-.79001.70601-1.045,1.214-.244.508-.366,1.082-.366,1.722,0,.63.12199,1.20399.366,1.722.25499.508.603.912,1.045,1.213.442.30101.955.45201,1.53799.45201.584,0,1.09601-.151,1.539-.45201.442-.30099.79001-.705,1.04401-1.213.254-.51801.381-1.092.381-1.722ZM232.65733,169.95033c-.26399,0-.49899-.07999-.70599-.23999-.207-.16901-.31-.37601-.31-.62001v-8.15799c0-.244.08-.44701.23999-.60701.16901-.16899.37601-.254.621-.254h4.06401c.489,0,.946.132,1.36899.395.433.254.78101.612,1.04401,1.073.26399.452.396.974.396,1.567,0,.35699-.07599.705-.226,1.04401-.14099.33899-.339.644-.593.91699-.245.27299-.522.485-.83299.63501l.015-.32401c.263.14099.479.31.649.508.17799.188.315.395.409.621.103.216.16499.451.183.705.03799.23599.062.44299.071.621.019.179.047.33.08501.452.047.12199.131.216.254.282.207.123.334.30099.381.537.056.22501.004.42799-.155.606-.104.123-.23601.203-.396.23999-.16.02901-.32001.02901-.479,0-.16-.03699-.29201-.084-.396-.14099-.16-.09401-.32001-.23-.479-.409-.16-.188-.29201-.438-.396-.748-.09401-.31-.14101-.71001-.14101-1.2,0-.16-.028-.30501-.084-.43701-.05701-.14099-.13699-.259-.24001-.353-.10399-.103-.23599-.179-.396-.226-.159-.056-.34799-.084-.564-.084h-2.851l.21199-.325v3.06299c0,.244-.06599.451-.198.62001-.132.16-.315.23999-.55.23999ZM233.20733,164.89834h3.289c.16901,0,.334-.07501.494-.22601.159-.15999.291-.37199.395-.63499.103-.27299.155-.569.155-.88899,0-.414-.11301-.75801-.339-1.03001-.216-.28299-.451-.424-.705-.424h-3.261l.17-.451v3.994l-.198-.33899ZM242.19134,160.07133h4.72699c.24501,0,.44701.08.60701.24001.17.151.254.34799.254.593,0,.235-.084.42799-.254.57899-.16.14101-.362.211-.60701.211h-3.95099l.127-.23999v2.752l-.11301-.11301h3.302c.245,0,.44701.08.60699.24001.17.151.254.349.254.593,0,.235-.084.42799-.254.57899-.15999.14099-.362.211-.60699.211h-3.25999l.071-.112v2.85001l-.11301-.127h3.937c.24501,0,.44701.08499.60701.254.17.15999.254.349.254.56499,0,.235-.084.42801-.254.57901-.16.14999-.362.22499-.60701.22499h-4.72699c-.24501,0-.45201-.07999-.621-.23999-.16-.16901-.24001-.37601-.24001-.62001v-8.15799c0-.244.08-.44701.24001-.60701.16899-.16899.37599-.254.621-.254Z"/>
  <path class="cls-3" d="M187.24234,129.96333c-.263,0-.48-.07999-.649-.23999-.16899-.16901-.254-.37601-.254-.621v-8.185h1.83501v8.185c0,.245-.09001.452-.26801.621-.17.16-.39101.23999-.664.23999ZM184.12333,121.70733c-.244,0-.451-.075-.621-.226-.15999-.15-.23999-.348-.23999-.592,0-.245.08-.438.23999-.57899.17-.151.377-.226.621-.226h6.26601c.245,0,.44699.075.60699.226.17.151.254.348.254.59299,0,.244-.084.442-.254.592-.16.142-.362.212-.60699.212h-6.26601ZM195.65634,122.30034l-3.048,7.16901c-.06599.179-.17.31999-.311.424-.13199.09399-.27699.14099-.437.14099-.254,0-.44299-.071-.565-.21199-.12199-.14101-.183-.315-.183-.522,0-.08501.01401-.174.04201-.26801l3.51399-8.43999c.075-.188.188-.334.339-.437.16-.104.32899-.146.508-.12701.16901,0,.325.051.466.15501.14999.09399.258.23.32401.409l3.472,8.271c.047.12199.071.235.071.338,0,.254-.08501.457-.254.60699-.16.151-.339.226-.537.226-.16901,0-.32401-.05199-.465-.155-.132-.10399-.23601-.245-.311-.424l-3.034-7.07.409-.085ZM193.04533,127.74833l.776-1.623h3.811l.26801,1.623h-4.85501ZM202.80734,129.10234c0,.245-.09.452-.26801.621-.179.16-.386.23999-.621.23999-.26399,0-.47499-.07999-.63499-.23999-.16-.16901-.24001-.37601-.24001-.621v-8.157c0-.245.084-.44701.254-.607.16901-.169.38501-.254.649-.254.226,0,.423.085.593.254.17801.16.26801.362.26801.607v8.157ZM209.00834,120.08434c.489,0,.946.141,1.36899.424.433.282.78101.663,1.04401,1.143.26399.48.395,1.01601.395,1.609,0,.583-.13101,1.115-.395,1.594-.263.48-.61101.866-1.04401,1.158-.42299.28201-.87999.423-1.36899.423h-2.597l.14099-.254v2.921c0,.245-.075.452-.226.621-.14999.16-.34801.23999-.592.23999-.23601,0-.42801-.07999-.57901-.23999-.14999-.16901-.226-.37601-.226-.621v-8.157c0-.245.08-.44701.24001-.607.17-.169.377-.254.621-.254h3.218ZM209.00834,124.82634c.17899,0,.353-.075.52199-.226.16901-.15.311-.343.42401-.578.112-.245.16899-.499.16899-.762,0-.27299-.05699-.527-.16899-.762-.11301-.236-.255-.424-.42401-.56499-.16899-.151-.343-.22601-.52199-.22601h-2.625l.16899-.254v3.599l-.155-.226h2.61101ZM214.29434,120.08434h4.728c.244,0,.44701.07999.60699.24.16901.151.25401.348.25401.593,0,.23499-.08501.42799-.25401.578-.15999.142-.36299.212-.60699.212h-3.952l.127-.24v2.752l-.11301-.113h3.30301c.24399,0,.44699.08.60599.24.17001.151.255.348.255.593,0,.235-.08499.428-.255.579-.159.141-.362.211-.60599.211h-3.261l.071-.112v2.85001l-.11301-.12701h3.938c.244,0,.44701.08501.60699.25401.16901.15999.25401.34799.25401.56499,0,.235-.08501.42801-.25401.57901-.15999.14999-.36299.22499-.60699.22499h-4.728c-.245,0-.452-.07999-.621-.23999-.16-.16901-.24001-.37601-.24001-.621v-8.157c0-.245.08-.44701.24001-.607.16901-.169.37601-.254.621-.254ZM223.27334,129.10234c0,.245-.089.452-.26801.621-.17799.16-.38499.23999-.621.23999-.263,0-.47501-.07999-.63499-.23999-.16-.16901-.24001-.37601-.24001-.621v-8.157c0-.245.08501-.44701.254-.607.17-.169.386-.254.65001-.254.22499,0,.42299.085.592.254.179.16.26801.362.26801.607v8.157Z"/>
  <path class="cls-3" d="M118.40534,120.08434c.226,0,.423.085.59299.254.178.16.26801.362.26801.607v8.157c0,.245-.09.452-.26801.621-.179.16-.38599.23999-.62099.23999-.264,0-.47501-.07999-.635-.23999-.16-.16901-.24-.37601-.24-.621v-8.157c0-.245.084-.44701.254-.607.169-.169.385-.254.649-.254ZM124.65734,120.08434c.263,0,.475.085.635.254.16.16.24.362.24.607v8.157c0,.245-.085.452-.25401.621-.16.16-.376.23999-.64899.23999-.22601,0-.428-.07999-.607-.23999-.169-.16901-.254-.37601-.254-.621v-8.157c0-.245.089-.44701.268-.607.179-.169.386-.254.621-.254ZM118.36334,124.19134h6.294v1.623h-6.294v-1.623ZM134.44833,129.96333c-.26399,0-.47499-.10799-.63499-.32399l-3.25999-4.291,1.284-1.312,3.373,4.46c.132.17801.198.371.198.578,0,.26399-.099.48-.297.649-.19701.16-.418.23999-.66301.23999ZM134.61734,120.01433c.226,0,.41.094.55099.28201.15001.179.22501.362.22501.55,0,.19801-.084.381-.254.551l-5.91301,5.659-.06999-2.01801,4.77-4.7c.21599-.216.44699-.32401.69099-.32401ZM128.52034,129.96333c-.263,0-.47501-.07999-.63499-.23999-.16-.16901-.24001-.37601-.24001-.621v-8.157c0-.245.08501-.44701.254-.607.17-.169.386-.254.65001-.254.26299,0,.46999.085.62099.254.16.16.24001.362.24001.607v8.157c0,.245-.08.452-.24001.621-.15999.16-.377.23999-.64999.23999Z"/>
  <path class="cls-3" d="M25.43164,142.01733c.6774,0,1.2796.127,1.8065.38101.5269.254.9691.612,1.3266,1.073.367.45099.6398.978.8186,1.58.1882.59299.2822,1.228.2822,1.90599,0,.912-.1646,1.74501-.4939,2.498-.3293.743-.8092,1.336-1.4395,1.778-.621.442-1.3878.66299-2.3005.66299h-3.373c-.2446,0-.4516-.07999-.621-.23999-.1599-.16901-.2399-.37601-.2399-.621v-8.157c0-.245.08-.44701.2399-.60701.1694-.16899.3764-.254.621-.254h3.373ZM25.29054,150.27334c.5927,0,1.0773-.15001,1.4536-.451.3764-.311.6492-.715.8186-1.214.1788-.508.2681-1.05899.2681-1.651,0-.44299-.0517-.86099-.1552-1.256-.0941-.405-.2446-.758-.4516-1.05901-.207-.31-.4705-.55499-.7904-.73399-.3198-.179-.7009-.26801-1.1431-.26801h-2.4698l.1411-.127v6.916l-.0847-.15599h2.4134ZM32.14724,142.01733h4.7279c.2447,0,.4469.08.6069.24001.1693.151.254.34801.254.593,0,.235-.0847.42799-.254.578-.16.142-.3622.21199-.6069.21199h-3.9516l.127-.23999v2.752l-.1129-.11301h3.3024c.2447,0,.447.08.6069.24001.1694.151.254.34799.254.593,0,.235-.0846.42799-.254.57899-.1599.14101-.3622.211-.6069.211h-3.2601l.0706-.11299v2.851l-.1129-.127h3.9375c.2447,0,.4469.08499.6069.254.1693.15999.254.34799.254.565,0,.235-.0847.42799-.254.57799-.16.151-.3622.226-.6069.226h-4.7279c-.2446,0-.4516-.07999-.6209-.23999-.16-.16901-.24-.37601-.24-.621v-8.157c0-.245.08-.44701.24-.60701.1693-.16899.3763-.254.6209-.254ZM48.68804,142.01733c.2258,0,.4234.08501.5928.254.1787.16.2681.36201.2681.60701v8.157c0,.245-.0894.452-.2681.621-.1788.16-.3858.23999-.621.23999-.2635,0-.4752-.07999-.6351-.23999-.1599-.16901-.2399-.37601-.2399-.621v-8.157c0-.245.0847-.44701.254-.60701.1694-.16899.3858-.254.6492-.254ZM54.94014,142.01733c.2635,0,.4752.08501.6351.254.1599.16.2399.36201.2399.60701v8.157c0,.245-.0847.452-.254.621-.16.16-.3764.23999-.6492.23999-.2258,0-.4281-.07999-.6069-.23999-.1693-.16901-.254-.37601-.254-.621v-8.157c0-.245.0894-.44701.2681-.60701.1788-.16899.3858-.254.621-.254ZM48.64574,146.12434h6.2944v1.623h-6.2944v-1.623ZM45.23317,150.24534c.2446,0,.4469.07999.6069.23999.1693.15001.254.34801.254.593,0,.235-.0847.433-.254.592-.16.151-.3623.226-.6069.226h-4.5867c-.2447,0-.4517-.07999-.621-.23999-.16-.16901-.2399-.37601-.2399-.621v-8.157c0-.245.0846-.44701.254-.60701.1693-.16899.3857-.254.6492-.254.2258,0,.4234.08501.5927.254.1788.16.2682.36201.2682.60701v7.60699l-.3105-.23999h3.994ZM59.19554,151.03534c0,.245-.0894.452-.2681.621-.1788.16-.3858.23999-.621.23999-.2634,0-.4751-.07999-.6351-.23999-.1599-.16901-.2399-.37601-.2399-.621v-8.157c0-.245.0847-.44701.254-.60701.1694-.16899.3858-.254.6492-.254.2258,0,.4234.08501.5928.254.1787.16.2681.36201.2681.60701v8.157Z"/>
  <path class="cls-3" d="M261.90533,92.05494c-.263,0-.47998-.08-.64899-.2399-.16901-.1694-.254-.3764-.254-.621v-8.1856h1.83499v8.1856c0,.2446-.09.4516-.26901.621-.16898.1599-.38998.2399-.66299.2399ZM258.78634,83.79873c-.245,0-.452-.0752-.621-.2258-.16-.1505-.23999-.3481-.23999-.5927s.07999-.4375.23999-.5787c.16901-.15051.37601-.2258.621-.2258h6.26599c.245,0,.44699.07529.60699.2258.17001.1506.254.3482.254.5928s-.08398.4422-.254.5927c-.16.1412-.362.2117-.60699.2117h-6.26599ZM276.20834,87.11534c0,.7057-.11801,1.3643-.353,1.9758-.23502.6116-.569,1.1526-1.00201,1.623-.423.4611-.931.8233-1.52399,1.0868-.58401.2634-1.22299.3951-1.92001.3951-.69598,0-1.336-.1317-1.91901-.3951-.58298-.2635-1.09097-.6257-1.52399-1.0868-.42401-.47041-.75299-1.01141-.98801-1.623-.23499-.6115-.353-1.2701-.353-1.9758,0-.7056.11801-1.3643.353-1.9758.23502-.6116.564-1.1479.98801-1.6089.43301-.4704.94101-.8374,1.52399-1.1008.58301-.2635,1.22302-.3952,1.91901-.3952.69702,0,1.336.1317,1.92001.3952.59299.2634,1.10098.6304,1.52399,1.1008.43301.461.767.9973,1.00201,1.6089.23499.6115.353,1.2702.353,1.9758ZM274.37335,87.11534c0-.6304-.12701-1.1996-.38101-1.7077-.254-.5175-.60199-.9267-1.04401-1.2278-.44199-.3011-.95499-.4516-1.539-.4516-.58301,0-1.09598.1505-1.53799.4516-.44199.3011-.79001.7056-1.04401,1.2137-.245.5081-.367,1.082-.367,1.7218,0,.6304.12201,1.2043.367,1.7218.254.50809.60202.9127,1.04401,1.2137.44202.30109.95499.4517,1.53799.4517.58401,0,1.09702-.1506,1.539-.4517.44202-.301.79001-.7056,1.04401-1.2137.254-.5175.38101-1.0914.38101-1.7218ZM284.63034,92.05494c-.263,0-.47501-.1082-.63501-.3246l-3.25998-4.2904,1.28497-1.3125,3.37302,4.4597c.13101.17879.19699.3717.19699.5787,0,.2634-.099.4798-.29599.6492-.198.1599-.41901.2399-.664.2399ZM284.80035,82.10524c.22598,0,.409.0941.54999.2822.151.1788.22598.3623.22598.5504,0,.1976-.08499.3811-.254.55041l-5.91299,5.65939-.07098-2.0182,4.76999-4.6996c.21701-.2164.44699-.3246.69202-.3246ZM278.70334,92.05494c-.26401,0-.47501-.08-.63501-.2399-.16-.1694-.23999-.3764-.23999-.621v-8.1574c0-.2446.08499-.4469.254-.6068.16901-.1694.38602-.2541.64902-.2541.26398,0,.47098.08469.62097.2541.16.1599.24002.3622.24002.6068v8.1574c0,.2446-.08002.4516-.24002.621-.15997.1599-.37598.2399-.64899.2399ZM293.64633,82.13344c.216,0,.409.0847.57901.254.17801.16.26801.367.26801.621,0,.0847-.01401.1741-.043.2682-.01801.08459-.056.1693-.11301.254l-3.203,4.5867.254-.9738v4.0505c0,.2446-.08499.4516-.254.621-.16.1599-.34799.2399-.565.2399-.23499,0-.43701-.08-.60699-.2399-.16-.1694-.23901-.3764-.23901-.621v-3.9376l.112.4517-3.04797-4.0505c-.09402-.1223-.16-.2399-.19803-.3528-.03699-.1129-.056-.2164-.056-.3105,0-.254.099-.461.29602-.621.198-.1599.39999-.2399.60699-.2399.26401,0,.49399.1317.69199.3952l2.70901,3.7399-.39499-.0564,2.49799-3.6553c.198-.2823.43301-.4234.70599-.4234ZM304.47534,87.11534c0,.7057-.117,1.3643-.35199,1.9758-.23602.6116-.57001,1.1526-1.00201,1.623-.42401.4611-.93201.8233-1.52499,1.0868-.58301.2634-1.22299.3951-1.91901.3951s-1.336-.1317-1.91901-.3951c-.58398-.2635-1.09198-.6257-1.52499-1.0868-.423-.47041-.75198-1.01141-.98801-1.623-.23499-.6115-.35199-1.2701-.35199-1.9758,0-.7056.117-1.3643.35199-1.9758.23602-.6116.565-1.1479.98801-1.6089.43301-.4704.94101-.8374,1.52499-1.1008.58301-.2635,1.22302-.3952,1.91901-.3952s1.336.1317,1.91901.3952c.59299.2634,1.10098.6304,1.52499,1.1008.43201.461.76599.9973,1.00201,1.6089.23499.6115.35199,1.2702.35199,1.9758ZM302.64132,87.11534c0-.6304-.12698-1.1996-.38098-1.7077-.254-.5175-.60202-.9267-1.04501-1.2278-.44199-.3011-.95499-.4516-1.53799-.4516s-1.09601.1505-1.53799.4516c-.44299.3011-.79102.7056-1.04501,1.2137-.24399.5081-.367,1.082-.367,1.7218,0,.6304.12302,1.2043.367,1.7218.254.50809.60202.9127,1.04501,1.2137.44199.30109.95499.4517,1.53799.4517s1.09601-.1506,1.53799-.4517c.44299-.301.79102-.7056,1.04501-1.2137.254-.5175.38098-1.0914.38098-1.7218Z"/>
  <path class="cls-3" d="M268.30334,125.33834c0,.706-.11801,1.364-.353,1.976-.23602.611-.57001,1.152-1.00201,1.62299-.42398.46101-.93201.82301-1.52499,1.08601-.58301.26399-1.22299.396-1.91901.396s-1.336-.132-1.91901-.396c-.58398-.263-1.09198-.625-1.52399-1.08601-.42401-.47099-.75299-1.01199-.98801-1.62299-.23599-.612-.353-1.27-.353-1.976s.117-1.364.353-1.976c.23502-.611.564-1.148.98801-1.609.43201-.47.94-.83701,1.52399-1.10101.58301-.263,1.22302-.395,1.91901-.395s1.336.132,1.91901.395c.59299.264,1.10101.631,1.52499,1.10101.43201.461.76599.998,1.00201,1.609.23499.612.353,1.27.353,1.976ZM266.46835,125.33834c0-.63-.12701-1.2-.38101-1.708-.254-.517-.60199-.927-1.04501-1.228-.44199-.30099-.95499-.451-1.53799-.451s-1.09601.15-1.53799.451c-.44199.301-.79099.706-1.04501,1.214-.24399.508-.36697,1.082-.36697,1.722,0,.63.12299,1.204.36697,1.722.25403.508.60303.91199,1.04501,1.21301.44199.30199.95499.452,1.53799.452s1.09601-.15001,1.53799-.452c.44302-.30101.79102-.705,1.04501-1.21301.254-.518.38101-1.092.38101-1.722ZM273.09833,130.41934c-.659,0-1.25098-.08-1.77798-.24001-.52701-.17-1.03-.461-1.51001-.875-.12299-.104-.21698-.22099-.28299-.353-.065-.132-.09799-.26401-.09799-.395,0-.217.07498-.405.22498-.565.16-.16899.358-.254.59302-.254.17899,0,.33899.05701.47998.16901.358.29199.71002.513,1.05801.664.358.14999.79599.226,1.31299.226.34802,0,.668-.052.96002-.15601.29099-.11299.52698-.258.70499-.437.17902-.188.26901-.39999.26901-.63499,0-.28201-.08502-.522-.255-.72-.16901-.19801-.42801-.36201-.776-.494-.34799-.141-.79001-.249-1.32599-.325-.50803-.075-.95502-.188-1.341-.33801-.38602-.16-.71002-.358-.974-.59299-.254-.245-.44702-.527-.57901-.847-.13101-.329-.19699-.69601-.19699-1.10101,0-.611.155-1.133.466-1.56599.319-.43301.74799-.762,1.284-.98801.53598-.226,1.129-.339,1.77798-.339.612,0,1.17599.094,1.694.282.52701.179.95502.41,1.284.692.27301.216.409.466.409.748,0,.207-.07999.395-.23999.565-.16.169-.34799.254-.564.254-.14099,0-.26801-.043-.38101-.127-.151-.132-.353-.254-.60699-.367-.254-.12299-.522-.222-.80499-.297-.28201-.084-.54501-.127-.79001-.127-.40399,0-.74799.052-1.03.155-.27301.104-.48001.245-.621.424-.14099.17899-.21201.38599-.21201.62099,0,.28201.08002.517.24002.705.16898.179.409.325.72.438.31.103.68198.198,1.11499.282.564.104,1.05798.226,1.48199.367.43301.141.79001.325,1.07199.551.28302.216.49402.494.63501.832.142.33.21201.734.21201,1.214,0,.612-.16901,1.138-.508,1.58099-.33902.442-.78601.78101-1.341,1.01601-.54501.235-1.138.353-1.77802.353ZM281.97134,122.61434l-3.04901,7.16999c-.06598.17801-.16901.319-.31.423-.13199.09401-.27798.14101-.43799.14101-.254,0-.44202-.071-.564-.21201-.12302-.14099-.18402-.315-.18402-.522,0-.08499.01401-.174.043-.26799l3.51401-8.44c.07501-.188.18799-.334.33801-.437.16-.104.32999-.146.508-.127.16998,0,.32498.052.466.155.151.094.259.231.32498.409l3.47202,8.271c.047.12201.07001.235.07001.338,0,.254-.08401.457-.25403.60701-.15997.151-.33899.226-.53598.226-.16901,0-.32501-.052-.466-.155-.13199-.104-.23502-.24501-.31-.42401l-3.035-7.06999.41-.085ZM279.36035,128.06233l.776-1.62299h3.81l.26898,1.62299h-4.85498ZM294.16034,130.27734c-.26401,0-.47501-.108-.63501-.32401l-3.26099-4.29,1.285-1.313,3.37299,4.45999c.13202.17801.19702.371.19702.578,0,.26401-.09802.48-.29602.65001-.198.15999-.41901.239-.66299.239ZM294.32934,120.32834c.22598,0,.409.094.54999.282.151.179.22601.362.22601.55,0,.198-.08401.381-.254.551l-5.91299,5.659-.07101-2.018,4.771-4.7c.216-.216.44601-.324.69101-.324ZM288.23233,130.27734c-.263,0-.47501-.07901-.63498-.239-.16-.17001-.24002-.377-.24002-.621v-8.158c0-.244.08502-.447.254-.607.17001-.169.38602-.254.64902-.254.26401,0,.47101.085.621.254.16.16.23999.36301.23999.607v8.158c0,.244-.07999.45099-.23999.621-.16.15999-.37601.239-.64902.239ZM300.23233,122.61434l-3.048,7.16999c-.06598.17801-.16998.319-.31097.423-.13101.09401-.27701.14101-.43701.14101-.254,0-.44199-.071-.565-.21201-.12201-.14099-.18298-.315-.18298-.522,0-.08499.01398-.174.04199-.26799l3.51401-8.44c.07599-.188.18799-.334.33899-.437.16-.104.32901-.146.508-.127.16901,0,.32501.052.466.155.14999.094.259.231.32401.409l3.47198,8.271c.047.12201.07101.235.07101.338,0,.254-.08502.457-.254.60701-.16.151-.33902.226-.53702.226-.16901,0-.32401-.052-.465-.155-.13199-.104-.23599-.24501-.311-.42401l-3.034-7.06999.409-.085ZM297.62134,128.06233l.776-1.62299h3.811l.26801,1.62299h-4.85501Z"/>
</svg>