<svg width="238" height="237" viewBox="0 0 238 237" fill="none" xmlns="http://www.w3.org/2000/svg">
    <path d="M161.007 59.1624H198.151C202.253 59.1624 205.579 55.8365 205.579 51.7338V12.6341C205.579 8.53135 202.253 5.20544 198.151 5.20544H160.224C156.122 5.20544 152.796 8.53135 152.796 12.6341C152.796 16.7368 149.47 20.0627 145.367 20.0627H12.4286C8.32593 20.0627 5 23.3886 5 27.4913V108.819C5 112.921 8.32593 116.247 12.4286 116.247H79.0938C83.1965 116.247 86.5224 119.573 86.5224 123.676V224.944C86.5224 229.046 89.8484 232.372 93.9511 232.372H158.856C162.959 232.372 166.285 229.046 166.285 224.944V156.52C166.285 152.417 169.61 149.091 173.713 149.091H194.046C198.148 149.091 201.474 145.765 201.474 141.662V103.735C201.474 99.6325 198.148 96.3066 194.046 96.3066H161.007C156.904 96.3066 153.578 92.9807 153.578 88.878V66.591C153.578 62.4883 156.904 59.1624 161.007 59.1624Z" fill="#D2CFC6" stroke="#EDEBDC" stroke-width="8.82068" stroke-miterlimit="10"/>
    <path d="M226.693 163.46C226.693 156.82 221.31 151.437 214.67 151.437C208.03 151.437 202.647 156.82 202.647 163.46V189.266C202.647 195.906 208.03 201.288 214.67 201.288C221.31 201.288 226.693 195.906 226.693 189.266V163.46Z" fill="#D2CFC6" stroke="#EDEBDC" stroke-width="8.82068" stroke-miterlimit="10"/>
    <rect x="167.594" y="38.4226" width="68.8013" height="29.9903" rx="4.41034" fill="white" stroke="#EDEBDC" stroke-width="2.94023"/>
    <path d="M186.524 48.7179C187.201 48.7179 187.803 48.8449 188.33 49.0989C188.857 49.353 189.299 49.7105 189.657 50.1715C190.024 50.6232 190.297 51.15 190.475 51.7522C190.664 52.3449 190.758 52.98 190.758 53.6575C190.758 54.5701 190.593 55.4028 190.264 56.1555C189.934 56.8988 189.455 57.4915 188.824 57.9337C188.203 58.3759 187.436 58.597 186.524 58.597H183.151C182.906 58.597 182.699 58.5171 182.53 58.3571C182.37 58.1878 182.29 57.9808 182.29 57.7361V49.5788C182.29 49.3342 182.37 49.1319 182.53 48.9719C182.699 48.8026 182.906 48.7179 183.151 48.7179H186.524ZM186.383 56.974C186.975 56.974 187.46 56.8235 187.836 56.5224C188.213 56.2119 188.485 55.8074 188.655 55.3087C188.834 54.8006 188.923 54.2502 188.923 53.6575C188.923 53.2153 188.871 52.7966 188.768 52.4014C188.674 51.9968 188.523 51.644 188.316 51.3429C188.109 51.0324 187.846 50.7878 187.526 50.609C187.206 50.4303 186.825 50.3409 186.383 50.3409H183.913L184.054 50.2139V57.1293L183.969 56.974H186.383ZM199.393 48.7038C199.637 48.7038 199.835 48.7885 199.985 48.9578C200.136 49.1178 200.211 49.32 200.211 49.5647V54.6736C200.211 55.4545 200.042 56.1461 199.703 56.7482C199.374 57.3504 198.918 57.8208 198.334 58.1595C197.751 58.4983 197.073 58.6676 196.302 58.6676C195.53 58.6676 194.848 58.4983 194.256 58.1595C193.672 57.8208 193.211 57.3504 192.872 56.7482C192.543 56.1461 192.379 55.4545 192.379 54.6736V49.5647C192.379 49.32 192.463 49.1178 192.633 48.9578C192.802 48.7885 193.018 48.7038 193.282 48.7038C193.498 48.7038 193.691 48.7885 193.86 48.9578C194.039 49.1178 194.129 49.32 194.129 49.5647V54.6736C194.129 55.144 194.227 55.5533 194.425 55.9014C194.632 56.2402 194.9 56.5036 195.229 56.6918C195.568 56.88 195.926 56.974 196.302 56.974C196.707 56.974 197.083 56.88 197.431 56.6918C197.779 56.5036 198.061 56.2402 198.278 55.9014C198.494 55.5533 198.602 55.144 198.602 54.6736V49.5647C198.602 49.32 198.673 49.1178 198.814 48.9578C198.955 48.7885 199.148 48.7038 199.393 48.7038ZM206.747 48.7179C207.65 48.7179 208.323 48.9296 208.765 49.353C209.207 49.7764 209.428 50.402 209.428 51.23C209.428 51.6722 209.32 52.0627 209.104 52.4014C208.887 52.7307 208.567 52.9894 208.144 53.1776C207.721 53.3564 207.198 53.4458 206.577 53.4458L206.634 52.8107C206.925 52.8107 207.26 52.853 207.636 52.9377C208.012 53.013 208.374 53.1541 208.723 53.3611C209.08 53.5587 209.372 53.8409 209.598 54.2079C209.833 54.5654 209.95 55.0264 209.95 55.591C209.95 56.2119 209.847 56.72 209.64 57.1152C209.442 57.5103 209.179 57.8161 208.85 58.0325C208.52 58.2489 208.167 58.3995 207.791 58.4841C207.415 58.5594 207.053 58.597 206.704 58.597H203.19C202.946 58.597 202.739 58.5171 202.569 58.3571C202.409 58.1878 202.329 57.9808 202.329 57.7361V49.5788C202.329 49.3342 202.409 49.1319 202.569 48.9719C202.739 48.8026 202.946 48.7179 203.19 48.7179H206.747ZM206.493 50.3832H203.981L204.164 50.1574V52.7119L203.995 52.5849H206.535C206.808 52.5849 207.053 52.4955 207.269 52.3167C207.485 52.138 207.594 51.8792 207.594 51.5405C207.594 51.1359 207.49 50.8443 207.283 50.6655C207.085 50.4773 206.822 50.3832 206.493 50.3832ZM206.606 54.2502H204.037L204.164 54.1373V57.1152L204.023 56.974H206.704C207.137 56.974 207.481 56.8611 207.735 56.6353C207.989 56.4001 208.116 56.052 208.116 55.591C208.116 55.1676 208.031 54.8618 207.862 54.6736C207.692 54.4854 207.49 54.3678 207.255 54.3208C207.02 54.2737 206.803 54.2502 206.606 54.2502ZM215.204 50.9336L212.156 58.1031C212.09 58.2819 211.987 58.423 211.845 58.5265C211.714 58.6206 211.568 58.6676 211.408 58.6676C211.154 58.6676 210.966 58.597 210.843 58.4559C210.721 58.3148 210.66 58.1407 210.66 57.9337C210.66 57.8491 210.674 57.7597 210.702 57.6656L214.216 49.226C214.292 49.0378 214.405 48.8919 214.555 48.7885C214.715 48.685 214.884 48.6426 215.063 48.6614C215.233 48.6614 215.388 48.7132 215.529 48.8167C215.679 48.9108 215.788 49.0472 215.854 49.226L219.325 57.4962C219.372 57.6185 219.396 57.7314 219.396 57.8349C219.396 58.089 219.311 58.2913 219.142 58.4418C218.982 58.5923 218.803 58.6676 218.606 58.6676C218.436 58.6676 218.281 58.6159 218.14 58.5124C218.008 58.4089 217.905 58.2677 217.829 58.089L214.795 51.0183L215.204 50.9336ZM212.593 56.3813L213.37 54.7583H217.18L217.448 56.3813H212.593ZM222.355 57.7361C222.355 57.9808 222.266 58.1878 222.087 58.3571C221.908 58.5171 221.701 58.597 221.466 58.597C221.202 58.597 220.991 58.5171 220.831 58.3571C220.671 58.1878 220.591 57.9808 220.591 57.7361V49.5788C220.591 49.3342 220.676 49.1319 220.845 48.9719C221.014 48.8026 221.231 48.7179 221.494 48.7179C221.72 48.7179 221.918 48.8026 222.087 48.9719C222.266 49.1319 222.355 49.3342 222.355 49.5788V57.7361Z" fill="#E37869"/>
</svg>
