<svg width="318" height="184" viewBox="0 0 318 184" fill="none" xmlns="http://www.w3.org/2000/svg">
    <path d="M238.45 88.3958L238.279 117.85C238.255 122.092 241.673 125.55 245.915 125.575L245.915 125.575C250.156 125.599 253.614 122.181 253.639 117.939L253.809 88.4846C253.834 84.2431 250.415 80.7849 246.174 80.7604C241.932 80.7358 238.474 84.1543 238.45 88.3958Z" fill="#D2CFC6" stroke="#EDEBDC" stroke-width="8.82068" stroke-miterlimit="10"/>
    <path d="M214.258 128.945C218.255 128.969 221.514 125.556 221.537 121.321L221.562 116.727C221.585 112.492 218.363 109.039 214.366 109.014C210.369 108.99 207.11 112.403 207.087 116.638L207.062 121.233C207.039 125.467 210.261 128.92 214.258 128.945Z" fill="#D2CFC6" stroke="#EDEBDC" stroke-width="8.82068" stroke-miterlimit="10"/>
    <path d="M10.8323 5.00009C7.98948 4.98371 5.67166 7.27499 5.65529 10.1178L5.34996 63.1365L5.32035 63.1363L5.00009 118.746C4.98372 121.589 7.27501 123.906 10.1178 123.923L52.8949 124.169C55.7262 124.186 58.0127 126.485 58.0127 129.317V173.576C58.0127 176.418 60.3173 178.723 63.1602 178.723H81.96C84.8028 178.723 87.1074 176.418 87.1074 173.576V129.544C87.1074 126.689 89.4301 124.38 92.2845 124.396L119.036 124.55C121.879 124.567 124.17 126.885 124.153 129.728L124.032 150.568C124.015 153.411 126.306 155.729 129.149 155.745L151.542 155.874C154.385 155.891 156.676 158.209 156.66 161.051L156.626 166.882C156.61 169.725 158.901 172.043 161.744 172.059L180.822 172.169C183.665 172.185 185.983 169.894 185.999 167.051L186.034 160.934C186.05 158.091 183.759 155.773 180.916 155.757C178.074 155.74 175.782 153.422 175.799 150.579L175.919 130.025C175.936 127.183 178.253 124.892 181.096 124.908L186.291 124.938C189.134 124.954 191.452 122.663 191.468 119.82L191.76 69.6015C191.777 66.7588 194.094 64.4677 196.937 64.4841L197.97 64.49C200.813 64.5064 203.104 66.8241 203.088 69.6668L203.017 82.0556C203.001 84.8983 205.292 87.216 208.135 87.2324L213.2 87.2617C216.043 87.2781 218.361 84.9867 218.377 82.1438L218.448 69.7557C218.464 66.9128 220.782 64.6214 223.625 64.6378L269.582 64.9026C272.425 64.9189 274.742 62.6276 274.759 59.7847L275.035 11.6695C275.051 8.82677 272.76 6.50901 269.917 6.49264L10.8323 5.00009Z" fill="#D2CFC6" stroke="#EDEBDC" stroke-width="8.82068" stroke-miterlimit="10"/>
    <rect x="175.239" y="30.9928" width="68.8013" height="29.9903" rx="4.41034" fill="white" stroke="#EDEBDC" stroke-width="2.94023"/>
    <rect x="88.2089" y="30.9928" width="68.8013" height="29.9903" rx="4.41034" fill="white" stroke="#EDEBDC" stroke-width="2.94023"/>
    <rect x="140.544" y="70.9798" width="84.6785" height="29.9903" rx="4.41034" fill="white" stroke="#EDEBDC" stroke-width="2.94023"/>
    <rect x="164.6" y="150.366" width="90.559" height="29.9903" rx="4.41034" fill="white" stroke="#EDEBDC" stroke-width="2.94023"/>
    <rect x="169.947" y="110.379" width="68.8013" height="29.9903" rx="4.41034" fill="white" stroke="#EDEBDC" stroke-width="2.94023"/>
    <rect x="92.3246" y="110.379" width="68.8013" height="29.9903" rx="4.41034" fill="white" stroke="#EDEBDC" stroke-width="2.94023"/>
    <rect x="6.47011" y="132.312" width="68.8013" height="29.9903" rx="4.41034" fill="white" stroke="#EDEBDC" stroke-width="2.94023"/>
    <rect x="247.569" y="72.4701" width="68.8013" height="29.9903" rx="4.41034" fill="white" stroke="#EDEBDC" stroke-width="2.94023"/>
    <rect x="246.981" y="110.693" width="68.8013" height="29.9903" rx="4.41034" fill="white" stroke="#EDEBDC" stroke-width="2.94023"/>
    <path d="M191.399 51.3084C190.74 51.3084 190.148 51.2284 189.621 51.0684C189.094 50.8991 188.591 50.6074 188.111 50.1934C187.988 50.0899 187.894 49.9723 187.828 49.8406C187.763 49.7089 187.73 49.5772 187.73 49.4454C187.73 49.229 187.805 49.0409 187.955 48.8809C188.115 48.7116 188.313 48.6269 188.548 48.6269C188.727 48.6269 188.887 48.6833 189.028 48.7962C189.386 49.0879 189.738 49.309 190.086 49.4596C190.444 49.6101 190.882 49.6854 191.399 49.6854C191.747 49.6854 192.067 49.6336 192.359 49.5301C192.65 49.4172 192.886 49.2714 193.064 49.0926C193.243 48.9044 193.333 48.6927 193.333 48.4575C193.333 48.1753 193.248 47.9353 193.078 47.7378C192.909 47.5402 192.65 47.3755 192.302 47.2438C191.954 47.1027 191.512 46.9945 190.976 46.9192C190.468 46.8439 190.021 46.731 189.635 46.5805C189.249 46.4205 188.925 46.223 188.661 45.9877C188.407 45.7431 188.214 45.4608 188.082 45.1409C187.951 44.8116 187.885 44.4447 187.885 44.0401C187.885 43.4286 188.04 42.9064 188.351 42.4736C188.67 42.0408 189.099 41.7115 189.635 41.4857C190.171 41.2598 190.764 41.1469 191.413 41.1469C192.025 41.1469 192.589 41.241 193.107 41.4292C193.634 41.608 194.062 41.8385 194.391 42.1207C194.664 42.3371 194.8 42.5865 194.8 42.8687C194.8 43.0757 194.72 43.2639 194.56 43.4333C194.4 43.6026 194.212 43.6873 193.996 43.6873C193.855 43.6873 193.728 43.645 193.615 43.5603C193.464 43.4286 193.262 43.3062 193.008 43.1933C192.754 43.071 192.486 42.9722 192.203 42.897C191.921 42.8123 191.658 42.7699 191.413 42.7699C191.009 42.7699 190.665 42.8217 190.383 42.9252C190.11 43.0287 189.903 43.1698 189.762 43.3486C189.621 43.5274 189.55 43.7343 189.55 43.9696C189.55 44.2518 189.63 44.487 189.79 44.6752C189.959 44.854 190.199 44.9998 190.51 45.1127C190.82 45.2162 191.192 45.3103 191.625 45.395C192.189 45.4985 192.683 45.6208 193.107 45.7619C193.539 45.9031 193.897 46.0865 194.179 46.3123C194.462 46.5287 194.673 46.8063 194.814 47.145C194.956 47.4743 195.026 47.8789 195.026 48.3587C195.026 48.9703 194.857 49.4972 194.518 49.9394C194.179 50.3816 193.732 50.7203 193.177 50.9555C192.632 51.1908 192.039 51.3084 191.399 51.3084ZM197.505 41.2881H202.233C202.478 41.2881 202.68 41.368 202.84 41.528C203.01 41.6785 203.094 41.8761 203.094 42.1207C203.094 42.356 203.01 42.5488 202.84 42.6994C202.68 42.8405 202.478 42.9111 202.233 42.9111H198.282L198.409 42.6712V45.4232L198.296 45.3103H201.598C201.843 45.3103 202.045 45.3903 202.205 45.5502C202.374 45.7008 202.459 45.8984 202.459 46.143C202.459 46.3782 202.374 46.5711 202.205 46.7216C202.045 46.8627 201.843 46.9333 201.598 46.9333H198.338L198.409 46.8204V49.6712L198.296 49.5442H202.233C202.478 49.5442 202.68 49.6289 202.84 49.7983C203.01 49.9582 203.094 50.1464 203.094 50.3628C203.094 50.598 203.01 50.7909 202.84 50.9414C202.68 51.092 202.478 51.1672 202.233 51.1672H197.505C197.261 51.1672 197.054 51.0873 196.884 50.9273C196.725 50.758 196.645 50.551 196.645 50.3063V42.149C196.645 41.9043 196.725 41.7021 196.884 41.5421C197.054 41.3728 197.261 41.2881 197.505 41.2881ZM213.81 46.2277C213.81 46.9333 213.692 47.5919 213.457 48.2035C213.222 48.8151 212.888 49.3561 212.455 49.8265C212.032 50.2875 211.524 50.6498 210.931 50.9132C210.347 51.1766 209.708 51.3084 209.011 51.3084C208.315 51.3084 207.675 51.1766 207.092 50.9132C206.509 50.6498 206.001 50.2875 205.568 49.8265C205.144 49.3561 204.815 48.8151 204.58 48.2035C204.345 47.5919 204.227 46.9333 204.227 46.2277C204.227 45.522 204.345 44.8634 204.58 44.2518C204.815 43.6403 205.144 43.104 205.568 42.6429C206.001 42.1725 206.509 41.8056 207.092 41.5421C207.675 41.2787 208.315 41.1469 209.011 41.1469C209.708 41.1469 210.347 41.2787 210.931 41.5421C211.524 41.8056 212.032 42.1725 212.455 42.6429C212.888 43.104 213.222 43.6403 213.457 44.2518C213.692 44.8634 213.81 45.522 213.81 46.2277ZM211.975 46.2277C211.975 45.5973 211.848 45.028 211.594 44.52C211.34 44.0025 210.992 43.5932 210.55 43.2921C210.107 42.9911 209.595 42.8405 209.011 42.8405C208.428 42.8405 207.915 42.9911 207.473 43.2921C207.031 43.5932 206.683 43.9978 206.429 44.5059C206.184 45.0139 206.062 45.5879 206.062 46.2277C206.062 46.858 206.184 47.432 206.429 47.9495C206.683 48.4575 207.031 48.8621 207.473 49.1632C207.915 49.4643 208.428 49.6148 209.011 49.6148C209.595 49.6148 210.107 49.4643 210.55 49.1632C210.992 48.8621 211.34 48.4575 211.594 47.9495C211.848 47.432 211.975 46.858 211.975 46.2277ZM222.444 41.274C222.689 41.274 222.886 41.3586 223.037 41.528C223.187 41.6879 223.263 41.8902 223.263 42.1349V47.2438C223.263 48.0247 223.093 48.7163 222.755 49.3184C222.425 49.9206 221.969 50.391 221.386 50.7297C220.802 51.0684 220.125 51.2378 219.353 51.2378C218.582 51.2378 217.9 51.0684 217.307 50.7297C216.724 50.391 216.263 49.9206 215.924 49.3184C215.595 48.7163 215.43 48.0247 215.43 47.2438V42.1349C215.43 41.8902 215.515 41.6879 215.684 41.528C215.853 41.3586 216.07 41.274 216.333 41.274C216.549 41.274 216.742 41.3586 216.912 41.528C217.09 41.6879 217.18 41.8902 217.18 42.1349V47.2438C217.18 47.7142 217.279 48.1235 217.476 48.4716C217.683 48.8104 217.951 49.0738 218.281 49.262C218.619 49.4501 218.977 49.5442 219.353 49.5442C219.758 49.5442 220.134 49.4501 220.482 49.262C220.83 49.0738 221.113 48.8104 221.329 48.4716C221.546 48.1235 221.654 47.7142 221.654 47.2438V42.1349C221.654 41.8902 221.724 41.6879 221.865 41.528C222.007 41.3586 222.199 41.274 222.444 41.274ZM230.828 49.516C231.073 49.516 231.275 49.596 231.435 49.7559C231.605 49.9065 231.689 50.1041 231.689 50.3487C231.689 50.5839 231.605 50.7815 231.435 50.9414C231.275 51.092 231.073 51.1672 230.828 51.1672H226.242C225.997 51.1672 225.79 51.0873 225.621 50.9273C225.461 50.758 225.381 50.551 225.381 50.3063V42.149C225.381 41.9043 225.465 41.7021 225.635 41.5421C225.804 41.3728 226.02 41.2881 226.284 41.2881C226.51 41.2881 226.707 41.3728 226.877 41.5421C227.055 41.7021 227.145 41.9043 227.145 42.149V49.7559L226.834 49.516H230.828Z" fill="#E37869"/>
    <path d="M102.078 41.2881C102.981 41.2881 103.654 41.4998 104.096 41.9232C104.539 42.3466 104.76 42.9722 104.76 43.8002C104.76 44.2424 104.651 44.6329 104.435 44.9716C104.219 45.3009 103.899 45.5596 103.475 45.7478C103.052 45.9266 102.53 46.016 101.909 46.016L101.965 45.3809C102.257 45.3809 102.591 45.4232 102.967 45.5079C103.344 45.5832 103.706 45.7243 104.054 45.9313C104.411 46.1289 104.703 46.4111 104.929 46.7781C105.164 47.1356 105.282 47.5966 105.282 48.1611C105.282 48.7821 105.178 49.2902 104.971 49.6854C104.774 50.0805 104.51 50.3863 104.181 50.6027C103.852 50.8191 103.499 50.9697 103.122 51.0543C102.746 51.1296 102.384 51.1672 102.036 51.1672H98.5216C98.277 51.1672 98.07 51.0873 97.9006 50.9273C97.7407 50.758 97.6607 50.551 97.6607 50.3063V42.149C97.6607 41.9043 97.7407 41.7021 97.9006 41.5421C98.07 41.3728 98.277 41.2881 98.5216 41.2881H102.078ZM101.824 42.9534H99.312L99.4954 42.7276V45.2821L99.3261 45.1551H101.866C102.139 45.1551 102.384 45.0657 102.6 44.8869C102.817 44.7081 102.925 44.4494 102.925 44.1107C102.925 43.7061 102.821 43.4144 102.614 43.2357C102.417 43.0475 102.153 42.9534 101.824 42.9534ZM101.937 46.8204H99.3684L99.4954 46.7075V49.6854L99.3543 49.5442H102.036C102.469 49.5442 102.812 49.4313 103.066 49.2055C103.32 48.9703 103.447 48.6222 103.447 48.1611C103.447 47.7378 103.362 47.432 103.193 47.2438C103.024 47.0556 102.821 46.938 102.586 46.891C102.351 46.8439 102.135 46.8204 101.937 46.8204ZM107.77 41.2881H112.497C112.742 41.2881 112.944 41.368 113.104 41.528C113.274 41.6785 113.358 41.8761 113.358 42.1207C113.358 42.356 113.274 42.5488 113.104 42.6994C112.944 42.8405 112.742 42.9111 112.497 42.9111H108.546L108.673 42.6712V45.4232L108.56 45.3103H111.862C112.107 45.3103 112.309 45.3903 112.469 45.5502C112.639 45.7008 112.723 45.8984 112.723 46.143C112.723 46.3782 112.639 46.5711 112.469 46.7216C112.309 46.8627 112.107 46.9333 111.862 46.9333H108.602L108.673 46.8204V49.6712L108.56 49.5442H112.497C112.742 49.5442 112.944 49.6289 113.104 49.7983C113.274 49.9582 113.358 50.1464 113.358 50.3628C113.358 50.598 113.274 50.7909 113.104 50.9414C112.944 51.092 112.742 51.1672 112.497 51.1672H107.77C107.525 51.1672 107.318 51.0873 107.149 50.9273C106.989 50.758 106.909 50.551 106.909 50.3063V42.149C106.909 41.9043 106.989 41.7021 107.149 41.5421C107.318 41.3728 107.525 41.2881 107.77 41.2881ZM116.749 50.3063C116.749 50.551 116.66 50.758 116.481 50.9273C116.302 51.0873 116.095 51.1672 115.86 51.1672C115.597 51.1672 115.385 51.0873 115.225 50.9273C115.065 50.758 114.985 50.551 114.985 50.3063V42.149C114.985 41.9043 115.07 41.7021 115.239 41.5421C115.408 41.3728 115.625 41.2881 115.888 41.2881C116.114 41.2881 116.312 41.3728 116.481 41.5421C116.66 41.7021 116.749 41.9043 116.749 42.149V50.3063ZM121.172 51.3084C120.636 51.3084 120.137 51.2002 119.676 50.9838C119.215 50.7674 118.839 50.4569 118.547 50.0523C118.434 49.8829 118.378 49.7183 118.378 49.5583C118.378 49.3231 118.467 49.1255 118.646 48.9656C118.834 48.8056 119.018 48.7257 119.196 48.7257C119.337 48.7257 119.474 48.768 119.606 48.8527C119.747 48.9374 119.874 49.0362 119.987 49.1491C120.175 49.3184 120.358 49.4407 120.537 49.516C120.725 49.5819 120.937 49.6148 121.172 49.6148C121.454 49.6148 121.718 49.5442 121.962 49.4031C122.207 49.262 122.405 49.0738 122.555 48.8386C122.706 48.6034 122.781 48.3493 122.781 48.0765V42.149C122.781 41.9043 122.87 41.7021 123.049 41.5421C123.228 41.3728 123.435 41.2881 123.67 41.2881C123.934 41.2881 124.145 41.3728 124.305 41.5421C124.465 41.7021 124.545 41.9043 124.545 42.149V48.0765C124.545 48.6504 124.395 49.182 124.094 49.6712C123.792 50.1605 123.388 50.5557 122.88 50.8567C122.372 51.1578 121.803 51.3084 121.172 51.3084ZM128.423 50.3063C128.423 50.551 128.333 50.758 128.155 50.9273C127.976 51.0873 127.769 51.1672 127.534 51.1672C127.27 51.1672 127.059 51.0873 126.899 50.9273C126.739 50.758 126.659 50.551 126.659 50.3063V42.149C126.659 41.9043 126.743 41.7021 126.913 41.5421C127.082 41.3728 127.299 41.2881 127.562 41.2881C127.788 41.2881 127.985 41.3728 128.155 41.5421C128.333 41.7021 128.423 41.9043 128.423 42.149V50.3063ZM138.039 41.2881C138.265 41.2881 138.449 41.3633 138.59 41.5139C138.731 41.6644 138.801 41.8526 138.801 42.0784V50.3063C138.801 50.551 138.717 50.758 138.547 50.9273C138.387 51.0873 138.185 51.1672 137.941 51.1672C137.818 51.1672 137.691 51.1484 137.56 51.1108C137.437 51.0637 137.343 51.0026 137.277 50.9273L131.731 43.8849L132.098 43.6591V50.3769C132.098 50.6027 132.022 50.7909 131.872 50.9414C131.731 51.092 131.543 51.1672 131.307 51.1672C131.082 51.1672 130.898 51.092 130.757 50.9414C130.616 50.7909 130.545 50.6027 130.545 50.3769V42.149C130.545 41.9043 130.625 41.7021 130.785 41.5421C130.955 41.3728 131.162 41.2881 131.406 41.2881C131.538 41.2881 131.674 41.3163 131.815 41.3728C131.957 41.4198 132.06 41.4951 132.126 41.5986L137.503 48.4575L137.263 48.6269V42.0784C137.263 41.8526 137.334 41.6644 137.475 41.5139C137.616 41.3633 137.804 41.2881 138.039 41.2881ZM145.581 51.3084C144.866 51.3084 144.198 51.1766 143.577 50.9132C142.956 50.6498 142.41 50.2875 141.94 49.8265C141.469 49.3561 141.097 48.8151 140.825 48.2035C140.561 47.5919 140.429 46.9333 140.429 46.2277C140.429 45.522 140.561 44.8634 140.825 44.2518C141.097 43.6403 141.469 43.104 141.94 42.6429C142.41 42.1725 142.956 41.8056 143.577 41.5421C144.198 41.2787 144.866 41.1469 145.581 41.1469C146.023 41.1469 146.451 41.194 146.865 41.2881C147.279 41.3822 147.66 41.5233 148.008 41.7115C148.149 41.7867 148.253 41.8902 148.319 42.022C148.394 42.1443 148.432 42.2713 148.432 42.403C148.432 42.6288 148.356 42.8311 148.206 43.0099C148.055 43.1886 147.862 43.278 147.627 43.278C147.552 43.278 147.472 43.2686 147.387 43.2498C147.312 43.231 147.237 43.2028 147.161 43.1651C146.926 43.0616 146.677 42.9816 146.413 42.9252C146.15 42.8687 145.872 42.8405 145.581 42.8405C144.969 42.8405 144.409 42.9958 143.901 43.3062C143.403 43.6073 143.003 44.0166 142.702 44.5341C142.41 45.0422 142.264 45.6067 142.264 46.2277C142.264 46.8392 142.41 47.4037 142.702 47.9212C143.003 48.4387 143.403 48.8527 143.901 49.1632C144.409 49.4643 144.969 49.6148 145.581 49.6148C145.863 49.6148 146.173 49.5866 146.512 49.5301C146.851 49.4737 147.128 49.3984 147.345 49.3043L147.218 49.7277V47.3144L147.458 47.5261H145.891C145.647 47.5261 145.44 47.4461 145.27 47.2861C145.11 47.1262 145.03 46.9239 145.03 46.6793C145.03 46.4346 145.11 46.2324 145.27 46.0724C145.44 45.9125 145.647 45.8325 145.891 45.8325H148.206C148.45 45.8325 148.653 45.9172 148.813 46.0865C148.973 46.2465 149.053 46.4488 149.053 46.6934V49.6854C149.053 49.8735 149.005 50.0288 148.911 50.1511C148.827 50.2734 148.728 50.3722 148.615 50.4475C148.182 50.7109 147.707 50.9226 147.19 51.0826C146.682 51.2331 146.145 51.3084 145.581 51.3084Z" fill="#E37869"/>
    <path d="M151.627 91.2955C150.969 91.2955 150.376 91.2155 149.849 91.0556C149.322 90.8862 148.819 90.5945 148.339 90.1806C148.217 90.0771 148.123 89.9594 148.057 89.8277C147.991 89.696 147.958 89.5643 147.958 89.4326C147.958 89.2162 148.033 89.028 148.184 88.868C148.344 88.6987 148.541 88.614 148.777 88.614C148.955 88.614 149.115 88.6705 149.256 88.7834C149.614 89.075 149.967 89.2961 150.315 89.4467C150.672 89.5972 151.11 89.6725 151.627 89.6725C151.976 89.6725 152.295 89.6207 152.587 89.5172C152.879 89.4043 153.114 89.2585 153.293 89.0797C153.472 88.8916 153.561 88.6799 153.561 88.4446C153.561 88.1624 153.476 87.9225 153.307 87.7249C153.138 87.5273 152.879 87.3626 152.531 87.2309C152.183 87.0898 151.74 86.9816 151.204 86.9063C150.696 86.831 150.249 86.7181 149.863 86.5676C149.478 86.4077 149.153 86.2101 148.889 85.9749C148.635 85.7302 148.443 85.448 148.311 85.1281C148.179 84.7988 148.113 84.4318 148.113 84.0272C148.113 83.4157 148.268 82.8935 148.579 82.4607C148.899 82.0279 149.327 81.6986 149.863 81.4728C150.4 81.247 150.992 81.1341 151.642 81.1341C152.253 81.1341 152.818 81.2282 153.335 81.4163C153.862 81.5951 154.29 81.8256 154.619 82.1079C154.892 82.3243 155.029 82.5736 155.029 82.8559C155.029 83.0629 154.949 83.251 154.789 83.4204C154.629 83.5897 154.441 83.6744 154.224 83.6744C154.083 83.6744 153.956 83.6321 153.843 83.5474C153.693 83.4157 153.49 83.2934 153.236 83.1805C152.982 83.0582 152.714 82.9594 152.432 82.8841C152.15 82.7994 151.886 82.7571 151.642 82.7571C151.237 82.7571 150.894 82.8088 150.611 82.9123C150.338 83.0158 150.131 83.1569 149.99 83.3357C149.849 83.5145 149.779 83.7215 149.779 83.9567C149.779 84.2389 149.859 84.4742 150.019 84.6623C150.188 84.8411 150.428 84.9869 150.738 85.0998C151.049 85.2033 151.42 85.2974 151.853 85.3821C152.418 85.4856 152.912 85.6079 153.335 85.749C153.768 85.8902 154.125 86.0736 154.408 86.2995C154.69 86.5159 154.902 86.7934 155.043 87.1321C155.184 87.4614 155.254 87.866 155.254 88.3459C155.254 88.9574 155.085 89.4843 154.746 89.9265C154.408 90.3687 153.961 90.7074 153.406 90.9427C152.86 91.1779 152.267 91.2955 151.627 91.2955ZM157.776 81.2752C158.002 81.2752 158.2 81.3599 158.369 81.5292C158.548 81.6892 158.637 81.8915 158.637 82.1361V90.2935C158.637 90.5381 158.548 90.7451 158.369 90.9144C158.19 91.0744 157.983 91.1544 157.748 91.1544C157.485 91.1544 157.273 91.0744 157.113 90.9144C156.953 90.7451 156.873 90.5381 156.873 90.2935V82.1361C156.873 81.8915 156.958 81.6892 157.127 81.5292C157.296 81.3599 157.513 81.2752 157.776 81.2752ZM164.028 81.2752C164.292 81.2752 164.503 81.3599 164.663 81.5292C164.823 81.6892 164.903 81.8915 164.903 82.1361V90.2935C164.903 90.5381 164.819 90.7451 164.649 90.9144C164.489 91.0744 164.273 91.1544 164 91.1544C163.774 91.1544 163.572 91.0744 163.393 90.9144C163.224 90.7451 163.139 90.5381 163.139 90.2935V82.1361C163.139 81.8915 163.229 81.6892 163.407 81.5292C163.586 81.3599 163.793 81.2752 164.028 81.2752ZM157.734 85.3821H164.028V87.0051H157.734V85.3821ZM170.644 83.491L167.595 90.6604C167.53 90.8392 167.426 90.9803 167.285 91.0838C167.153 91.1779 167.007 91.2249 166.847 91.2249C166.593 91.2249 166.405 91.1544 166.283 91.0132C166.161 90.8721 166.099 90.698 166.099 90.491C166.099 90.4064 166.113 90.317 166.142 90.2229L169.656 81.7833C169.731 81.5951 169.844 81.4493 169.995 81.3458C170.155 81.2423 170.324 81.1999 170.503 81.2187C170.672 81.2187 170.827 81.2705 170.968 81.374C171.119 81.4681 171.227 81.6045 171.293 81.7833L174.765 90.0535C174.812 90.1759 174.835 90.2888 174.835 90.3923C174.835 90.6463 174.751 90.8486 174.581 90.9991C174.421 91.1497 174.243 91.2249 174.045 91.2249C173.876 91.2249 173.72 91.1732 173.579 91.0697C173.448 90.9662 173.344 90.8251 173.269 90.6463L170.235 83.5756L170.644 83.491ZM168.033 88.9386L168.809 87.3156H172.62L172.888 88.9386H168.033ZM183.524 81.2752C183.75 81.2752 183.934 81.3505 184.075 81.501C184.216 81.6515 184.287 81.8397 184.287 82.0655V90.2935C184.287 90.5381 184.202 90.7451 184.032 90.9144C183.873 91.0744 183.67 91.1544 183.426 91.1544C183.303 91.1544 183.176 91.1355 183.045 91.0979C182.922 91.0509 182.828 90.9897 182.762 90.9144L177.216 83.872L177.583 83.6462V90.364C177.583 90.5898 177.508 90.778 177.357 90.9285C177.216 91.0791 177.028 91.1544 176.792 91.1544C176.567 91.1544 176.383 91.0791 176.242 90.9285C176.101 90.778 176.03 90.5898 176.03 90.364V82.1361C176.03 81.8915 176.11 81.6892 176.27 81.5292C176.44 81.3599 176.647 81.2752 176.891 81.2752C177.023 81.2752 177.159 81.3034 177.301 81.3599C177.442 81.4069 177.545 81.4822 177.611 81.5857L182.988 88.4446L182.748 88.614V82.0655C182.748 81.8397 182.819 81.6515 182.96 81.501C183.101 81.3505 183.289 81.2752 183.524 81.2752ZM191.066 91.2955C190.351 91.2955 189.683 91.1638 189.062 90.9003C188.441 90.6369 187.895 90.2746 187.425 89.8136C186.954 89.3432 186.583 88.8022 186.31 88.1906C186.046 87.579 185.914 86.9204 185.914 86.2148C185.914 85.5091 186.046 84.8505 186.31 84.2389C186.583 83.6274 186.954 83.0911 187.425 82.6301C187.895 82.1596 188.441 81.7927 189.062 81.5292C189.683 81.2658 190.351 81.1341 191.066 81.1341C191.508 81.1341 191.936 81.1811 192.35 81.2752C192.764 81.3693 193.145 81.5104 193.493 81.6986C193.634 81.7739 193.738 81.8774 193.804 82.0091C193.879 82.1314 193.917 82.2584 193.917 82.3901C193.917 82.6159 193.841 82.8182 193.691 82.997C193.54 83.1758 193.347 83.2651 193.112 83.2651C193.037 83.2651 192.957 83.2557 192.872 83.2369C192.797 83.2181 192.722 83.1899 192.646 83.1522C192.411 83.0487 192.162 82.9688 191.898 82.9123C191.635 82.8559 191.357 82.8276 191.066 82.8276C190.454 82.8276 189.894 82.9829 189.386 83.2934C188.888 83.5944 188.488 84.0037 188.187 84.5212C187.895 85.0293 187.749 85.5938 187.749 86.2148C187.749 86.8263 187.895 87.3909 188.187 87.9083C188.488 88.4258 188.888 88.8398 189.386 89.1503C189.894 89.4514 190.454 89.6019 191.066 89.6019C191.348 89.6019 191.659 89.5737 191.997 89.5172C192.336 89.4608 192.613 89.3855 192.83 89.2914L192.703 89.7148V87.3015L192.943 87.5132H191.376C191.132 87.5132 190.925 87.4332 190.755 87.2733C190.595 87.1133 190.515 86.911 190.515 86.6664C190.515 86.4218 190.595 86.2195 190.755 86.0595C190.925 85.8996 191.132 85.8196 191.376 85.8196H193.691C193.935 85.8196 194.138 85.9043 194.298 86.0736C194.458 86.2336 194.538 86.4359 194.538 86.6805V89.6725C194.538 89.8607 194.491 90.0159 194.396 90.1382C194.312 90.2605 194.213 90.3593 194.1 90.4346C193.667 90.698 193.192 90.9097 192.675 91.0697C192.167 91.2202 191.63 91.2955 191.066 91.2955ZM197.138 81.2752C197.364 81.2752 197.562 81.3599 197.731 81.5292C197.91 81.6892 197.999 81.8915 197.999 82.1361V90.2935C197.999 90.5381 197.91 90.7451 197.731 90.9144C197.552 91.0744 197.345 91.1544 197.11 91.1544C196.847 91.1544 196.635 91.0744 196.475 90.9144C196.315 90.7451 196.235 90.5381 196.235 90.2935V82.1361C196.235 81.8915 196.32 81.6892 196.489 81.5292C196.659 81.3599 196.875 81.2752 197.138 81.2752ZM203.391 81.2752C203.654 81.2752 203.866 81.3599 204.026 81.5292C204.186 81.6892 204.266 81.8915 204.266 82.1361V90.2935C204.266 90.5381 204.181 90.7451 204.012 90.9144C203.852 91.0744 203.635 91.1544 203.362 91.1544C203.137 91.1544 202.934 91.0744 202.755 90.9144C202.586 90.7451 202.501 90.5381 202.501 90.2935V82.1361C202.501 81.8915 202.591 81.6892 202.77 81.5292C202.948 81.3599 203.155 81.2752 203.391 81.2752ZM197.096 85.3821H203.391V87.0051H197.096V85.3821ZM210.006 83.491L206.958 90.6604C206.892 90.8392 206.788 90.9803 206.647 91.0838C206.515 91.1779 206.37 91.2249 206.21 91.2249C205.956 91.2249 205.767 91.1544 205.645 91.0132C205.523 90.8721 205.462 90.698 205.462 90.491C205.462 90.4064 205.476 90.317 205.504 90.2229L209.018 81.7833C209.093 81.5951 209.206 81.4493 209.357 81.3458C209.517 81.2423 209.686 81.1999 209.865 81.2187C210.034 81.2187 210.19 81.2705 210.331 81.374C210.481 81.4681 210.589 81.6045 210.655 81.7833L214.127 90.0535C214.174 90.1759 214.198 90.2888 214.198 90.3923C214.198 90.6463 214.113 90.8486 213.944 90.9991C213.784 91.1497 213.605 91.2249 213.407 91.2249C213.238 91.2249 213.083 91.1732 212.942 91.0697C212.81 90.9662 212.706 90.8251 212.631 90.6463L209.597 83.5756L210.006 83.491ZM207.395 88.9386L208.171 87.3156H211.982L212.25 88.9386H207.395ZM217.157 90.2935C217.157 90.5381 217.067 90.7451 216.889 90.9144C216.71 91.0744 216.503 91.1544 216.268 91.1544C216.004 91.1544 215.793 91.0744 215.633 90.9144C215.473 90.7451 215.393 90.5381 215.393 90.2935V82.1361C215.393 81.8915 215.477 81.6892 215.647 81.5292C215.816 81.3599 216.032 81.2752 216.296 81.2752C216.522 81.2752 216.719 81.3599 216.889 81.5292C217.067 81.6892 217.157 81.8915 217.157 82.1361V90.2935Z" fill="#E37869"/>
    <path d="M174.667 170.682C174.009 170.682 173.416 170.602 172.889 170.442C172.362 170.272 171.859 169.981 171.379 169.567C171.257 169.463 171.163 169.345 171.097 169.214C171.031 169.082 170.998 168.95 170.998 168.819C170.998 168.602 171.073 168.414 171.224 168.254C171.384 168.085 171.581 168 171.817 168C171.995 168 172.155 168.057 172.296 168.169C172.654 168.461 173.007 168.682 173.355 168.833C173.712 168.983 174.15 169.059 174.667 169.059C175.016 169.059 175.335 169.007 175.627 168.903C175.919 168.79 176.154 168.645 176.333 168.466C176.512 168.278 176.601 168.066 176.601 167.831C176.601 167.548 176.516 167.309 176.347 167.111C176.178 166.913 175.919 166.749 175.571 166.617C175.223 166.476 174.78 166.368 174.244 166.292C173.736 166.217 173.289 166.104 172.903 165.954C172.518 165.794 172.193 165.596 171.93 165.361C171.675 165.116 171.483 164.834 171.351 164.514C171.219 164.185 171.153 163.818 171.153 163.413C171.153 162.802 171.309 162.28 171.619 161.847C171.939 161.414 172.367 161.085 172.903 160.859C173.44 160.633 174.032 160.52 174.682 160.52C175.293 160.52 175.858 160.614 176.375 160.802C176.902 160.981 177.33 161.212 177.659 161.494C177.932 161.71 178.069 161.96 178.069 162.242C178.069 162.449 177.989 162.637 177.829 162.806C177.669 162.976 177.481 163.06 177.264 163.06C177.123 163.06 176.996 163.018 176.883 162.933C176.733 162.802 176.53 162.679 176.276 162.567C176.022 162.444 175.754 162.345 175.472 162.27C175.19 162.185 174.926 162.143 174.682 162.143C174.277 162.143 173.934 162.195 173.651 162.298C173.378 162.402 173.171 162.543 173.03 162.722C172.889 162.901 172.819 163.108 172.819 163.343C172.819 163.625 172.899 163.86 173.059 164.048C173.228 164.227 173.468 164.373 173.778 164.486C174.089 164.589 174.46 164.683 174.893 164.768C175.458 164.872 175.952 164.994 176.375 165.135C176.808 165.276 177.165 165.46 177.448 165.686C177.73 165.902 177.942 166.179 178.083 166.518C178.224 166.847 178.295 167.252 178.295 167.732C178.295 168.343 178.125 168.87 177.786 169.313C177.448 169.755 177.001 170.093 176.446 170.329C175.9 170.564 175.307 170.682 174.667 170.682ZM181.677 169.68C181.677 169.924 181.588 170.131 181.409 170.3C181.23 170.46 181.023 170.54 180.788 170.54C180.525 170.54 180.313 170.46 180.153 170.3C179.993 170.131 179.913 169.924 179.913 169.68V161.522C179.913 161.278 179.998 161.075 180.167 160.915C180.336 160.746 180.553 160.661 180.816 160.661C181.042 160.661 181.24 160.746 181.409 160.915C181.588 161.075 181.677 161.278 181.677 161.522V169.68ZM191.294 160.661C191.519 160.661 191.703 160.737 191.844 160.887C191.985 161.038 192.056 161.226 192.056 161.452V169.68C192.056 169.924 191.971 170.131 191.802 170.3C191.642 170.46 191.439 170.54 191.195 170.54C191.073 170.54 190.946 170.522 190.814 170.484C190.692 170.437 190.597 170.376 190.532 170.3L184.985 163.258L185.352 163.032V169.75C185.352 169.976 185.277 170.164 185.126 170.315C184.985 170.465 184.797 170.54 184.562 170.54C184.336 170.54 184.152 170.465 184.011 170.315C183.87 170.164 183.8 169.976 183.8 169.75V161.522C183.8 161.278 183.88 161.075 184.04 160.915C184.209 160.746 184.416 160.661 184.661 160.661C184.792 160.661 184.929 160.689 185.07 160.746C185.211 160.793 185.314 160.868 185.38 160.972L190.757 167.831L190.517 168V161.452C190.517 161.226 190.588 161.038 190.729 160.887C190.87 160.737 191.058 160.661 191.294 160.661ZM198.835 170.682C198.12 170.682 197.452 170.55 196.831 170.286C196.21 170.023 195.664 169.661 195.194 169.2C194.723 168.729 194.352 168.188 194.079 167.577C193.815 166.965 193.684 166.306 193.684 165.601C193.684 164.895 193.815 164.237 194.079 163.625C194.352 163.013 194.723 162.477 195.194 162.016C195.664 161.546 196.21 161.179 196.831 160.915C197.452 160.652 198.12 160.52 198.835 160.52C199.277 160.52 199.705 160.567 200.119 160.661C200.533 160.755 200.914 160.896 201.262 161.085C201.404 161.16 201.507 161.263 201.573 161.395C201.648 161.517 201.686 161.644 201.686 161.776C201.686 162.002 201.611 162.204 201.46 162.383C201.31 162.562 201.117 162.651 200.881 162.651C200.806 162.651 200.726 162.642 200.641 162.623C200.566 162.604 200.491 162.576 200.416 162.538C200.18 162.435 199.931 162.355 199.668 162.298C199.404 162.242 199.127 162.214 198.835 162.214C198.223 162.214 197.664 162.369 197.156 162.679C196.657 162.98 196.257 163.39 195.956 163.907C195.664 164.415 195.518 164.98 195.518 165.601C195.518 166.212 195.664 166.777 195.956 167.294C196.257 167.812 196.657 168.226 197.156 168.536C197.664 168.837 198.223 168.988 198.835 168.988C199.117 168.988 199.428 168.96 199.766 168.903C200.105 168.847 200.383 168.772 200.599 168.677L200.472 169.101V166.688L200.712 166.899H199.145C198.901 166.899 198.694 166.819 198.525 166.659C198.365 166.499 198.285 166.297 198.285 166.052C198.285 165.808 198.365 165.606 198.525 165.446C198.694 165.286 198.901 165.206 199.145 165.206H201.46C201.705 165.206 201.907 165.29 202.067 165.46C202.227 165.62 202.307 165.822 202.307 166.067V169.059C202.307 169.247 202.26 169.402 202.166 169.524C202.081 169.647 201.982 169.745 201.869 169.821C201.437 170.084 200.961 170.296 200.444 170.456C199.936 170.606 199.4 170.682 198.835 170.682ZM207.632 162.877L204.583 170.046C204.517 170.225 204.414 170.366 204.273 170.47C204.141 170.564 203.995 170.611 203.835 170.611C203.581 170.611 203.393 170.54 203.271 170.399C203.148 170.258 203.087 170.084 203.087 169.877C203.087 169.792 203.101 169.703 203.129 169.609L206.644 161.169C206.719 160.981 206.832 160.835 206.982 160.732C207.142 160.628 207.312 160.586 207.49 160.605C207.66 160.605 207.815 160.657 207.956 160.76C208.107 160.854 208.215 160.991 208.281 161.169L211.753 169.44C211.8 169.562 211.823 169.675 211.823 169.778C211.823 170.032 211.738 170.235 211.569 170.385C211.409 170.536 211.23 170.611 211.033 170.611C210.863 170.611 210.708 170.559 210.567 170.456C210.435 170.352 210.332 170.211 210.257 170.032L207.222 162.962L207.632 162.877ZM205.021 168.325L205.797 166.702H209.607L209.876 168.325H205.021ZM217.097 160.661C217.586 160.661 218.042 160.802 218.466 161.085C218.899 161.367 219.247 161.748 219.51 162.228C219.774 162.708 219.905 163.244 219.905 163.837C219.905 164.42 219.774 164.952 219.51 165.431C219.247 165.911 218.899 166.297 218.466 166.589C218.042 166.871 217.586 167.012 217.097 167.012H214.5L214.641 166.758V169.68C214.641 169.924 214.566 170.131 214.415 170.3C214.265 170.46 214.067 170.54 213.823 170.54C213.587 170.54 213.394 170.46 213.244 170.3C213.093 170.131 213.018 169.924 213.018 169.68V161.522C213.018 161.278 213.098 161.075 213.258 160.915C213.427 160.746 213.634 160.661 213.879 160.661H217.097ZM217.097 165.403C217.276 165.403 217.45 165.328 217.619 165.177C217.788 165.027 217.929 164.834 218.042 164.599C218.155 164.354 218.212 164.1 218.212 163.837C218.212 163.564 218.155 163.31 218.042 163.075C217.929 162.839 217.788 162.651 217.619 162.51C217.45 162.36 217.276 162.284 217.097 162.284H214.472L214.641 162.03V165.629L214.486 165.403H217.097ZM230.611 165.601C230.611 166.306 230.493 166.965 230.258 167.577C230.023 168.188 229.689 168.729 229.256 169.2C228.832 169.661 228.324 170.023 227.732 170.286C227.148 170.55 226.508 170.682 225.812 170.682C225.116 170.682 224.476 170.55 223.893 170.286C223.309 170.023 222.801 169.661 222.369 169.2C221.945 168.729 221.616 168.188 221.381 167.577C221.145 166.965 221.028 166.306 221.028 165.601C221.028 164.895 221.145 164.237 221.381 163.625C221.616 163.013 221.945 162.477 222.369 162.016C222.801 161.546 223.309 161.179 223.893 160.915C224.476 160.652 225.116 160.52 225.812 160.52C226.508 160.52 227.148 160.652 227.732 160.915C228.324 161.179 228.832 161.546 229.256 162.016C229.689 162.477 230.023 163.013 230.258 163.625C230.493 164.237 230.611 164.895 230.611 165.601ZM228.776 165.601C228.776 164.97 228.649 164.401 228.395 163.893C228.141 163.376 227.793 162.966 227.351 162.665C226.908 162.364 226.396 162.214 225.812 162.214C225.229 162.214 224.716 162.364 224.274 162.665C223.832 162.966 223.484 163.371 223.229 163.879C222.985 164.387 222.863 164.961 222.863 165.601C222.863 166.231 222.985 166.805 223.229 167.323C223.484 167.831 223.832 168.235 224.274 168.536C224.716 168.837 225.229 168.988 225.812 168.988C226.396 168.988 226.908 168.837 227.351 168.536C227.793 168.235 228.141 167.831 228.395 167.323C228.649 166.805 228.776 166.231 228.776 165.601ZM233.247 170.54C232.983 170.54 232.748 170.46 232.541 170.3C232.334 170.131 232.231 169.924 232.231 169.68V161.522C232.231 161.278 232.311 161.075 232.471 160.915C232.64 160.746 232.847 160.661 233.092 160.661H237.156C237.645 160.661 238.102 160.793 238.525 161.056C238.958 161.31 239.306 161.668 239.569 162.129C239.833 162.581 239.965 163.103 239.965 163.696C239.965 164.053 239.889 164.401 239.739 164.74C239.598 165.079 239.4 165.384 239.146 165.657C238.901 165.93 238.624 166.142 238.313 166.292L238.328 165.968C238.591 166.109 238.807 166.278 238.977 166.476C239.155 166.664 239.292 166.871 239.386 167.097C239.489 167.313 239.551 167.548 239.569 167.802C239.607 168.038 239.631 168.245 239.64 168.423C239.659 168.602 239.687 168.753 239.725 168.875C239.772 168.997 239.856 169.091 239.979 169.157C240.186 169.28 240.313 169.458 240.36 169.694C240.416 169.919 240.364 170.122 240.205 170.3C240.101 170.423 239.969 170.503 239.809 170.54C239.649 170.569 239.489 170.569 239.33 170.54C239.17 170.503 239.038 170.456 238.934 170.399C238.774 170.305 238.614 170.169 238.455 169.99C238.295 169.802 238.163 169.552 238.059 169.242C237.965 168.932 237.918 168.532 237.918 168.042C237.918 167.882 237.89 167.737 237.834 167.605C237.777 167.464 237.697 167.346 237.594 167.252C237.49 167.149 237.358 167.073 237.198 167.026C237.039 166.97 236.85 166.942 236.634 166.942H233.783L233.995 166.617V169.68C233.995 169.924 233.929 170.131 233.797 170.3C233.665 170.46 233.482 170.54 233.247 170.54ZM233.797 165.488H237.086C237.255 165.488 237.42 165.413 237.58 165.262C237.739 165.102 237.871 164.89 237.975 164.627C238.078 164.354 238.13 164.058 238.13 163.738C238.13 163.324 238.017 162.98 237.791 162.708C237.575 162.425 237.34 162.284 237.086 162.284H233.825L233.995 161.833V165.827L233.797 165.488ZM242.781 160.661H247.508C247.753 160.661 247.955 160.741 248.115 160.901C248.285 161.052 248.369 161.249 248.369 161.494C248.369 161.729 248.285 161.922 248.115 162.073C247.955 162.214 247.753 162.284 247.508 162.284H243.557L243.684 162.044V164.796L243.571 164.683H246.873C247.118 164.683 247.32 164.763 247.48 164.923C247.65 165.074 247.734 165.272 247.734 165.516C247.734 165.751 247.65 165.944 247.48 166.095C247.32 166.236 247.118 166.306 246.873 166.306H243.613L243.684 166.194V169.044L243.571 168.917H247.508C247.753 168.917 247.955 169.002 248.115 169.171C248.285 169.331 248.369 169.52 248.369 169.736C248.369 169.971 248.285 170.164 248.115 170.315C247.955 170.465 247.753 170.54 247.508 170.54H242.781C242.536 170.54 242.329 170.46 242.16 170.3C242 170.131 241.92 169.924 241.92 169.68V161.522C241.92 161.278 242 161.075 242.16 160.915C242.329 160.746 242.536 160.661 242.781 160.661Z" fill="#E37869"/>
    <path d="M187.832 130.553C187.569 130.553 187.352 130.473 187.183 130.313C187.014 130.144 186.929 129.937 186.929 129.692V121.507H188.764V129.692C188.764 129.937 188.674 130.144 188.496 130.313C188.326 130.473 188.105 130.553 187.832 130.553ZM184.713 122.297C184.469 122.297 184.262 122.222 184.092 122.071C183.932 121.921 183.852 121.723 183.852 121.479C183.852 121.234 183.932 121.041 184.092 120.9C184.262 120.749 184.469 120.674 184.713 120.674H190.979C191.224 120.674 191.426 120.749 191.586 120.9C191.756 121.051 191.84 121.248 191.84 121.493C191.84 121.737 191.756 121.935 191.586 122.085C191.426 122.227 191.224 122.297 190.979 122.297H184.713ZM196.246 122.89L193.198 130.059C193.132 130.238 193.028 130.379 192.887 130.483C192.755 130.577 192.61 130.624 192.45 130.624C192.196 130.624 192.007 130.553 191.885 130.412C191.763 130.271 191.702 130.097 191.702 129.89C191.702 129.805 191.716 129.716 191.744 129.622L195.258 121.182C195.333 120.994 195.446 120.848 195.597 120.745C195.757 120.641 195.926 120.599 196.105 120.618C196.274 120.618 196.43 120.669 196.571 120.773C196.721 120.867 196.829 121.003 196.895 121.182L200.367 129.453C200.414 129.575 200.438 129.688 200.438 129.791C200.438 130.045 200.353 130.248 200.184 130.398C200.024 130.549 199.845 130.624 199.647 130.624C199.478 130.624 199.323 130.572 199.182 130.469C199.05 130.365 198.946 130.224 198.871 130.045L195.837 122.975L196.246 122.89ZM193.635 128.338L194.411 126.715H198.222L198.49 128.338H193.635ZM203.397 129.692C203.397 129.937 203.307 130.144 203.129 130.313C202.95 130.473 202.743 130.553 202.508 130.553C202.244 130.553 202.033 130.473 201.873 130.313C201.713 130.144 201.633 129.937 201.633 129.692V121.535C201.633 121.29 201.717 121.088 201.887 120.928C202.056 120.759 202.272 120.674 202.536 120.674C202.762 120.674 202.959 120.759 203.129 120.928C203.307 121.088 203.397 121.29 203.397 121.535V129.692ZM209.598 120.674C210.087 120.674 210.544 120.815 210.967 121.098C211.4 121.38 211.748 121.761 212.011 122.241C212.275 122.721 212.406 123.257 212.406 123.85C212.406 124.433 212.275 124.965 212.011 125.444C211.748 125.924 211.4 126.31 210.967 126.602C210.544 126.884 210.087 127.025 209.598 127.025H207.001L207.142 126.771V129.692C207.142 129.937 207.067 130.144 206.916 130.313C206.766 130.473 206.568 130.553 206.324 130.553C206.088 130.553 205.896 130.473 205.745 130.313C205.595 130.144 205.519 129.937 205.519 129.692V121.535C205.519 121.29 205.599 121.088 205.759 120.928C205.929 120.759 206.136 120.674 206.38 120.674H209.598ZM209.598 125.416C209.777 125.416 209.951 125.341 210.12 125.19C210.289 125.04 210.431 124.847 210.544 124.612C210.656 124.367 210.713 124.113 210.713 123.85C210.713 123.577 210.656 123.323 210.544 123.088C210.431 122.852 210.289 122.664 210.12 122.523C209.951 122.372 209.777 122.297 209.598 122.297H206.973L207.142 122.043V125.642L206.987 125.416H209.598ZM214.884 120.674H219.612C219.856 120.674 220.059 120.754 220.219 120.914C220.388 121.065 220.473 121.262 220.473 121.507C220.473 121.742 220.388 121.935 220.219 122.085C220.059 122.227 219.856 122.297 219.612 122.297H215.66L215.787 122.057V124.809L215.674 124.696H218.977C219.221 124.696 219.424 124.776 219.583 124.936C219.753 125.087 219.838 125.284 219.838 125.529C219.838 125.764 219.753 125.957 219.583 126.108C219.424 126.249 219.221 126.319 218.977 126.319H215.716L215.787 126.207V129.057L215.674 128.93H219.612C219.856 128.93 220.059 129.015 220.219 129.184C220.388 129.344 220.473 129.532 220.473 129.749C220.473 129.984 220.388 130.177 220.219 130.328C220.059 130.478 219.856 130.553 219.612 130.553H214.884C214.639 130.553 214.432 130.473 214.263 130.313C214.103 130.144 214.023 129.937 214.023 129.692V121.535C214.023 121.29 214.103 121.088 214.263 120.928C214.432 120.759 214.639 120.674 214.884 120.674ZM223.863 129.692C223.863 129.937 223.774 130.144 223.595 130.313C223.417 130.473 223.21 130.553 222.974 130.553C222.711 130.553 222.499 130.473 222.339 130.313C222.179 130.144 222.099 129.937 222.099 129.692V121.535C222.099 121.29 222.184 121.088 222.353 120.928C222.523 120.759 222.739 120.674 223.003 120.674C223.228 120.674 223.426 120.759 223.595 120.928C223.774 121.088 223.863 121.29 223.863 121.535V129.692Z" fill="#E37869"/>
    <path d="M118.995 120.674C119.221 120.674 119.418 120.759 119.588 120.928C119.766 121.088 119.856 121.29 119.856 121.535V129.692C119.856 129.937 119.766 130.144 119.588 130.313C119.409 130.473 119.202 130.553 118.967 130.553C118.703 130.553 118.492 130.473 118.332 130.313C118.172 130.144 118.092 129.937 118.092 129.692V121.535C118.092 121.29 118.176 121.088 118.346 120.928C118.515 120.759 118.731 120.674 118.995 120.674ZM125.247 120.674C125.51 120.674 125.722 120.759 125.882 120.928C126.042 121.088 126.122 121.29 126.122 121.535V129.692C126.122 129.937 126.037 130.144 125.868 130.313C125.708 130.473 125.492 130.553 125.219 130.553C124.993 130.553 124.791 130.473 124.612 130.313C124.443 130.144 124.358 129.937 124.358 129.692V121.535C124.358 121.29 124.447 121.088 124.626 120.928C124.805 120.759 125.012 120.674 125.247 120.674ZM118.953 124.781H125.247V126.404H118.953V124.781ZM135.038 130.553C134.774 130.553 134.563 130.445 134.403 130.229L131.143 125.938L132.427 124.626L135.8 129.086C135.932 129.264 135.998 129.457 135.998 129.664C135.998 129.928 135.899 130.144 135.701 130.313C135.504 130.473 135.283 130.553 135.038 130.553ZM135.207 120.604C135.433 120.604 135.617 120.698 135.758 120.886C135.908 121.065 135.983 121.248 135.983 121.436C135.983 121.634 135.899 121.817 135.729 121.987L129.816 127.646L129.746 125.628L134.516 120.928C134.732 120.712 134.963 120.604 135.207 120.604ZM129.11 130.553C128.847 130.553 128.635 130.473 128.475 130.313C128.315 130.144 128.235 129.937 128.235 129.692V121.535C128.235 121.29 128.32 121.088 128.489 120.928C128.659 120.759 128.875 120.674 129.139 120.674C129.402 120.674 129.609 120.759 129.76 120.928C129.92 121.088 130 121.29 130 121.535V129.692C130 129.937 129.92 130.144 129.76 130.313C129.6 130.473 129.383 130.553 129.11 130.553Z" fill="#E37869"/>
    <path d="M26.0213 142.607C26.6987 142.607 27.3009 142.734 27.8278 142.988C28.3547 143.242 28.7969 143.6 29.1544 144.061C29.5214 144.512 29.7942 145.039 29.973 145.641C30.1612 146.234 30.2552 146.869 30.2552 147.547C30.2552 148.459 30.0906 149.292 29.7613 150.045C29.432 150.788 28.9521 151.381 28.3218 151.823C27.7008 152.265 26.934 152.486 26.0213 152.486H22.6483C22.4037 152.486 22.1967 152.406 22.0273 152.246C21.8674 152.077 21.7874 151.87 21.7874 151.625V143.468C21.7874 143.223 21.8674 143.021 22.0273 142.861C22.1967 142.692 22.4037 142.607 22.6483 142.607H26.0213ZM25.8802 150.863C26.4729 150.863 26.9575 150.713 27.3338 150.412C27.7102 150.101 27.983 149.697 28.1524 149.198C28.3312 148.69 28.4205 148.139 28.4205 147.547C28.4205 147.104 28.3688 146.686 28.2653 146.291C28.1712 145.886 28.0207 145.533 27.8137 145.232C27.6067 144.922 27.3432 144.677 27.0233 144.498C26.7035 144.319 26.3224 144.23 25.8802 144.23H23.4104L23.5515 144.103V151.019L23.4668 150.863H25.8802ZM32.7369 142.607H37.4648C37.7095 142.607 37.9117 142.687 38.0717 142.847C38.241 142.998 38.3257 143.195 38.3257 143.44C38.3257 143.675 38.241 143.868 38.0717 144.018C37.9117 144.16 37.7095 144.23 37.4648 144.23H33.5132L33.6402 143.99V146.742L33.5273 146.629H36.8297C37.0744 146.629 37.2767 146.709 37.4366 146.869C37.606 147.02 37.6906 147.217 37.6906 147.462C37.6906 147.697 37.606 147.89 37.4366 148.041C37.2767 148.182 37.0744 148.252 36.8297 148.252H33.5696L33.6402 148.139V150.99L33.5273 150.863H37.4648C37.7095 150.863 37.9117 150.948 38.0717 151.117C38.241 151.277 38.3257 151.465 38.3257 151.682C38.3257 151.917 38.241 152.11 38.0717 152.26C37.9117 152.411 37.7095 152.486 37.4648 152.486H32.7369C32.4923 152.486 32.2853 152.406 32.116 152.246C31.956 152.077 31.876 151.87 31.876 151.625V143.468C31.876 143.223 31.956 143.021 32.116 142.861C32.2853 142.692 32.4923 142.607 32.7369 142.607ZM40.8557 142.607C41.0815 142.607 41.2791 142.692 41.4485 142.861C41.6272 143.021 41.7166 143.223 41.7166 143.468V151.625C41.7166 151.87 41.6272 152.077 41.4485 152.246C41.2697 152.406 41.0627 152.486 40.8275 152.486C40.564 152.486 40.3523 152.406 40.1924 152.246C40.0325 152.077 39.9525 151.87 39.9525 151.625V143.468C39.9525 143.223 40.0372 143.021 40.2065 142.861C40.3759 142.692 40.5923 142.607 40.8557 142.607ZM47.1078 142.607C47.3713 142.607 47.583 142.692 47.7429 142.861C47.9028 143.021 47.9828 143.223 47.9828 143.468V151.625C47.9828 151.87 47.8981 152.077 47.7288 152.246C47.5688 152.406 47.3524 152.486 47.0796 152.486C46.8538 152.486 46.6515 152.406 46.4727 152.246C46.3034 152.077 46.2187 151.87 46.2187 151.625V143.468C46.2187 143.223 46.3081 143.021 46.4868 142.861C46.6656 142.692 46.8726 142.607 47.1078 142.607ZM40.8134 146.714H47.1078V148.337H40.8134V146.714ZM55.5439 150.835C55.7885 150.835 55.9908 150.915 56.1508 151.075C56.3201 151.225 56.4048 151.423 56.4048 151.668C56.4048 151.903 56.3201 152.101 56.1508 152.26C55.9908 152.411 55.7885 152.486 55.5439 152.486H50.9572C50.7125 152.486 50.5055 152.406 50.3362 152.246C50.1762 152.077 50.0963 151.87 50.0963 151.625V143.468C50.0963 143.223 50.1809 143.021 50.3503 142.861C50.5196 142.692 50.736 142.607 50.9995 142.607C51.2253 142.607 51.4229 142.692 51.5922 142.861C51.771 143.021 51.8604 143.223 51.8604 143.468V151.075L51.5499 150.835H55.5439ZM59.7852 151.625C59.7852 151.87 59.6958 152.077 59.5171 152.246C59.3383 152.406 59.1313 152.486 58.8961 152.486C58.6327 152.486 58.421 152.406 58.261 152.246C58.1011 152.077 58.0211 151.87 58.0211 151.625V143.468C58.0211 143.223 58.1058 143.021 58.2751 142.861C58.4445 142.692 58.6609 142.607 58.9243 142.607C59.1501 142.607 59.3477 142.692 59.5171 142.861C59.6958 143.021 59.7852 143.223 59.7852 143.468V151.625Z" fill="#E37869"/>
    <path d="M262.495 92.6446C262.232 92.6446 262.015 92.5646 261.846 92.4047C261.677 92.2353 261.592 92.0283 261.592 91.7837V83.5981H263.427V91.7837C263.427 92.0283 263.337 92.2353 263.158 92.4047C262.989 92.5646 262.768 92.6446 262.495 92.6446ZM259.376 84.3884C259.131 84.3884 258.924 84.3132 258.755 84.1626C258.595 84.0121 258.515 83.8145 258.515 83.5699C258.515 83.3253 258.595 83.1324 258.755 82.9912C258.924 82.8407 259.131 82.7654 259.376 82.7654H265.642C265.887 82.7654 266.089 82.8407 266.249 82.9912C266.419 83.1418 266.503 83.3394 266.503 83.584C266.503 83.8286 266.419 84.0262 266.249 84.1767C266.089 84.3179 265.887 84.3884 265.642 84.3884H259.376ZM276.798 87.705C276.798 88.4107 276.68 89.0693 276.445 89.6808C276.21 90.2924 275.876 90.8334 275.443 91.3038C275.02 91.7649 274.512 92.1271 273.919 92.3906C273.335 92.654 272.696 92.7857 271.999 92.7857C271.303 92.7857 270.663 92.654 270.08 92.3906C269.497 92.1271 268.989 91.7649 268.556 91.3038C268.132 90.8334 267.803 90.2924 267.568 89.6808C267.333 89.0693 267.215 88.4107 267.215 87.705C267.215 86.9994 267.333 86.3407 267.568 85.7292C267.803 85.1176 268.132 84.5813 268.556 84.1203C268.989 83.6499 269.497 83.2829 270.08 83.0195C270.663 82.756 271.303 82.6243 271.999 82.6243C272.696 82.6243 273.335 82.756 273.919 83.0195C274.512 83.2829 275.02 83.6499 275.443 84.1203C275.876 84.5813 276.21 85.1176 276.445 85.7292C276.68 86.3407 276.798 86.9994 276.798 87.705ZM274.963 87.705C274.963 87.0746 274.836 86.5054 274.582 85.9973C274.328 85.4798 273.98 85.0706 273.538 84.7695C273.096 84.4684 272.583 84.3179 271.999 84.3179C271.416 84.3179 270.903 84.4684 270.461 84.7695C270.019 85.0706 269.671 85.4751 269.417 85.9832C269.172 86.4913 269.05 87.0652 269.05 87.705C269.05 88.3354 269.172 88.9093 269.417 89.4268C269.671 89.9349 270.019 90.3395 270.461 90.6405C270.903 90.9416 271.416 91.0922 271.999 91.0922C272.583 91.0922 273.096 90.9416 273.538 90.6405C273.98 90.3395 274.328 89.9349 274.582 89.4268C274.836 88.9093 274.963 88.3354 274.963 87.705ZM285.22 92.6446C284.957 92.6446 284.745 92.5364 284.585 92.32L281.325 88.0296L282.61 86.7171L285.983 91.1768C286.114 91.3556 286.18 91.5485 286.18 91.7555C286.18 92.0189 286.081 92.2353 285.884 92.4047C285.686 92.5646 285.465 92.6446 285.22 92.6446ZM285.39 82.6949C285.616 82.6949 285.799 82.789 285.94 82.9771C286.091 83.1559 286.166 83.3394 286.166 83.5275C286.166 83.7251 286.081 83.9086 285.912 84.0779L279.999 89.7373L279.928 87.7191L284.698 83.0195C284.915 82.8031 285.145 82.6949 285.39 82.6949ZM279.293 92.6446C279.029 92.6446 278.818 92.5646 278.658 92.4047C278.498 92.2353 278.418 92.0283 278.418 91.7837V83.6263C278.418 83.3817 278.503 83.1794 278.672 83.0195C278.841 82.8501 279.058 82.7654 279.321 82.7654C279.585 82.7654 279.792 82.8501 279.942 83.0195C280.102 83.1794 280.182 83.3817 280.182 83.6263V91.7837C280.182 92.0283 280.102 92.2353 279.942 92.4047C279.782 92.5646 279.566 92.6446 279.293 92.6446ZM294.236 82.7231C294.452 82.7231 294.645 82.8078 294.815 82.9771C294.993 83.1371 295.083 83.3441 295.083 83.5981C295.083 83.6828 295.069 83.7722 295.04 83.8663C295.022 83.9509 294.984 84.0356 294.927 84.1203L291.724 88.707L291.978 87.7332V91.7837C291.978 92.0283 291.893 92.2353 291.724 92.4047C291.564 92.5646 291.376 92.6446 291.159 92.6446C290.924 92.6446 290.722 92.5646 290.552 92.4047C290.392 92.2353 290.313 92.0283 290.313 91.7837V87.8461L290.425 88.2978L287.377 84.2473C287.283 84.125 287.217 84.0074 287.179 83.8945C287.142 83.7816 287.123 83.6781 287.123 83.584C287.123 83.33 287.222 83.123 287.419 82.963C287.617 82.8031 287.819 82.7231 288.026 82.7231C288.29 82.7231 288.52 82.8548 288.718 83.1183L291.427 86.8582L291.032 86.8018L293.53 83.1465C293.728 82.8642 293.963 82.7231 294.236 82.7231ZM305.065 87.705C305.065 88.4107 304.948 89.0693 304.713 89.6808C304.477 90.2924 304.143 90.8334 303.711 91.3038C303.287 91.7649 302.779 92.1271 302.186 92.3906C301.603 92.654 300.963 92.7857 300.267 92.7857C299.571 92.7857 298.931 92.654 298.348 92.3906C297.764 92.1271 297.256 91.7649 296.823 91.3038C296.4 90.8334 296.071 90.2924 295.835 89.6808C295.6 89.0693 295.483 88.4107 295.483 87.705C295.483 86.9994 295.6 86.3407 295.835 85.7292C296.071 85.1176 296.4 84.5813 296.823 84.1203C297.256 83.6499 297.764 83.2829 298.348 83.0195C298.931 82.756 299.571 82.6243 300.267 82.6243C300.963 82.6243 301.603 82.756 302.186 83.0195C302.779 83.2829 303.287 83.6499 303.711 84.1203C304.143 84.5813 304.477 85.1176 304.713 85.7292C304.948 86.3407 305.065 86.9994 305.065 87.705ZM303.231 87.705C303.231 87.0746 303.104 86.5054 302.85 85.9973C302.596 85.4798 302.248 85.0706 301.805 84.7695C301.363 84.4684 300.85 84.3179 300.267 84.3179C299.684 84.3179 299.171 84.4684 298.729 84.7695C298.286 85.0706 297.938 85.4751 297.684 85.9832C297.44 86.4913 297.317 87.0652 297.317 87.705C297.317 88.3354 297.44 88.9093 297.684 89.4268C297.938 89.9349 298.286 90.3395 298.729 90.6405C299.171 90.9416 299.684 91.0922 300.267 91.0922C300.85 91.0922 301.363 90.9416 301.805 90.6405C302.248 90.3395 302.596 89.9349 302.85 89.4268C303.104 88.9093 303.231 88.3354 303.231 87.705Z" fill="#E37869"/>
    <path d="M268.893 125.928C268.893 126.634 268.775 127.292 268.54 127.904C268.304 128.515 267.97 129.056 267.538 129.527C267.114 129.988 266.606 130.35 266.013 130.613C265.43 130.877 264.79 131.009 264.094 131.009C263.398 131.009 262.758 130.877 262.175 130.613C261.591 130.35 261.083 129.988 260.651 129.527C260.227 129.056 259.898 128.515 259.663 127.904C259.427 127.292 259.31 126.634 259.31 125.928C259.31 125.222 259.427 124.564 259.663 123.952C259.898 123.341 260.227 122.804 260.651 122.343C261.083 121.873 261.591 121.506 262.175 121.242C262.758 120.979 263.398 120.847 264.094 120.847C264.79 120.847 265.43 120.979 266.013 121.242C266.606 121.506 267.114 121.873 267.538 122.343C267.97 122.804 268.304 123.341 268.54 123.952C268.775 124.564 268.893 125.222 268.893 125.928ZM267.058 125.928C267.058 125.298 266.931 124.728 266.677 124.22C266.423 123.703 266.075 123.293 265.632 122.992C265.19 122.691 264.677 122.541 264.094 122.541C263.511 122.541 262.998 122.691 262.556 122.992C262.114 123.293 261.765 123.698 261.511 124.206C261.267 124.714 261.144 125.288 261.144 125.928C261.144 126.558 261.267 127.132 261.511 127.65C261.765 128.158 262.114 128.562 262.556 128.863C262.998 129.165 263.511 129.315 264.094 129.315C264.677 129.315 265.19 129.165 265.632 128.863C266.075 128.562 266.423 128.158 266.677 127.65C266.931 127.132 267.058 126.558 267.058 125.928ZM273.688 131.009C273.029 131.009 272.437 130.929 271.91 130.769C271.383 130.599 270.88 130.308 270.4 129.894C270.277 129.79 270.183 129.673 270.117 129.541C270.052 129.409 270.019 129.277 270.019 129.146C270.019 128.929 270.094 128.741 270.244 128.581C270.404 128.412 270.602 128.327 270.837 128.327C271.016 128.327 271.176 128.384 271.317 128.496C271.675 128.788 272.027 129.009 272.375 129.16C272.733 129.31 273.171 129.386 273.688 129.386C274.036 129.386 274.356 129.334 274.648 129.23C274.939 129.117 275.175 128.972 275.353 128.793C275.532 128.605 275.622 128.393 275.622 128.158C275.622 127.876 275.537 127.636 275.367 127.438C275.198 127.24 274.939 127.076 274.591 126.944C274.243 126.803 273.801 126.695 273.265 126.619C272.757 126.544 272.31 126.431 271.924 126.281C271.538 126.121 271.214 125.923 270.95 125.688C270.696 125.443 270.503 125.161 270.371 124.841C270.24 124.512 270.174 124.145 270.174 123.74C270.174 123.129 270.329 122.607 270.64 122.174C270.959 121.741 271.388 121.412 271.924 121.186C272.46 120.96 273.053 120.847 273.702 120.847C274.314 120.847 274.878 120.941 275.396 121.129C275.923 121.308 276.351 121.539 276.68 121.821C276.953 122.037 277.089 122.287 277.089 122.569C277.089 122.776 277.009 122.964 276.849 123.134C276.689 123.303 276.501 123.388 276.285 123.388C276.144 123.388 276.017 123.345 275.904 123.261C275.753 123.129 275.551 123.007 275.297 122.894C275.043 122.771 274.775 122.672 274.492 122.597C274.21 122.513 273.947 122.47 273.702 122.47C273.298 122.47 272.954 122.522 272.672 122.625C272.399 122.729 272.192 122.87 272.051 123.049C271.91 123.228 271.839 123.435 271.839 123.67C271.839 123.952 271.919 124.187 272.079 124.375C272.248 124.554 272.488 124.7 272.799 124.813C273.109 124.916 273.481 125.011 273.914 125.095C274.478 125.199 274.972 125.321 275.396 125.462C275.829 125.603 276.186 125.787 276.468 126.013C276.751 126.229 276.962 126.507 277.103 126.845C277.245 127.175 277.315 127.579 277.315 128.059C277.315 128.671 277.146 129.197 276.807 129.64C276.468 130.082 276.021 130.421 275.466 130.656C274.921 130.891 274.328 131.009 273.688 131.009ZM282.561 123.204L279.512 130.374C279.446 130.552 279.343 130.693 279.202 130.797C279.07 130.891 278.924 130.938 278.764 130.938C278.51 130.938 278.322 130.867 278.2 130.726C278.077 130.585 278.016 130.411 278.016 130.204C278.016 130.119 278.03 130.03 278.059 129.936L281.573 121.496C281.648 121.308 281.761 121.162 281.911 121.059C282.071 120.955 282.241 120.913 282.419 120.932C282.589 120.932 282.744 120.984 282.885 121.087C283.036 121.181 283.144 121.318 283.21 121.496L286.682 129.767C286.729 129.889 286.752 130.002 286.752 130.105C286.752 130.359 286.668 130.562 286.498 130.712C286.338 130.863 286.159 130.938 285.962 130.938C285.793 130.938 285.637 130.886 285.496 130.783C285.364 130.679 285.261 130.538 285.186 130.359L282.151 123.289L282.561 123.204ZM279.95 128.652L280.726 127.029H284.536L284.805 128.652H279.95ZM294.75 130.867C294.486 130.867 294.275 130.759 294.115 130.543L290.854 126.253L292.139 124.94L295.512 129.4C295.644 129.578 295.709 129.771 295.709 129.978C295.709 130.242 295.611 130.458 295.413 130.628C295.215 130.788 294.994 130.867 294.75 130.867ZM294.919 120.918C295.145 120.918 295.328 121.012 295.469 121.2C295.62 121.379 295.695 121.562 295.695 121.75C295.695 121.948 295.611 122.131 295.441 122.301L289.528 127.96L289.457 125.942L294.228 121.242C294.444 121.026 294.674 120.918 294.919 120.918ZM288.822 130.867C288.559 130.867 288.347 130.788 288.187 130.628C288.027 130.458 287.947 130.251 287.947 130.007V121.849C287.947 121.605 288.032 121.402 288.201 121.242C288.371 121.073 288.587 120.988 288.85 120.988C289.114 120.988 289.321 121.073 289.471 121.242C289.631 121.402 289.711 121.605 289.711 121.849V130.007C289.711 130.251 289.631 130.458 289.471 130.628C289.311 130.788 289.095 130.867 288.822 130.867ZM300.822 123.204L297.774 130.374C297.708 130.552 297.604 130.693 297.463 130.797C297.332 130.891 297.186 130.938 297.026 130.938C296.772 130.938 296.584 130.867 296.461 130.726C296.339 130.585 296.278 130.411 296.278 130.204C296.278 130.119 296.292 130.03 296.32 129.936L299.834 121.496C299.91 121.308 300.022 121.162 300.173 121.059C300.333 120.955 300.502 120.913 300.681 120.932C300.85 120.932 301.006 120.984 301.147 121.087C301.297 121.181 301.406 121.318 301.471 121.496L304.943 129.767C304.99 129.889 305.014 130.002 305.014 130.105C305.014 130.359 304.929 130.562 304.76 130.712C304.6 130.863 304.421 130.938 304.223 130.938C304.054 130.938 303.899 130.886 303.758 130.783C303.626 130.679 303.522 130.538 303.447 130.359L300.413 123.289L300.822 123.204ZM298.211 128.652L298.987 127.029H302.798L303.066 128.652H298.211Z" fill="#E37869"/>
</svg>
