<?xml version="1.0" encoding="UTF-8"?>
<!--Generator: Apple Native CoreSVG 326-->
<!DOCTYPE svg
PUBLIC "-//W3C//DTD SVG 1.1//EN"
       "http://www.w3.org/Graphics/SVG/1.1/DTD/svg11.dtd">
<svg version="1.1" xmlns="http://www.w3.org/2000/svg" xmlns:xlink="http://www.w3.org/1999/xlink" viewBox="0 0 380.859 532.959">
 <g>
  <rect height="532.959" opacity="0" width="380.859" x="0" y="0"/>
  <path d="M380.859 266.357C380.859 259.277 378.174 253.418 373.047 248.535L122.07 7.08008C117.432 2.44141 111.572 0 104.736 0C91.0645 0 80.3223 10.2539 80.3223 24.1699C80.3223 30.7617 83.0078 36.8652 87.4023 41.2598L321.289 266.357L87.4023 491.211C83.0078 495.605 80.3223 501.465 80.3223 508.301C80.3223 522.217 91.0645 532.715 104.736 532.715C111.572 532.715 117.432 530.029 122.07 525.635L373.047 284.18C378.174 279.053 380.859 273.193 380.859 266.357Z" fill="white" fill-opacity="0.85"/>
 </g>
</svg>
