<svg width="336" height="236" viewBox="0 0 336 236" fill="none" xmlns="http://www.w3.org/2000/svg">
    <path d="M295.592 52.7931L217.308 52.3458C211.648 52.3135 207.033 56.8753 207 62.5354L206.981 65.8551C206.948 71.5153 202.333 76.0773 196.672 76.0447L135.282 75.6908C129.622 75.6582 125.006 80.2205 124.974 85.8811L124.873 103.329C124.841 108.966 120.262 113.519 114.624 113.519H82.7184C77.0579 113.519 72.469 118.108 72.469 123.768V161.602C72.469 167.285 67.8443 171.884 62.1607 171.851L59.0586 171.833C53.3981 171.801 48.783 176.363 48.7504 182.023L48.6149 205.552C48.5823 211.212 53.1445 215.827 58.805 215.86L81.05 215.988C86.7105 216.021 91.3258 211.459 91.3584 205.798L91.4591 188.305C91.4916 182.667 96.0708 178.114 101.708 178.114H149.173C154.834 178.114 159.423 173.526 159.423 167.865V154.209C159.423 148.525 164.047 143.927 169.731 143.959C175.392 143.992 179.954 148.607 179.921 154.268L179.538 220.159C179.506 225.82 184.068 230.435 189.729 230.467L294.506 231.066C300.166 231.098 304.78 226.536 304.813 220.876L305.225 150.199L305.276 150.199L305.783 63.1019C305.816 57.441 301.253 52.8254 295.592 52.7931Z" fill="#D2CFC6" stroke="#EDEBDC" stroke-width="8.82068" stroke-miterlimit="10"/>
    <path d="M36.1194 120.311L35.944 150.745C35.9035 157.777 41.5711 163.511 48.603 163.551L48.603 163.551C55.6349 163.592 61.3682 157.924 61.4088 150.892L61.5841 120.458C61.6247 113.426 55.957 107.693 48.9251 107.652C41.8932 107.612 36.1599 113.28 36.1194 120.311Z" fill="#D2CFC6" stroke="#EDEBDC" stroke-width="8.82068" stroke-miterlimit="10"/>
    <path d="M205.075 34.0178H233.645C241.02 34.0178 246.999 28.039 246.999 20.6637V18.1805C246.999 10.8052 241.02 4.82639 233.645 4.82639H169.051C161.676 4.82639 155.697 10.8051 155.697 18.1803L155.696 47.3717C155.696 54.7471 161.675 60.726 169.05 60.726H178.367C185.742 60.726 191.721 54.7472 191.721 47.3719C191.721 39.9967 197.7 34.0178 205.075 34.0178Z" fill="#D2CFC6" stroke="#EDEBDC" stroke-width="8.82068" stroke-miterlimit="10"/>
    <rect x="1.47011" y="123.317" width="68.8013" height="29.9903" rx="4.41034" fill="white" stroke="#EDEBDC" stroke-width="2.94023"/>
    <rect x="37.3407" y="186.826" width="68.8013" height="29.9903" rx="4.41034" fill="white" stroke="#EDEBDC" stroke-width="2.94023"/>
    <rect x="81.4701" y="132.55" width="68.8013" height="29.9903" rx="4.41034" fill="white" stroke="#EDEBDC" stroke-width="2.94023"/>
    <rect x="134.368" y="90.3869" width="68.8013" height="29.9903" rx="4.41034" fill="white" stroke="#EDEBDC" stroke-width="2.94023"/>
    <rect x="129.076" y="26.4701" width="101.144" height="29.9903" rx="4.41034" fill="white" stroke="#EDEBDC" stroke-width="2.94023"/>
    <rect x="248.45" y="76.0985" width="74.0937" height="29.9903" rx="4.41034" fill="white" stroke="#EDEBDC" stroke-width="2.94023"/>
    <rect x="253.742" y="181.947" width="80.5622" height="29.9903" rx="4.41034" fill="white" stroke="#EDEBDC" stroke-width="2.94023"/>
    <path d="M12.2734 141.841C12.518 141.841 12.7203 141.921 12.8802 142.081C13.0496 142.231 13.1343 142.429 13.1343 142.673C13.1343 142.909 13.0496 143.106 12.8802 143.266C12.7203 143.417 12.518 143.492 12.2734 143.492H7.68661C7.44198 143.492 7.23499 143.412 7.06563 143.252C6.90569 143.083 6.82571 142.876 6.82571 142.631V134.474C6.82571 134.229 6.91039 134.027 7.07975 133.867C7.24911 133.697 7.46551 133.613 7.72895 133.613C7.95476 133.613 8.15234 133.697 8.3217 133.867C8.50047 134.027 8.58985 134.229 8.58985 134.474V142.081L8.27936 141.841H12.2734ZM23.7015 138.552C23.7015 139.258 23.5839 139.917 23.3487 140.528C23.1135 141.14 22.7795 141.681 22.3467 142.151C21.9233 142.612 21.4152 142.974 20.8225 143.238C20.2391 143.501 19.5993 143.633 18.9031 143.633C18.2069 143.633 17.5671 143.501 16.9837 143.238C16.4004 142.974 15.8923 142.612 15.4595 142.151C15.0361 141.681 14.7068 141.14 14.4716 140.528C14.2364 139.917 14.1188 139.258 14.1188 138.552C14.1188 137.847 14.2364 137.188 14.4716 136.577C14.7068 135.965 15.0361 135.429 15.4595 134.968C15.8923 134.497 16.4004 134.13 16.9837 133.867C17.5671 133.603 18.2069 133.472 18.9031 133.472C19.5993 133.472 20.2391 133.603 20.8225 133.867C21.4152 134.13 21.9233 134.497 22.3467 134.968C22.7795 135.429 23.1135 135.965 23.3487 136.577C23.5839 137.188 23.7015 137.847 23.7015 138.552ZM21.8668 138.552C21.8668 137.922 21.7398 137.353 21.4858 136.845C21.2318 136.327 20.8836 135.918 20.4414 135.617C19.9992 135.316 19.4864 135.165 18.9031 135.165C18.3198 135.165 17.807 135.316 17.3648 135.617C16.9226 135.918 16.5744 136.322 16.3204 136.831C16.0758 137.339 15.9535 137.913 15.9535 138.552C15.9535 139.183 16.0758 139.757 16.3204 140.274C16.5744 140.782 16.9226 141.187 17.3648 141.488C17.807 141.789 18.3198 141.94 18.9031 141.94C19.4864 141.94 19.9992 141.789 20.4414 141.488C20.8836 141.187 21.2318 140.782 21.4858 140.274C21.7398 139.757 21.8668 139.183 21.8668 138.552ZM32.8156 133.613C33.0414 133.613 33.2249 133.688 33.366 133.839C33.5072 133.989 33.5777 134.177 33.5777 134.403V142.631C33.5777 142.876 33.4931 143.083 33.3237 143.252C33.1637 143.412 32.9615 143.492 32.7168 143.492C32.5945 143.492 32.4675 143.473 32.3358 143.435C32.2135 143.388 32.1194 143.327 32.0535 143.252L26.5071 136.21L26.874 135.984V142.702C26.874 142.927 26.7987 143.116 26.6482 143.266C26.5071 143.417 26.3189 143.492 26.0837 143.492C25.8579 143.492 25.6744 143.417 25.5333 143.266C25.3921 143.116 25.3216 142.927 25.3216 142.702V134.474C25.3216 134.229 25.4015 134.027 25.5615 133.867C25.7309 133.697 25.9378 133.613 26.1825 133.613C26.3142 133.613 26.4506 133.641 26.5918 133.697C26.7329 133.745 26.8364 133.82 26.9022 133.923L32.2793 140.782L32.0394 140.952V134.403C32.0394 134.177 32.11 133.989 32.2511 133.839C32.3922 133.688 32.5804 133.613 32.8156 133.613ZM39.9336 133.613C40.611 133.613 41.2132 133.74 41.7401 133.994C42.2669 134.248 42.7092 134.605 43.0667 135.066C43.4336 135.518 43.7065 136.045 43.8852 136.647C44.0734 137.24 44.1675 137.875 44.1675 138.552C44.1675 139.465 44.0029 140.298 43.6735 141.05C43.3442 141.794 42.8644 142.386 42.234 142.829C41.613 143.271 40.8462 143.492 39.9336 143.492H36.5606C36.3159 143.492 36.1089 143.412 35.9396 143.252C35.7796 143.083 35.6997 142.876 35.6997 142.631V134.474C35.6997 134.229 35.7796 134.027 35.9396 133.867C36.1089 133.697 36.3159 133.613 36.5606 133.613H39.9336ZM39.7924 141.869C40.3852 141.869 40.8697 141.718 41.2461 141.417C41.6224 141.107 41.8953 140.702 42.0647 140.204C42.2434 139.696 42.3328 139.145 42.3328 138.552C42.3328 138.11 42.2811 137.691 42.1776 137.296C42.0835 136.892 41.9329 136.539 41.7259 136.238C41.5189 135.927 41.2555 135.683 40.9356 135.504C40.6157 135.325 40.2347 135.236 39.7924 135.236H37.3227L37.4638 135.109V142.024L37.3791 141.869H39.7924ZM54.8771 138.552C54.8771 139.258 54.7595 139.917 54.5243 140.528C54.2891 141.14 53.9551 141.681 53.5223 142.151C53.0989 142.612 52.5908 142.974 51.9981 143.238C51.4147 143.501 50.7749 143.633 50.0787 143.633C49.3824 143.633 48.7426 143.501 48.1593 143.238C47.576 142.974 47.0679 142.612 46.6351 142.151C46.2117 141.681 45.8824 141.14 45.6472 140.528C45.412 139.917 45.2943 139.258 45.2943 138.552C45.2943 137.847 45.412 137.188 45.6472 136.577C45.8824 135.965 46.2117 135.429 46.6351 134.968C47.0679 134.497 47.576 134.13 48.1593 133.867C48.7426 133.603 49.3824 133.472 50.0787 133.472C50.7749 133.472 51.4147 133.603 51.9981 133.867C52.5908 134.13 53.0989 134.497 53.5223 134.968C53.9551 135.429 54.2891 135.965 54.5243 136.577C54.7595 137.188 54.8771 137.847 54.8771 138.552ZM53.0424 138.552C53.0424 137.922 52.9154 137.353 52.6614 136.845C52.4073 136.327 52.0592 135.918 51.617 135.617C51.1748 135.316 50.662 135.165 50.0787 135.165C49.4953 135.165 48.9826 135.316 48.5404 135.617C48.0981 135.918 47.75 136.322 47.496 136.831C47.2514 137.339 47.129 137.913 47.129 138.552C47.129 139.183 47.2514 139.757 47.496 140.274C47.75 140.782 48.0981 141.187 48.5404 141.488C48.9826 141.789 49.4953 141.94 50.0787 141.94C50.662 141.94 51.1748 141.789 51.617 141.488C52.0592 141.187 52.4073 140.782 52.6614 140.274C52.9154 139.757 53.0424 139.183 53.0424 138.552ZM63.9912 133.613C64.217 133.613 64.4005 133.688 64.5416 133.839C64.6827 133.989 64.7533 134.177 64.7533 134.403V142.631C64.7533 142.876 64.6686 143.083 64.4993 143.252C64.3393 143.412 64.137 143.492 63.8924 143.492C63.7701 143.492 63.6431 143.473 63.5114 143.435C63.389 143.388 63.295 143.327 63.2291 143.252L57.6827 136.21L58.0496 135.984V142.702C58.0496 142.927 57.9743 143.116 57.8238 143.266C57.6827 143.417 57.4945 143.492 57.2593 143.492C57.0335 143.492 56.85 143.417 56.7089 143.266C56.5677 143.116 56.4972 142.927 56.4972 142.702V134.474C56.4972 134.229 56.5771 134.027 56.7371 133.867C56.9064 133.697 57.1134 133.613 57.3581 133.613C57.4898 133.613 57.6262 133.641 57.7673 133.697C57.9085 133.745 58.012 133.82 58.0778 133.923L63.4549 140.782L63.215 140.952V134.403C63.215 134.177 63.2856 133.989 63.4267 133.839C63.5678 133.688 63.756 133.613 63.9912 133.613Z" fill="#E37869"/>
    <path d="M46.3857 197.108C46.5174 197.108 46.6538 197.145 46.795 197.22C46.9455 197.286 47.0584 197.376 47.1337 197.489L50.5632 202.767L49.8575 202.739L53.3717 197.489C53.5504 197.235 53.781 197.108 54.0632 197.108C54.289 197.108 54.4913 197.188 54.6701 197.348C54.8488 197.507 54.9382 197.714 54.9382 197.968V206.14C54.9382 206.385 54.8583 206.592 54.6983 206.761C54.5384 206.921 54.3267 207.001 54.0632 207.001C53.7998 207.001 53.5834 206.921 53.414 206.761C53.2541 206.592 53.1741 206.385 53.1741 206.14V199.493L53.7245 199.62L50.8454 204.009C50.7608 204.112 50.6526 204.202 50.5208 204.277C50.3985 204.352 50.2715 204.385 50.1398 204.376C50.0175 204.385 49.8905 204.352 49.7587 204.277C49.6364 204.202 49.5329 204.112 49.4482 204.009L46.7526 199.747L47.1196 198.999V206.14C47.1196 206.385 47.0443 206.592 46.8938 206.761C46.7432 206.921 46.5456 207.001 46.301 207.001C46.0658 207.001 45.8729 206.921 45.7224 206.761C45.5718 206.592 45.4966 206.385 45.4966 206.14V197.968C45.4966 197.733 45.5813 197.531 45.7506 197.362C45.9294 197.192 46.1411 197.108 46.3857 197.108ZM60.687 199.337L57.6386 206.507C57.5727 206.686 57.4692 206.827 57.3281 206.93C57.1964 207.024 57.0505 207.071 56.8906 207.071C56.6365 207.071 56.4484 207.001 56.3261 206.86C56.2037 206.719 56.1426 206.545 56.1426 206.338C56.1426 206.253 56.1567 206.163 56.1849 206.069L59.6991 197.63C59.7744 197.442 59.8873 197.296 60.0378 197.192C60.1977 197.089 60.3671 197.046 60.5459 197.065C60.7152 197.065 60.8705 197.117 61.0116 197.22C61.1621 197.315 61.2703 197.451 61.3362 197.63L64.808 205.9C64.8551 206.022 64.8786 206.135 64.8786 206.239C64.8786 206.493 64.7939 206.695 64.6245 206.846C64.4646 206.996 64.2858 207.071 64.0883 207.071C63.9189 207.071 63.7637 207.02 63.6225 206.916C63.4908 206.813 63.3873 206.672 63.312 206.493L60.2777 199.422L60.687 199.337ZM58.0761 204.785L58.8523 203.162H62.6628L62.931 204.785H58.0761ZM70.3075 197.122C70.9849 197.122 71.5871 197.249 72.114 197.503C72.6409 197.757 73.0831 198.114 73.4406 198.575C73.8075 199.027 74.0804 199.554 74.2592 200.156C74.4473 200.749 74.5414 201.384 74.5414 202.061C74.5414 202.974 74.3768 203.807 74.0475 204.559C73.7182 205.303 73.2383 205.895 72.6079 206.338C71.9869 206.78 71.2201 207.001 70.3075 207.001H66.9345C66.6898 207.001 66.4828 206.921 66.3135 206.761C66.1535 206.592 66.0736 206.385 66.0736 206.14V197.983C66.0736 197.738 66.1535 197.536 66.3135 197.376C66.4828 197.206 66.6898 197.122 66.9345 197.122H70.3075ZM70.1664 205.378C70.7591 205.378 71.2437 205.227 71.62 204.926C71.9964 204.616 72.2692 204.211 72.4386 203.713C72.6173 203.204 72.7067 202.654 72.7067 202.061C72.7067 201.619 72.655 201.2 72.5515 200.805C72.4574 200.401 72.3068 200.048 72.0999 199.747C71.8929 199.436 71.6294 199.192 71.3095 199.013C70.9896 198.834 70.6086 198.745 70.1664 198.745H67.6966L67.8377 198.618V205.533L67.753 205.378H70.1664ZM77.1784 207.001C76.9149 207.001 76.6797 206.921 76.4727 206.761C76.2657 206.592 76.1622 206.385 76.1622 206.14V197.983C76.1622 197.738 76.2422 197.536 76.4021 197.376C76.5715 197.206 76.7785 197.122 77.0231 197.122H81.0877C81.5769 197.122 82.0333 197.253 82.4567 197.517C82.8895 197.771 83.2376 198.128 83.501 198.589C83.7645 199.041 83.8962 199.563 83.8962 200.156C83.8962 200.514 83.8209 200.862 83.6704 201.2C83.5292 201.539 83.3317 201.845 83.0776 202.118C82.833 202.391 82.5554 202.602 82.245 202.753L82.2591 202.428C82.5225 202.569 82.7389 202.739 82.9083 202.936C83.087 203.124 83.2235 203.331 83.3176 203.557C83.421 203.774 83.4822 204.009 83.501 204.263C83.5387 204.498 83.5622 204.705 83.5716 204.884C83.5904 205.063 83.6186 205.213 83.6563 205.336C83.7033 205.458 83.788 205.552 83.9103 205.618C84.1173 205.74 84.2443 205.919 84.2914 206.154C84.3478 206.38 84.2961 206.582 84.1361 206.761C84.0326 206.883 83.9009 206.963 83.7409 207.001C83.581 207.029 83.421 207.029 83.2611 207.001C83.1012 206.963 82.9694 206.916 82.8659 206.86C82.706 206.766 82.546 206.629 82.3861 206.45C82.2261 206.262 82.0944 206.013 81.9909 205.702C81.8968 205.392 81.8498 204.992 81.8498 204.503C81.8498 204.343 81.8216 204.197 81.7651 204.065C81.7087 203.924 81.6287 203.807 81.5252 203.713C81.4217 203.609 81.29 203.534 81.13 203.487C80.9701 203.43 80.7819 203.402 80.5655 203.402H77.7147L77.9264 203.077V206.14C77.9264 206.385 77.8605 206.592 77.7288 206.761C77.597 206.921 77.4136 207.001 77.1784 207.001ZM77.7288 201.948H81.0171C81.1865 201.948 81.3511 201.873 81.5111 201.723C81.671 201.563 81.8027 201.351 81.9062 201.087C82.0097 200.815 82.0615 200.518 82.0615 200.198C82.0615 199.784 81.9486 199.441 81.7228 199.168C81.5064 198.886 81.2712 198.745 81.0171 198.745H77.757L77.9264 198.293V202.287L77.7288 201.948ZM87.6153 206.14C87.6153 206.385 87.5259 206.592 87.3472 206.761C87.1684 206.921 86.9614 207.001 86.7262 207.001C86.4627 207.001 86.2511 206.921 86.0911 206.761C85.9312 206.592 85.8512 206.385 85.8512 206.14V197.983C85.8512 197.738 85.9359 197.536 86.1052 197.376C86.2746 197.206 86.491 197.122 86.7544 197.122C86.9802 197.122 87.1778 197.206 87.3472 197.376C87.5259 197.536 87.6153 197.738 87.6153 197.983V206.14ZM93.9717 197.122C94.6491 197.122 95.2513 197.249 95.7782 197.503C96.3051 197.757 96.7473 198.114 97.1048 198.575C97.4718 199.027 97.7446 199.554 97.9234 200.156C98.1116 200.749 98.2056 201.384 98.2056 202.061C98.2056 202.974 98.041 203.807 97.7117 204.559C97.3824 205.303 96.9025 205.895 96.2722 206.338C95.6512 206.78 94.8844 207.001 93.9717 207.001H90.5987C90.3541 207.001 90.1471 206.921 89.9777 206.761C89.8178 206.592 89.7378 206.385 89.7378 206.14V197.983C89.7378 197.738 89.8178 197.536 89.9777 197.376C90.1471 197.206 90.3541 197.122 90.5987 197.122H93.9717ZM93.8306 205.378C94.4233 205.378 94.9079 205.227 95.2842 204.926C95.6606 204.616 95.9334 204.211 96.1028 203.713C96.2816 203.204 96.3709 202.654 96.3709 202.061C96.3709 201.619 96.3192 201.2 96.2157 200.805C96.1216 200.401 95.9711 200.048 95.7641 199.747C95.5571 199.436 95.2936 199.192 94.9737 199.013C94.6538 198.834 94.2728 198.745 93.8306 198.745H91.3608L91.5019 198.618V205.533L91.4172 205.378H93.8306Z" fill="#E37869"/>
    <path d="M101.04 142.845C101.529 142.845 101.985 142.987 102.409 143.269C102.841 143.551 103.19 143.932 103.453 144.412C103.716 144.892 103.848 145.428 103.848 146.021C103.848 146.604 103.716 147.136 103.453 147.616C103.19 148.095 102.841 148.481 102.409 148.773C101.985 149.055 101.529 149.196 101.04 149.196H98.4429L98.584 148.942V151.864C98.584 152.108 98.5088 152.315 98.3582 152.485C98.2077 152.645 98.0101 152.725 97.7655 152.725C97.5303 152.725 97.3374 152.645 97.1868 152.485C97.0363 152.315 96.961 152.108 96.961 151.864V143.706C96.961 143.462 97.041 143.259 97.201 143.099C97.3703 142.93 97.5773 142.845 97.8219 142.845H101.04ZM101.04 147.587C101.218 147.587 101.393 147.512 101.562 147.362C101.731 147.211 101.872 147.018 101.985 146.783C102.098 146.538 102.155 146.284 102.155 146.021C102.155 145.748 102.098 145.494 101.985 145.259C101.872 145.024 101.731 144.835 101.562 144.694C101.393 144.544 101.218 144.468 101.04 144.468H98.4147L98.584 144.214V147.813L98.4288 147.587H101.04ZM108.527 145.061L105.478 152.231C105.412 152.409 105.309 152.55 105.168 152.654C105.036 152.748 104.89 152.795 104.73 152.795C104.476 152.795 104.288 152.725 104.166 152.583C104.043 152.442 103.982 152.268 103.982 152.061C103.982 151.977 103.996 151.887 104.025 151.793L107.539 143.353C107.614 143.165 107.727 143.019 107.878 142.916C108.037 142.812 108.207 142.77 108.386 142.789C108.555 142.789 108.71 142.841 108.851 142.944C109.002 143.038 109.11 143.175 109.176 143.353L112.648 151.624C112.695 151.746 112.718 151.859 112.718 151.962C112.718 152.216 112.634 152.419 112.464 152.569C112.304 152.72 112.126 152.795 111.928 152.795C111.759 152.795 111.603 152.743 111.462 152.64C111.331 152.536 111.227 152.395 111.152 152.216L108.117 145.146L108.527 145.061ZM105.916 150.509L106.692 148.886H110.503L110.771 150.509H105.916ZM114.929 152.725C114.666 152.725 114.431 152.645 114.224 152.485C114.017 152.315 113.913 152.108 113.913 151.864V143.706C113.913 143.462 113.993 143.259 114.153 143.099C114.323 142.93 114.53 142.845 114.774 142.845H118.839C119.328 142.845 119.784 142.977 120.208 143.241C120.641 143.495 120.989 143.852 121.252 144.313C121.516 144.765 121.647 145.287 121.647 145.88C121.647 146.237 121.572 146.585 121.421 146.924C121.28 147.263 121.083 147.569 120.829 147.841C120.584 148.114 120.307 148.326 119.996 148.477L120.01 148.152C120.274 148.293 120.49 148.462 120.659 148.66C120.838 148.848 120.975 149.055 121.069 149.281C121.172 149.497 121.233 149.733 121.252 149.987C121.29 150.222 121.313 150.429 121.323 150.608C121.341 150.786 121.37 150.937 121.407 151.059C121.454 151.182 121.539 151.276 121.661 151.341C121.868 151.464 121.995 151.643 122.042 151.878C122.099 152.104 122.047 152.306 121.887 152.485C121.784 152.607 121.652 152.687 121.492 152.725C121.332 152.753 121.172 152.753 121.012 152.725C120.852 152.687 120.72 152.64 120.617 152.583C120.457 152.489 120.297 152.353 120.137 152.174C119.977 151.986 119.845 151.737 119.742 151.426C119.648 151.116 119.601 150.716 119.601 150.227C119.601 150.067 119.573 149.921 119.516 149.789C119.46 149.648 119.38 149.53 119.276 149.436C119.173 149.333 119.041 149.257 118.881 149.21C118.721 149.154 118.533 149.126 118.317 149.126H115.466L115.677 148.801V151.864C115.677 152.108 115.612 152.315 115.48 152.485C115.348 152.645 115.165 152.725 114.929 152.725ZM115.48 147.672H118.768C118.938 147.672 119.102 147.597 119.262 147.446C119.422 147.286 119.554 147.075 119.657 146.811C119.761 146.538 119.813 146.242 119.813 145.922C119.813 145.508 119.7 145.165 119.474 144.892C119.257 144.61 119.022 144.468 118.768 144.468H115.508L115.677 144.017V148.011L115.48 147.672ZM125.366 151.864C125.366 152.108 125.277 152.315 125.098 152.485C124.919 152.645 124.712 152.725 124.477 152.725C124.214 152.725 124.002 152.645 123.842 152.485C123.682 152.315 123.602 152.108 123.602 151.864V143.706C123.602 143.462 123.687 143.259 123.856 143.099C124.026 142.93 124.242 142.845 124.505 142.845C124.731 142.845 124.929 142.93 125.098 143.099C125.277 143.259 125.366 143.462 125.366 143.706V151.864ZM130.664 152.866C130.006 152.866 129.413 152.786 128.886 152.626C128.359 152.456 127.856 152.165 127.376 151.751C127.254 151.647 127.16 151.53 127.094 151.398C127.028 151.266 126.995 151.134 126.995 151.003C126.995 150.786 127.07 150.598 127.221 150.438C127.381 150.269 127.578 150.184 127.813 150.184C127.992 150.184 128.152 150.241 128.293 150.354C128.651 150.645 129.004 150.866 129.352 151.017C129.709 151.167 130.147 151.243 130.664 151.243C131.012 151.243 131.332 151.191 131.624 151.087C131.916 150.975 132.151 150.829 132.33 150.65C132.508 150.462 132.598 150.25 132.598 150.015C132.598 149.733 132.513 149.493 132.344 149.295C132.174 149.097 131.916 148.933 131.568 148.801C131.219 148.66 130.777 148.552 130.241 148.477C129.733 148.401 129.286 148.288 128.9 148.138C128.514 147.978 128.19 147.78 127.926 147.545C127.672 147.3 127.479 147.018 127.348 146.698C127.216 146.369 127.15 146.002 127.15 145.597C127.15 144.986 127.305 144.464 127.616 144.031C127.936 143.598 128.364 143.269 128.9 143.043C129.436 142.817 130.029 142.704 130.678 142.704C131.29 142.704 131.854 142.798 132.372 142.987C132.899 143.165 133.327 143.396 133.656 143.678C133.929 143.894 134.066 144.144 134.066 144.426C134.066 144.633 133.986 144.821 133.826 144.991C133.666 145.16 133.478 145.245 133.261 145.245C133.12 145.245 132.993 145.202 132.88 145.118C132.73 144.986 132.527 144.864 132.273 144.751C132.019 144.628 131.751 144.53 131.469 144.454C131.186 144.37 130.923 144.327 130.678 144.327C130.274 144.327 129.93 144.379 129.648 144.483C129.375 144.586 129.168 144.727 129.027 144.906C128.886 145.085 128.815 145.292 128.815 145.527C128.815 145.809 128.895 146.044 129.055 146.233C129.225 146.411 129.465 146.557 129.775 146.67C130.086 146.774 130.457 146.868 130.89 146.952C131.455 147.056 131.949 147.178 132.372 147.319C132.805 147.46 133.162 147.644 133.445 147.87C133.727 148.086 133.939 148.364 134.08 148.702C134.221 149.032 134.291 149.436 134.291 149.916C134.291 150.528 134.122 151.054 133.783 151.497C133.445 151.939 132.998 152.278 132.443 152.513C131.897 152.748 131.304 152.866 130.664 152.866Z" fill="#E37869"/>
    <path d="M149.946 100.682C150.849 100.682 151.522 100.894 151.964 101.317C152.406 101.741 152.627 102.366 152.627 103.194C152.627 103.637 152.519 104.027 152.303 104.366C152.086 104.695 151.766 104.954 151.343 105.142C150.92 105.321 150.397 105.41 149.776 105.41L149.833 104.775C150.125 104.775 150.459 104.817 150.835 104.902C151.211 104.977 151.573 105.119 151.922 105.326C152.279 105.523 152.571 105.805 152.797 106.172C153.032 106.53 153.149 106.991 153.149 107.555C153.149 108.176 153.046 108.684 152.839 109.08C152.641 109.475 152.378 109.781 152.049 109.997C151.719 110.213 151.366 110.364 150.99 110.449C150.614 110.524 150.252 110.561 149.903 110.561H146.389C146.145 110.561 145.938 110.481 145.768 110.322C145.608 110.152 145.528 109.945 145.528 109.701V101.543C145.528 101.299 145.608 101.096 145.768 100.936C145.938 100.767 146.145 100.682 146.389 100.682H149.946ZM149.692 102.348H147.18L147.363 102.122V104.676L147.194 104.549H149.734C150.007 104.549 150.252 104.46 150.468 104.281C150.684 104.102 150.793 103.844 150.793 103.505C150.793 103.1 150.689 102.809 150.482 102.63C150.284 102.442 150.021 102.348 149.692 102.348ZM149.805 106.215H147.236L147.363 106.102V109.08L147.222 108.938H149.903C150.336 108.938 150.68 108.826 150.934 108.6C151.188 108.365 151.315 108.016 151.315 107.555C151.315 107.132 151.23 106.826 151.061 106.638C150.891 106.45 150.689 106.332 150.454 106.285C150.219 106.238 150.002 106.215 149.805 106.215ZM155.637 100.682H160.365C160.61 100.682 160.812 100.762 160.972 100.922C161.141 101.073 161.226 101.27 161.226 101.515C161.226 101.75 161.141 101.943 160.972 102.094C160.812 102.235 160.61 102.305 160.365 102.305H156.413L156.54 102.065V104.817L156.428 104.705H159.73C159.975 104.705 160.177 104.785 160.337 104.944C160.506 105.095 160.591 105.293 160.591 105.537C160.591 105.772 160.506 105.965 160.337 106.116C160.177 106.257 159.975 106.328 159.73 106.328H156.47L156.54 106.215V109.065L156.428 108.938H160.365C160.61 108.938 160.812 109.023 160.972 109.192C161.141 109.352 161.226 109.541 161.226 109.757C161.226 109.992 161.141 110.185 160.972 110.336C160.812 110.486 160.61 110.561 160.365 110.561H155.637C155.393 110.561 155.186 110.481 155.016 110.322C154.856 110.152 154.776 109.945 154.776 109.701V101.543C154.776 101.299 154.856 101.096 155.016 100.936C155.186 100.767 155.393 100.682 155.637 100.682ZM163.869 110.561C163.605 110.561 163.37 110.481 163.163 110.322C162.956 110.152 162.853 109.945 162.853 109.701V101.543C162.853 101.299 162.933 101.096 163.093 100.936C163.262 100.767 163.469 100.682 163.714 100.682H167.778C168.267 100.682 168.724 100.814 169.147 101.077C169.58 101.332 169.928 101.689 170.192 102.15C170.455 102.602 170.587 103.124 170.587 103.717C170.587 104.074 170.511 104.422 170.361 104.761C170.22 105.1 170.022 105.405 169.768 105.678C169.523 105.951 169.246 106.163 168.935 106.313L168.95 105.989C169.213 106.13 169.429 106.299 169.599 106.497C169.778 106.685 169.914 106.892 170.008 107.118C170.112 107.334 170.173 107.569 170.192 107.824C170.229 108.059 170.253 108.266 170.262 108.444C170.281 108.623 170.309 108.774 170.347 108.896C170.394 109.018 170.478 109.113 170.601 109.178C170.808 109.301 170.935 109.479 170.982 109.715C171.038 109.94 170.987 110.143 170.827 110.322C170.723 110.444 170.591 110.524 170.431 110.561C170.271 110.59 170.112 110.59 169.952 110.561C169.792 110.524 169.66 110.477 169.556 110.42C169.396 110.326 169.237 110.19 169.077 110.011C168.917 109.823 168.785 109.574 168.681 109.263C168.587 108.953 168.54 108.553 168.54 108.063C168.54 107.903 168.512 107.758 168.456 107.626C168.399 107.485 168.319 107.367 168.216 107.273C168.112 107.17 167.98 107.094 167.821 107.047C167.661 106.991 167.472 106.963 167.256 106.963H164.405L164.617 106.638V109.701C164.617 109.945 164.551 110.152 164.419 110.322C164.288 110.481 164.104 110.561 163.869 110.561ZM164.419 105.509H167.708C167.877 105.509 168.042 105.434 168.202 105.283C168.362 105.123 168.493 104.912 168.597 104.648C168.7 104.375 168.752 104.079 168.752 103.759C168.752 103.345 168.639 103.002 168.413 102.729C168.197 102.446 167.962 102.305 167.708 102.305H164.447L164.617 101.854V105.848L164.419 105.509ZM177.989 108.91C178.234 108.91 178.436 108.99 178.596 109.15C178.766 109.301 178.85 109.498 178.85 109.743C178.85 109.978 178.766 110.176 178.596 110.336C178.436 110.486 178.234 110.561 177.989 110.561H173.403C173.158 110.561 172.951 110.481 172.782 110.322C172.622 110.152 172.542 109.945 172.542 109.701V101.543C172.542 101.299 172.626 101.096 172.796 100.936C172.965 100.767 173.181 100.682 173.445 100.682C173.671 100.682 173.868 100.767 174.038 100.936C174.216 101.096 174.306 101.299 174.306 101.543V109.15L173.995 108.91H177.989ZM182.231 109.701C182.231 109.945 182.141 110.152 181.962 110.322C181.784 110.481 181.577 110.561 181.342 110.561C181.078 110.561 180.866 110.481 180.706 110.322C180.546 110.152 180.467 109.945 180.467 109.701V101.543C180.467 101.299 180.551 101.096 180.721 100.936C180.89 100.767 181.106 100.682 181.37 100.682C181.596 100.682 181.793 100.767 181.962 100.936C182.141 101.096 182.231 101.299 182.231 101.543V109.701ZM191.847 100.682C192.073 100.682 192.256 100.758 192.398 100.908C192.539 101.059 192.609 101.247 192.609 101.473V109.701C192.609 109.945 192.525 110.152 192.355 110.322C192.195 110.481 191.993 110.561 191.748 110.561C191.626 110.561 191.499 110.543 191.367 110.505C191.245 110.458 191.151 110.397 191.085 110.322L185.539 103.279L185.906 103.053V109.771C185.906 109.997 185.83 110.185 185.68 110.336C185.539 110.486 185.35 110.561 185.115 110.561C184.889 110.561 184.706 110.486 184.565 110.336C184.424 110.185 184.353 109.997 184.353 109.771V101.543C184.353 101.299 184.433 101.096 184.593 100.936C184.762 100.767 184.969 100.682 185.214 100.682C185.346 100.682 185.482 100.711 185.623 100.767C185.764 100.814 185.868 100.889 185.934 100.993L191.311 107.852L191.071 108.021V101.473C191.071 101.247 191.142 101.059 191.283 100.908C191.424 100.758 191.612 100.682 191.847 100.682Z" fill="#E37869"/>
    <path d="M140.671 46.961C140.012 46.961 139.42 46.881 138.893 46.7211C138.366 46.5517 137.863 46.2601 137.383 45.8461C137.26 45.7426 137.166 45.625 137.1 45.4933C137.035 45.3615 137.002 45.2298 137.002 45.0981C137.002 44.8817 137.077 44.6935 137.228 44.5336C137.387 44.3642 137.585 44.2795 137.82 44.2795C137.999 44.2795 138.159 44.336 138.3 44.4489C138.658 44.7406 139.01 44.9617 139.359 45.1122C139.716 45.2627 140.154 45.338 140.671 45.338C141.019 45.338 141.339 45.2863 141.631 45.1828C141.922 45.0699 142.158 44.924 142.336 44.7453C142.515 44.5571 142.605 44.3454 142.605 44.1102C142.605 43.8279 142.52 43.588 142.351 43.3904C142.181 43.1928 141.922 43.0282 141.574 42.8964C141.226 42.7553 140.784 42.6471 140.248 42.5718C139.74 42.4966 139.293 42.3837 138.907 42.2331C138.521 42.0732 138.197 41.8756 137.933 41.6404C137.679 41.3958 137.486 41.1135 137.355 40.7936C137.223 40.4643 137.157 40.0974 137.157 39.6928C137.157 39.0812 137.312 38.559 137.623 38.1262C137.943 37.6934 138.371 37.3641 138.907 37.1383C139.443 36.9125 140.036 36.7996 140.685 36.7996C141.297 36.7996 141.861 36.8937 142.379 37.0819C142.906 37.2606 143.334 37.4911 143.663 37.7734C143.936 37.9898 144.072 38.2391 144.072 38.5214C144.072 38.7284 143.992 38.9166 143.832 39.0859C143.672 39.2553 143.484 39.3399 143.268 39.3399C143.127 39.3399 143 39.2976 142.887 39.2129C142.736 39.0812 142.534 38.9589 142.28 38.846C142.026 38.7237 141.758 38.6249 141.476 38.5496C141.193 38.4649 140.93 38.4226 140.685 38.4226C140.281 38.4226 139.937 38.4743 139.655 38.5778C139.382 38.6813 139.175 38.8225 139.034 39.0012C138.893 39.18 138.822 39.387 138.822 39.6222C138.822 39.9045 138.902 40.1397 139.062 40.3279C139.232 40.5066 139.471 40.6525 139.782 40.7654C140.092 40.8689 140.464 40.963 140.897 41.0476C141.461 41.1511 141.955 41.2734 142.379 41.4146C142.812 41.5557 143.169 41.7392 143.451 41.965C143.734 42.1814 143.945 42.4589 144.086 42.7977C144.228 43.127 144.298 43.5315 144.298 44.0114C144.298 44.6229 144.129 45.1498 143.79 45.592C143.451 46.0343 143.004 46.373 142.449 46.6082C141.904 46.8434 141.311 46.961 140.671 46.961ZM149.261 46.8199C148.998 46.8199 148.782 46.7399 148.612 46.58C148.443 46.4106 148.358 46.2036 148.358 45.959V37.7734H150.193V45.959C150.193 46.2036 150.104 46.4106 149.925 46.58C149.755 46.7399 149.534 46.8199 149.261 46.8199ZM146.142 38.5637C145.898 38.5637 145.691 38.4885 145.521 38.3379C145.362 38.1874 145.282 37.9898 145.282 37.7452C145.282 37.5005 145.362 37.3077 145.521 37.1665C145.691 37.016 145.898 36.9407 146.142 36.9407H152.409C152.653 36.9407 152.856 37.016 153.016 37.1665C153.185 37.3171 153.27 37.5147 153.27 37.7593C153.27 38.0039 153.185 38.2015 153.016 38.352C152.856 38.4932 152.653 38.5637 152.409 38.5637H146.142ZM163.564 41.8803C163.564 42.586 163.447 43.2446 163.211 43.8561C162.976 44.4677 162.642 45.0087 162.209 45.4791C161.786 45.9402 161.278 46.3024 160.685 46.5658C160.102 46.8293 159.462 46.961 158.766 46.961C158.07 46.961 157.43 46.8293 156.846 46.5658C156.263 46.3024 155.755 45.9402 155.322 45.4791C154.899 45.0087 154.57 44.4677 154.334 43.8561C154.099 43.2446 153.982 42.586 153.982 41.8803C153.982 41.1747 154.099 40.516 154.334 39.9045C154.57 39.2929 154.899 38.7566 155.322 38.2956C155.755 37.8251 156.263 37.4582 156.846 37.1948C157.43 36.9313 158.07 36.7996 158.766 36.7996C159.462 36.7996 160.102 36.9313 160.685 37.1948C161.278 37.4582 161.786 37.8251 162.209 38.2956C162.642 38.7566 162.976 39.2929 163.211 39.9045C163.447 40.516 163.564 41.1747 163.564 41.8803ZM161.73 41.8803C161.73 41.2499 161.603 40.6807 161.349 40.1726C161.094 39.6551 160.746 39.2459 160.304 38.9448C159.862 38.6437 159.349 38.4932 158.766 38.4932C158.182 38.4932 157.67 38.6437 157.228 38.9448C156.785 39.2459 156.437 39.6504 156.183 40.1585C155.939 40.6666 155.816 41.2405 155.816 41.8803C155.816 42.5107 155.939 43.0846 156.183 43.6021C156.437 44.1102 156.785 44.5147 157.228 44.8158C157.67 45.1169 158.182 45.2674 158.766 45.2674C159.349 45.2674 159.862 45.1169 160.304 44.8158C160.746 44.5147 161.094 44.1102 161.349 43.6021C161.603 43.0846 161.73 42.5107 161.73 41.8803ZM172.1 37.4206C172.344 37.5429 172.485 37.7358 172.523 37.9992C172.57 38.2627 172.504 38.5026 172.326 38.719C172.203 38.8883 172.043 38.9824 171.846 39.0012C171.658 39.0201 171.465 38.9824 171.267 38.8883C171.041 38.7848 170.801 38.7049 170.547 38.6484C170.303 38.592 170.044 38.5637 169.771 38.5637C169.263 38.5637 168.807 38.6437 168.402 38.8037C168.007 38.9636 167.668 39.1941 167.386 39.4952C167.104 39.7869 166.887 40.135 166.737 40.5396C166.596 40.9441 166.525 41.3911 166.525 41.8803C166.525 42.4542 166.605 42.9529 166.765 43.3763C166.934 43.7997 167.165 44.1525 167.457 44.4348C167.748 44.717 168.092 44.9287 168.487 45.0699C168.882 45.2016 169.31 45.2674 169.771 45.2674C170.025 45.2674 170.279 45.2439 170.533 45.1969C170.787 45.1498 171.032 45.0652 171.267 44.9428C171.465 44.8488 171.658 44.8158 171.846 44.8441C172.043 44.8723 172.208 44.9711 172.34 45.1404C172.528 45.3756 172.594 45.6203 172.537 45.8743C172.49 46.1189 172.349 46.2977 172.114 46.4106C171.869 46.5329 171.615 46.6364 171.352 46.7211C171.098 46.7964 170.839 46.8528 170.576 46.8905C170.312 46.9375 170.044 46.961 169.771 46.961C169.094 46.961 168.449 46.8528 167.838 46.6364C167.235 46.42 166.694 46.1001 166.215 45.6767C165.744 45.2533 165.372 44.7264 165.1 44.0961C164.827 43.4563 164.69 42.7177 164.69 41.8803C164.69 41.1558 164.813 40.4878 165.057 39.8762C165.311 39.2647 165.664 38.7378 166.116 38.2956C166.577 37.844 167.118 37.4958 167.739 37.2512C168.36 36.9972 169.037 36.8702 169.771 36.8702C170.185 36.8702 170.59 36.9172 170.985 37.0113C171.38 37.1054 171.752 37.2418 172.1 37.4206ZM180.835 46.8199C180.572 46.8199 180.36 46.7117 180.2 46.4953L176.94 42.2049L178.224 40.8924L181.597 45.3521C181.729 45.5309 181.795 45.7238 181.795 45.9308C181.795 46.1942 181.696 46.4106 181.498 46.58C181.301 46.7399 181.08 46.8199 180.835 46.8199ZM181.004 36.8702C181.23 36.8702 181.414 36.9642 181.555 37.1524C181.705 37.3312 181.781 37.5147 181.781 37.7028C181.781 37.9004 181.696 38.0839 181.527 38.2532L175.613 43.9126L175.543 41.8944L180.313 37.1948C180.529 36.9784 180.76 36.8702 181.004 36.8702ZM174.908 46.8199C174.644 46.8199 174.432 46.7399 174.272 46.58C174.113 46.4106 174.033 46.2036 174.033 45.959V37.8016C174.033 37.557 174.117 37.3547 174.287 37.1948C174.456 37.0254 174.672 36.9407 174.936 36.9407C175.199 36.9407 175.406 37.0254 175.557 37.1948C175.717 37.3547 175.797 37.557 175.797 37.8016V45.959C175.797 46.2036 175.717 46.4106 175.557 46.58C175.397 46.7399 175.18 46.8199 174.908 46.8199ZM184.184 36.9407C184.41 36.9407 184.607 37.0254 184.776 37.1948C184.955 37.3547 185.045 37.557 185.045 37.8016V45.959C185.045 46.2036 184.955 46.4106 184.776 46.58C184.598 46.7399 184.391 46.8199 184.156 46.8199C183.892 46.8199 183.68 46.7399 183.52 46.58C183.36 46.4106 183.28 46.2036 183.28 45.959V37.8016C183.28 37.557 183.365 37.3547 183.535 37.1948C183.704 37.0254 183.92 36.9407 184.184 36.9407ZM190.436 36.9407C190.699 36.9407 190.911 37.0254 191.071 37.1948C191.231 37.3547 191.311 37.557 191.311 37.8016V45.959C191.311 46.2036 191.226 46.4106 191.057 46.58C190.897 46.7399 190.68 46.8199 190.408 46.8199C190.182 46.8199 189.98 46.7399 189.801 46.58C189.631 46.4106 189.547 46.2036 189.547 45.959V37.8016C189.547 37.557 189.636 37.3547 189.815 37.1948C189.994 37.0254 190.201 36.9407 190.436 36.9407ZM184.141 41.0476H190.436V42.6706H184.141V41.0476ZM202.513 41.8803C202.513 42.586 202.395 43.2446 202.16 43.8561C201.925 44.4677 201.591 45.0087 201.158 45.4791C200.735 45.9402 200.227 46.3024 199.634 46.5658C199.051 46.8293 198.411 46.961 197.715 46.961C197.018 46.961 196.379 46.8293 195.795 46.5658C195.212 46.3024 194.704 45.9402 194.271 45.4791C193.848 45.0087 193.518 44.4677 193.283 43.8561C193.048 43.2446 192.93 42.586 192.93 41.8803C192.93 41.1747 193.048 40.516 193.283 39.9045C193.518 39.2929 193.848 38.7566 194.271 38.2956C194.704 37.8251 195.212 37.4582 195.795 37.1948C196.379 36.9313 197.018 36.7996 197.715 36.7996C198.411 36.7996 199.051 36.9313 199.634 37.1948C200.227 37.4582 200.735 37.8251 201.158 38.2956C201.591 38.7566 201.925 39.2929 202.16 39.9045C202.395 40.516 202.513 41.1747 202.513 41.8803ZM200.678 41.8803C200.678 41.2499 200.551 40.6807 200.297 40.1726C200.043 39.6551 199.695 39.2459 199.253 38.9448C198.811 38.6437 198.298 38.4932 197.715 38.4932C197.131 38.4932 196.619 38.6437 196.176 38.9448C195.734 39.2459 195.386 39.6504 195.132 40.1585C194.887 40.6666 194.765 41.2405 194.765 41.8803C194.765 42.5107 194.887 43.0846 195.132 43.6021C195.386 44.1102 195.734 44.5147 196.176 44.8158C196.619 45.1169 197.131 45.2674 197.715 45.2674C198.298 45.2674 198.811 45.1169 199.253 44.8158C199.695 44.5147 200.043 44.1102 200.297 43.6021C200.551 43.0846 200.678 42.5107 200.678 41.8803ZM209.581 45.1687C209.825 45.1687 210.028 45.2486 210.188 45.4086C210.357 45.5591 210.442 45.7567 210.442 46.0013C210.442 46.2365 210.357 46.4341 210.188 46.5941C210.028 46.7446 209.825 46.8199 209.581 46.8199H204.994C204.749 46.8199 204.542 46.7399 204.373 46.58C204.213 46.4106 204.133 46.2036 204.133 45.959V37.8016C204.133 37.557 204.218 37.3547 204.387 37.1948C204.557 37.0254 204.773 36.9407 205.036 36.9407C205.262 36.9407 205.46 37.0254 205.629 37.1948C205.808 37.3547 205.897 37.557 205.897 37.8016V45.4086L205.587 45.1687H209.581ZM212.947 36.9266C213.079 36.9266 213.215 36.9642 213.356 37.0395C213.507 37.1054 213.62 37.1948 213.695 37.3077L217.125 42.586L216.419 42.5577L219.933 37.3077C220.112 37.0536 220.342 36.9266 220.625 36.9266C220.85 36.9266 221.053 37.0066 221.231 37.1665C221.41 37.3265 221.5 37.5335 221.5 37.7875V45.959C221.5 46.2036 221.42 46.4106 221.26 46.58C221.1 46.7399 220.888 46.8199 220.625 46.8199C220.361 46.8199 220.145 46.7399 219.975 46.58C219.815 46.4106 219.735 46.2036 219.735 45.959V39.3117L220.286 39.4387L217.407 43.8279C217.322 43.9314 217.214 44.0208 217.082 44.0961C216.96 44.1713 216.833 44.2043 216.701 44.1949C216.579 44.2043 216.452 44.1713 216.32 44.0961C216.198 44.0208 216.094 43.9314 216.01 43.8279L213.314 39.5658L213.681 38.8178V45.959C213.681 46.2036 213.606 46.4106 213.455 46.58C213.305 46.7399 213.107 46.8199 212.862 46.8199C212.627 46.8199 212.434 46.7399 212.284 46.58C212.133 46.4106 212.058 46.2036 212.058 45.959V37.7875C212.058 37.5523 212.143 37.35 212.312 37.1806C212.491 37.0113 212.702 36.9266 212.947 36.9266Z" fill="#E37869"/>
    <path d="M256.824 86.5551C256.955 86.5551 257.092 86.5927 257.233 86.668C257.383 86.7339 257.496 86.8232 257.572 86.9361L261.001 92.2144L260.295 92.1862L263.81 86.9361C263.988 86.6821 264.219 86.5551 264.501 86.5551C264.727 86.5551 264.929 86.6351 265.108 86.795C265.287 86.955 265.376 87.162 265.376 87.416V95.5875C265.376 95.8321 265.296 96.0391 265.136 96.2084C264.976 96.3684 264.765 96.4484 264.501 96.4484C264.238 96.4484 264.021 96.3684 263.852 96.2084C263.692 96.0391 263.612 95.8321 263.612 95.5875V88.9402L264.162 89.0672L261.283 93.4564C261.199 93.5599 261.09 93.6493 260.959 93.7245C260.836 93.7998 260.709 93.8327 260.578 93.8233C260.455 93.8327 260.328 93.7998 260.197 93.7245C260.074 93.6493 259.971 93.5599 259.886 93.4564L257.191 89.1942L257.557 88.4462V95.5875C257.557 95.8321 257.482 96.0391 257.332 96.2084C257.181 96.3684 256.984 96.4484 256.739 96.4484C256.504 96.4484 256.311 96.3684 256.16 96.2084C256.01 96.0391 255.934 95.8321 255.934 95.5875V87.416C255.934 87.1808 256.019 86.9785 256.189 86.8091C256.367 86.6398 256.579 86.5551 256.824 86.5551ZM276.587 91.5088C276.587 92.2144 276.469 92.873 276.234 93.4846C275.999 94.0962 275.665 94.6372 275.232 95.1076C274.808 95.5686 274.3 95.9309 273.708 96.1943C273.124 96.4578 272.484 96.5895 271.788 96.5895C271.092 96.5895 270.452 96.4578 269.869 96.1943C269.285 95.9309 268.777 95.5686 268.345 95.1076C267.921 94.6372 267.592 94.0962 267.357 93.4846C267.121 92.873 267.004 92.2144 267.004 91.5088C267.004 90.8031 267.121 90.1445 267.357 89.533C267.592 88.9214 267.921 88.3851 268.345 87.9241C268.777 87.4536 269.285 87.0867 269.869 86.8232C270.452 86.5598 271.092 86.4281 271.788 86.4281C272.484 86.4281 273.124 86.5598 273.708 86.8232C274.3 87.0867 274.808 87.4536 275.232 87.9241C275.665 88.3851 275.999 88.9214 276.234 89.533C276.469 90.1445 276.587 90.8031 276.587 91.5088ZM274.752 91.5088C274.752 90.8784 274.625 90.3092 274.371 89.8011C274.117 89.2836 273.769 88.8743 273.327 88.5733C272.884 88.2722 272.372 88.1216 271.788 88.1216C271.205 88.1216 270.692 88.2722 270.25 88.5733C269.808 88.8743 269.46 89.2789 269.206 89.787C268.961 90.2951 268.839 90.869 268.839 91.5088C268.839 92.1392 268.961 92.7131 269.206 93.2306C269.46 93.7387 269.808 94.1432 270.25 94.4443C270.692 94.7454 271.205 94.8959 271.788 94.8959C272.372 94.8959 272.884 94.7454 273.327 94.4443C273.769 94.1432 274.117 93.7387 274.371 93.2306C274.625 92.7131 274.752 92.1392 274.752 91.5088ZM281.382 96.5895C280.724 96.5895 280.131 96.5095 279.604 96.3496C279.077 96.1802 278.574 95.8885 278.094 95.4746C277.971 95.3711 277.877 95.2535 277.812 95.1217C277.746 94.99 277.713 94.8583 277.713 94.7266C277.713 94.5102 277.788 94.322 277.939 94.162C278.098 93.9927 278.296 93.908 278.531 93.908C278.71 93.908 278.87 93.9645 279.011 94.0774C279.369 94.369 279.721 94.5901 280.07 94.7407C280.427 94.8912 280.865 94.9665 281.382 94.9665C281.73 94.9665 282.05 94.9147 282.342 94.8112C282.633 94.6983 282.869 94.5525 283.047 94.3737C283.226 94.1856 283.316 93.9739 283.316 93.7387C283.316 93.4564 283.231 93.2165 283.062 93.0189C282.892 92.8213 282.633 92.6566 282.285 92.5249C281.937 92.3838 281.495 92.2756 280.959 92.2003C280.451 92.1251 280.004 92.0122 279.618 91.8616C279.232 91.7017 278.908 91.5041 278.644 91.2689C278.39 91.0242 278.197 90.742 278.066 90.4221C277.934 90.0928 277.868 89.7258 277.868 89.3213C277.868 88.7097 278.023 88.1875 278.334 87.7547C278.654 87.3219 279.082 86.9926 279.618 86.7668C280.154 86.541 280.747 86.4281 281.396 86.4281C282.008 86.4281 282.572 86.5222 283.09 86.7103C283.617 86.8891 284.045 87.1196 284.374 87.4019C284.647 87.6183 284.783 87.8676 284.783 88.1499C284.783 88.3569 284.703 88.545 284.543 88.7144C284.384 88.8837 284.195 88.9684 283.979 88.9684C283.838 88.9684 283.711 88.9261 283.598 88.8414C283.447 88.7097 283.245 88.5874 282.991 88.4745C282.737 88.3522 282.469 88.2534 282.187 88.1781C281.904 88.0934 281.641 88.0511 281.396 88.0511C280.992 88.0511 280.648 88.1028 280.366 88.2063C280.093 88.3098 279.886 88.4509 279.745 88.6297C279.604 88.8085 279.533 89.0155 279.533 89.2507C279.533 89.533 279.613 89.7682 279.773 89.9563C279.943 90.1351 280.183 90.2809 280.493 90.3939C280.803 90.4973 281.175 90.5914 281.608 90.6761C282.172 90.7796 282.666 90.9019 283.09 91.0431C283.523 91.1842 283.88 91.3677 284.162 91.5935C284.445 91.8099 284.656 92.0874 284.797 92.4261C284.939 92.7554 285.009 93.16 285.009 93.6399C285.009 94.2514 284.84 94.7783 284.501 95.2205C284.162 95.6627 283.715 96.0014 283.16 96.2367C282.615 96.4719 282.022 96.5895 281.382 96.5895ZM293.543 87.049C293.788 87.1714 293.929 87.3642 293.966 87.6277C294.014 87.8911 293.948 88.1311 293.769 88.3475C293.647 88.5168 293.487 88.6109 293.289 88.6297C293.101 88.6485 292.908 88.6109 292.71 88.5168C292.485 88.4133 292.245 88.3333 291.991 88.2769C291.746 88.2204 291.487 88.1922 291.214 88.1922C290.706 88.1922 290.25 88.2722 289.845 88.4321C289.45 88.5921 289.112 88.8226 288.829 89.1237C288.547 89.4153 288.331 89.7635 288.18 90.168C288.039 90.5726 287.968 91.0195 287.968 91.5088C287.968 92.0827 288.048 92.5814 288.208 93.0048C288.378 93.4282 288.608 93.781 288.9 94.0633C289.192 94.3455 289.535 94.5572 289.93 94.6983C290.325 94.8301 290.753 94.8959 291.214 94.8959C291.468 94.8959 291.722 94.8724 291.977 94.8254C292.231 94.7783 292.475 94.6936 292.71 94.5713C292.908 94.4772 293.101 94.4443 293.289 94.4725C293.487 94.5008 293.651 94.5995 293.783 94.7689C293.971 95.0041 294.037 95.2488 293.981 95.5028C293.934 95.7474 293.792 95.9262 293.557 96.0391C293.313 96.1614 293.059 96.2649 292.795 96.3496C292.541 96.4248 292.282 96.4813 292.019 96.5189C291.755 96.566 291.487 96.5895 291.214 96.5895C290.537 96.5895 289.892 96.4813 289.281 96.2649C288.679 96.0485 288.138 95.7286 287.658 95.3052C287.187 94.8818 286.816 94.3549 286.543 93.7245C286.27 93.0847 286.134 92.3462 286.134 91.5088C286.134 90.7843 286.256 90.1163 286.501 89.5047C286.755 88.8932 287.108 88.3663 287.559 87.9241C288.02 87.4724 288.561 87.1243 289.182 86.8797C289.803 86.6257 290.481 86.4986 291.214 86.4986C291.628 86.4986 292.033 86.5457 292.428 86.6398C292.823 86.7339 293.195 86.8703 293.543 87.049ZM304.565 91.5088C304.565 92.2144 304.447 92.873 304.212 93.4846C303.977 94.0962 303.643 94.6372 303.21 95.1076C302.786 95.5686 302.278 95.9309 301.686 96.1943C301.102 96.4578 300.463 96.5895 299.766 96.5895C299.07 96.5895 298.43 96.4578 297.847 96.1943C297.264 95.9309 296.755 95.5686 296.323 95.1076C295.899 94.6372 295.57 94.0962 295.335 93.4846C295.1 92.873 294.982 92.2144 294.982 91.5088C294.982 90.8031 295.1 90.1445 295.335 89.533C295.57 88.9214 295.899 88.3851 296.323 87.9241C296.755 87.4536 297.264 87.0867 297.847 86.8232C298.43 86.5598 299.07 86.4281 299.766 86.4281C300.463 86.4281 301.102 86.5598 301.686 86.8232C302.278 87.0867 302.786 87.4536 303.21 87.9241C303.643 88.3851 303.977 88.9214 304.212 89.533C304.447 90.1445 304.565 90.8031 304.565 91.5088ZM302.73 91.5088C302.73 90.8784 302.603 90.3092 302.349 89.8011C302.095 89.2836 301.747 88.8743 301.305 88.5733C300.862 88.2722 300.35 88.1216 299.766 88.1216C299.183 88.1216 298.67 88.2722 298.228 88.5733C297.786 88.8743 297.438 89.2789 297.184 89.787C296.939 90.2951 296.817 90.869 296.817 91.5088C296.817 92.1392 296.939 92.7131 297.184 93.2306C297.438 93.7387 297.786 94.1432 298.228 94.4443C298.67 94.7454 299.183 94.8959 299.766 94.8959C300.35 94.8959 300.862 94.7454 301.305 94.4443C301.747 94.1432 302.095 93.7387 302.349 93.2306C302.603 92.7131 302.73 92.1392 302.73 91.5088ZM317.223 86.5269C317.439 86.5269 317.646 86.6115 317.844 86.7809C318.041 86.9408 318.14 87.162 318.14 87.4442C318.14 87.5289 318.126 87.623 318.098 87.7265L315.318 95.9121C315.261 96.0814 315.158 96.2131 315.007 96.3072C314.866 96.3919 314.715 96.439 314.555 96.4484C314.396 96.4484 314.236 96.4013 314.076 96.3072C313.925 96.2131 313.807 96.0767 313.723 95.898L311.634 91.156L311.761 91.2406L309.701 95.898C309.616 96.0767 309.494 96.2131 309.334 96.3072C309.183 96.4013 309.028 96.4484 308.868 96.4484C308.717 96.439 308.567 96.3919 308.416 96.3072C308.266 96.2131 308.162 96.0814 308.106 95.9121L305.326 87.7265C305.297 87.623 305.283 87.5289 305.283 87.4442C305.283 87.162 305.382 86.9408 305.58 86.7809C305.787 86.6115 305.998 86.5269 306.215 86.5269C306.393 86.5269 306.558 86.5739 306.709 86.668C306.869 86.7621 306.977 86.8985 307.033 87.0773L309.277 93.8798L308.967 93.8657L310.971 89.0531C311.046 88.8837 311.154 88.752 311.295 88.6579C311.436 88.5544 311.596 88.5074 311.775 88.5168C311.954 88.5074 312.114 88.5544 312.255 88.6579C312.396 88.752 312.5 88.8837 312.566 89.0531L314.4 93.654L314.174 93.7951L316.39 87.0773C316.447 86.8985 316.555 86.7621 316.715 86.668C316.875 86.5739 317.044 86.5269 317.223 86.5269Z" fill="#E37869"/>
    <path d="M263.35 201.436C263.35 201.68 263.26 201.887 263.082 202.057C262.903 202.217 262.696 202.297 262.461 202.297C262.197 202.297 261.986 202.217 261.826 202.057C261.666 201.887 261.586 201.68 261.586 201.436V193.278C261.586 193.034 261.67 192.831 261.84 192.671C262.009 192.502 262.225 192.417 262.489 192.417C262.715 192.417 262.912 192.502 263.082 192.671C263.26 192.831 263.35 193.034 263.35 193.278V201.436ZM268.648 202.438C267.989 202.438 267.396 202.358 266.869 202.198C266.343 202.028 265.839 201.737 265.359 201.323C265.237 201.219 265.143 201.102 265.077 200.97C265.011 200.838 264.978 200.706 264.978 200.575C264.978 200.358 265.054 200.17 265.204 200.01C265.364 199.841 265.562 199.756 265.797 199.756C265.976 199.756 266.136 199.813 266.277 199.926C266.634 200.217 266.987 200.438 267.335 200.589C267.693 200.739 268.13 200.815 268.648 200.815C268.996 200.815 269.316 200.763 269.607 200.659C269.899 200.546 270.134 200.401 270.313 200.222C270.492 200.034 270.581 199.822 270.581 199.587C270.581 199.305 270.497 199.065 270.327 198.867C270.158 198.669 269.899 198.505 269.551 198.373C269.203 198.232 268.761 198.124 268.224 198.048C267.716 197.973 267.269 197.86 266.884 197.71C266.498 197.55 266.173 197.352 265.91 197.117C265.656 196.872 265.463 196.59 265.331 196.27C265.199 195.941 265.134 195.574 265.134 195.169C265.134 194.558 265.289 194.036 265.599 193.603C265.919 193.17 266.347 192.841 266.884 192.615C267.42 192.389 268.013 192.276 268.662 192.276C269.273 192.276 269.838 192.37 270.355 192.558C270.882 192.737 271.31 192.968 271.64 193.25C271.913 193.466 272.049 193.716 272.049 193.998C272.049 194.205 271.969 194.393 271.809 194.563C271.649 194.732 271.461 194.817 271.245 194.817C271.103 194.817 270.976 194.774 270.863 194.69C270.713 194.558 270.511 194.436 270.257 194.323C270.003 194.2 269.734 194.102 269.452 194.026C269.17 193.942 268.906 193.899 268.662 193.899C268.257 193.899 267.914 193.951 267.632 194.054C267.359 194.158 267.152 194.299 267.011 194.478C266.869 194.657 266.799 194.864 266.799 195.099C266.799 195.381 266.879 195.616 267.039 195.804C267.208 195.983 267.448 196.129 267.759 196.242C268.069 196.345 268.441 196.44 268.874 196.524C269.438 196.628 269.932 196.75 270.355 196.891C270.788 197.032 271.146 197.216 271.428 197.442C271.71 197.658 271.922 197.936 272.063 198.274C272.204 198.604 272.275 199.008 272.275 199.488C272.275 200.1 272.105 200.626 271.767 201.069C271.428 201.511 270.981 201.85 270.426 202.085C269.88 202.32 269.287 202.438 268.648 202.438ZM277.238 202.297C276.975 202.297 276.758 202.217 276.589 202.057C276.419 201.887 276.335 201.68 276.335 201.436V193.25H278.17V201.436C278.17 201.68 278.08 201.887 277.901 202.057C277.732 202.217 277.511 202.297 277.238 202.297ZM274.119 194.04C273.874 194.04 273.667 193.965 273.498 193.815C273.338 193.664 273.258 193.466 273.258 193.222C273.258 192.977 273.338 192.784 273.498 192.643C273.667 192.493 273.874 192.417 274.119 192.417H280.385C280.63 192.417 280.832 192.493 280.992 192.643C281.161 192.794 281.246 192.991 281.246 193.236C281.246 193.481 281.161 193.678 280.992 193.829C280.832 193.97 280.63 194.04 280.385 194.04H274.119ZM285.652 194.633L282.603 201.803C282.538 201.981 282.434 202.122 282.293 202.226C282.161 202.32 282.015 202.367 281.855 202.367C281.601 202.367 281.413 202.297 281.291 202.155C281.169 202.014 281.107 201.84 281.107 201.633C281.107 201.549 281.122 201.459 281.15 201.365L284.664 192.925C284.739 192.737 284.852 192.591 285.003 192.488C285.163 192.384 285.332 192.342 285.511 192.361C285.68 192.361 285.835 192.413 285.976 192.516C286.127 192.61 286.235 192.747 286.301 192.925L289.773 201.196C289.82 201.318 289.843 201.431 289.843 201.534C289.843 201.788 289.759 201.991 289.589 202.141C289.429 202.292 289.251 202.367 289.053 202.367C288.884 202.367 288.729 202.315 288.587 202.212C288.456 202.108 288.352 201.967 288.277 201.788L285.243 194.718L285.652 194.633ZM283.041 200.081L283.817 198.458H287.628L287.896 200.081H283.041ZM298.532 192.417C298.758 192.417 298.942 192.493 299.083 192.643C299.224 192.794 299.295 192.982 299.295 193.208V201.436C299.295 201.68 299.21 201.887 299.041 202.057C298.881 202.217 298.678 202.297 298.434 202.297C298.311 202.297 298.184 202.278 298.053 202.24C297.93 202.193 297.836 202.132 297.77 202.057L292.224 195.014L292.591 194.788V201.506C292.591 201.732 292.516 201.92 292.365 202.071C292.224 202.221 292.036 202.297 291.801 202.297C291.575 202.297 291.391 202.221 291.25 202.071C291.109 201.92 291.038 201.732 291.038 201.506V193.278C291.038 193.034 291.118 192.831 291.278 192.671C291.448 192.502 291.655 192.417 291.899 192.417C292.031 192.417 292.167 192.446 292.309 192.502C292.45 192.549 292.553 192.624 292.619 192.728L297.996 199.587L297.756 199.756V193.208C297.756 192.982 297.827 192.794 297.968 192.643C298.109 192.493 298.297 192.417 298.532 192.417ZM305.834 192.417C306.737 192.417 307.41 192.629 307.852 193.052C308.294 193.476 308.515 194.102 308.515 194.929C308.515 195.372 308.407 195.762 308.191 196.101C307.974 196.43 307.655 196.689 307.231 196.877C306.808 197.056 306.286 197.145 305.665 197.145L305.721 196.51C306.013 196.51 306.347 196.552 306.723 196.637C307.099 196.712 307.462 196.854 307.81 197.061C308.167 197.258 308.459 197.54 308.685 197.907C308.92 198.265 309.038 198.726 309.038 199.29C309.038 199.911 308.934 200.419 308.727 200.815C308.53 201.21 308.266 201.516 307.937 201.732C307.607 201.948 307.255 202.099 306.878 202.184C306.502 202.259 306.14 202.297 305.792 202.297H302.277C302.033 202.297 301.826 202.217 301.656 202.057C301.496 201.887 301.417 201.68 301.417 201.436V193.278C301.417 193.034 301.496 192.831 301.656 192.671C301.826 192.502 302.033 192.417 302.277 192.417H305.834ZM305.58 194.083H303.068L303.251 193.857V196.411L303.082 196.284H305.622C305.895 196.284 306.14 196.195 306.356 196.016C306.573 195.837 306.681 195.579 306.681 195.24C306.681 194.835 306.577 194.544 306.37 194.365C306.173 194.177 305.909 194.083 305.58 194.083ZM305.693 197.95H303.124L303.251 197.837V200.815L303.11 200.674H305.792C306.224 200.674 306.568 200.561 306.822 200.335C307.076 200.1 307.203 199.751 307.203 199.29C307.203 198.867 307.118 198.561 306.949 198.373C306.779 198.185 306.577 198.067 306.342 198.02C306.107 197.973 305.89 197.95 305.693 197.95ZM317.679 192.403C317.923 192.403 318.121 192.488 318.271 192.657C318.422 192.817 318.497 193.02 318.497 193.264V198.373C318.497 199.154 318.328 199.846 317.989 200.448C317.66 201.05 317.204 201.52 316.62 201.859C316.037 202.198 315.359 202.367 314.588 202.367C313.816 202.367 313.134 202.198 312.541 201.859C311.958 201.52 311.497 201.05 311.158 200.448C310.829 199.846 310.664 199.154 310.664 198.373V193.264C310.664 193.02 310.749 192.817 310.918 192.657C311.088 192.488 311.304 192.403 311.568 192.403C311.784 192.403 311.977 192.488 312.146 192.657C312.325 192.817 312.414 193.02 312.414 193.264V198.373C312.414 198.844 312.513 199.253 312.711 199.601C312.918 199.94 313.186 200.203 313.515 200.391C313.854 200.579 314.212 200.674 314.588 200.674C314.992 200.674 315.369 200.579 315.717 200.391C316.065 200.203 316.347 199.94 316.564 199.601C316.78 199.253 316.888 198.844 316.888 198.373V193.264C316.888 193.02 316.959 192.817 317.1 192.657C317.241 192.488 317.434 192.403 317.679 192.403ZM326.063 200.645C326.308 200.645 326.51 200.725 326.67 200.885C326.839 201.036 326.924 201.233 326.924 201.478C326.924 201.713 326.839 201.911 326.67 202.071C326.51 202.221 326.308 202.297 326.063 202.297H321.476C321.232 202.297 321.025 202.217 320.855 202.057C320.695 201.887 320.615 201.68 320.615 201.436V193.278C320.615 193.034 320.7 192.831 320.869 192.671C321.039 192.502 321.255 192.417 321.519 192.417C321.744 192.417 321.942 192.502 322.111 192.671C322.29 192.831 322.379 193.034 322.379 193.278V200.885L322.069 200.645H326.063Z" fill="#E37869"/>
</svg>