<svg width="334" height="206" viewBox="0 0 334 206" fill="none" xmlns="http://www.w3.org/2000/svg">
    <path d="M219.737 34.7548V48.1615C219.737 54.4687 214.63 59.5818 208.331 59.5818H199.404C193.105 59.5818 187.998 54.4688 187.998 48.1615V18.3689C187.998 12.0616 182.891 6.94849 176.591 6.94849H16.4063C10.1068 6.94849 5 12.0616 5 18.3689V54.6163C5 60.9236 10.1068 66.0367 16.4063 66.0367H52.6092C58.9087 66.0367 64.0155 71.1497 64.0155 77.457V96.9878H63.8505V160.379C63.8505 166.687 68.9573 171.8 75.2568 171.8H141.876C148.176 171.8 153.283 176.913 153.283 183.22V190.171C153.283 196.478 158.389 201.591 164.689 201.591H190.974C197.273 201.591 202.38 196.478 202.38 190.171V183.22C202.38 176.913 207.487 171.8 213.786 171.8C220.086 171.8 225.193 166.687 225.193 160.379V145.979C225.193 139.672 230.299 134.559 236.599 134.559H265.859C272.158 134.559 277.265 129.446 277.265 123.138V34.7548C277.265 28.4475 272.158 23.3344 265.859 23.3344H231.144C224.844 23.3344 219.737 28.4475 219.737 34.7548Z" fill="#D2CFC6" stroke="#EDEBDC" stroke-width="8.82068" stroke-linejoin="round"/>
    <rect x="26.4638" y="80.3341" width="68.8013" height="29.9903" rx="4.41034" fill="white" stroke="#EDEBDC" stroke-width="2.94023"/>
    <rect x="39.4008" y="119.733" width="45.2795" height="29.9903" rx="4.41034" fill="white" stroke="#EDEBDC" stroke-width="2.94023"/>
    <rect x="39.4008" y="158.544" width="45.2795" height="29.9903" rx="4.41034" fill="white" stroke="#EDEBDC" stroke-width="2.94023"/>
    <rect x="102.322" y="158.544" width="46.4556" height="29.9903" rx="4.41034" fill="white" stroke="#EDEBDC" stroke-width="2.94023"/>
    <rect x="233.456" y="94.4472" width="87.6188" height="29.9903" rx="4.41034" fill="white" stroke="#EDEBDC" stroke-width="2.94023"/>
    <rect x="109.967" y="39.759" width="77.0339" height="29.9903" rx="4.41034" fill="white" stroke="#EDEBDC" stroke-width="2.94023"/>
    <rect x="206.994" y="39.759" width="81.7383" height="29.9903" rx="4.41034" fill="white" stroke="#EDEBDC" stroke-width="2.94023"/>
    <rect x="242.865" y="1.53603" width="88.7948" height="29.9903" rx="4.41034" fill="white" stroke="#EDEBDC" stroke-width="2.94023"/>
    <path d="M36.3309 100.65C35.6723 100.65 35.0796 100.57 34.5527 100.41C34.0258 100.24 33.5224 99.9488 33.0426 99.5348C32.9203 99.4313 32.8262 99.3137 32.7603 99.182C32.6945 99.0503 32.6615 98.9185 32.6615 98.7868C32.6615 98.5704 32.7368 98.3822 32.8873 98.2223C33.0473 98.0529 33.2449 97.9683 33.4801 97.9683C33.6589 97.9683 33.8188 98.0247 33.9599 98.1376C34.3175 98.4293 34.6703 98.6504 35.0184 98.8009C35.3759 98.9515 35.8135 99.0267 36.3309 99.0267C36.6791 99.0267 36.999 98.975 37.2906 98.8715C37.5823 98.7586 37.8175 98.6127 37.9963 98.434C38.175 98.2458 38.2644 98.0341 38.2644 97.7989C38.2644 97.5166 38.1797 97.2767 38.0104 97.0791C37.841 96.8815 37.5823 96.7169 37.2342 96.5852C36.886 96.444 36.4438 96.3358 35.9075 96.2606C35.3995 96.1853 34.9526 96.0724 34.5668 95.9219C34.181 95.7619 33.8564 95.5643 33.593 95.3291C33.339 95.0845 33.1461 94.8022 33.0144 94.4823C32.8826 94.153 32.8168 93.7861 32.8168 93.3815C32.8168 92.7699 32.972 92.2477 33.2825 91.8149C33.6024 91.3821 34.0305 91.0528 34.5668 90.827C35.1031 90.6012 35.6958 90.4883 36.345 90.4883C36.9566 90.4883 37.5211 90.5824 38.0386 90.7706C38.5655 90.9493 38.9936 91.1799 39.3229 91.4621C39.5958 91.6785 39.7322 91.9278 39.7322 92.2101C39.7322 92.4171 39.6522 92.6053 39.4923 92.7746C39.3323 92.944 39.1441 93.0287 38.9277 93.0287C38.7866 93.0287 38.6596 92.9863 38.5467 92.9017C38.3961 92.7699 38.1939 92.6476 37.9398 92.5347C37.6858 92.4124 37.4176 92.3136 37.1354 92.2383C36.8531 92.1537 36.5897 92.1113 36.345 92.1113C35.9405 92.1113 35.5971 92.1631 35.3148 92.2666C35.0419 92.3701 34.8349 92.5112 34.6938 92.69C34.5527 92.8687 34.4821 93.0757 34.4821 93.3109C34.4821 93.5932 34.5621 93.8284 34.722 94.0166C34.8914 94.1954 35.1313 94.3412 35.4418 94.4541C35.7523 94.5576 36.1239 94.6517 36.5567 94.7364C37.1213 94.8398 37.6152 94.9622 38.0386 95.1033C38.4714 95.2444 38.8289 95.4279 39.1112 95.6537C39.3935 95.8701 39.6052 96.1477 39.7463 96.4864C39.8874 96.8157 39.958 97.2203 39.958 97.7001C39.958 98.3117 39.7886 98.8386 39.4499 99.2808C39.1112 99.723 38.6643 100.062 38.1092 100.297C37.5635 100.532 36.9707 100.65 36.3309 100.65ZM42.4374 90.6294H47.1653C47.4099 90.6294 47.6122 90.7094 47.7721 90.8694C47.9415 91.0199 48.0262 91.2175 48.0262 91.4621C48.0262 91.6973 47.9415 91.8902 47.7721 92.0408C47.6122 92.1819 47.4099 92.2525 47.1653 92.2525H43.2136L43.3406 92.0125V94.7646L43.2277 94.6517H46.5302C46.7748 94.6517 46.9771 94.7316 47.137 94.8916C47.3064 95.0421 47.3911 95.2397 47.3911 95.4843C47.3911 95.7196 47.3064 95.9124 47.137 96.063C46.9771 96.2041 46.7748 96.2747 46.5302 96.2747H43.2701L43.3406 96.1618V99.0126L43.2277 98.8856H47.1653C47.4099 98.8856 47.6122 98.9703 47.7721 99.1396C47.9415 99.2996 48.0262 99.4878 48.0262 99.7042C48.0262 99.9394 47.9415 100.132 47.7721 100.283C47.6122 100.433 47.4099 100.509 47.1653 100.509H42.4374C42.1928 100.509 41.9858 100.429 41.8164 100.269C41.6565 100.099 41.5765 99.8923 41.5765 99.6477V91.4903C41.5765 91.2457 41.6565 91.0434 41.8164 90.8835C41.9858 90.7141 42.1928 90.6294 42.4374 90.6294ZM53.28 92.8452L50.2316 100.015C50.1657 100.193 50.0622 100.335 49.9211 100.438C49.7893 100.532 49.6435 100.579 49.4836 100.579C49.2295 100.579 49.0413 100.509 48.919 100.367C48.7967 100.226 48.7356 100.052 48.7356 99.8453C48.7356 99.7606 48.7497 99.6712 48.7779 99.5771L52.2921 91.1375C52.3673 90.9493 52.4802 90.8035 52.6308 90.7C52.7907 90.5965 52.9601 90.5542 53.1388 90.573C53.3082 90.573 53.4634 90.6247 53.6046 90.7282C53.7551 90.8223 53.8633 90.9588 53.9292 91.1375L57.401 99.4078C57.448 99.5301 57.4716 99.643 57.4716 99.7465C57.4716 100.001 57.3869 100.203 57.2175 100.353C57.0576 100.504 56.8788 100.579 56.6812 100.579C56.5119 100.579 56.3566 100.527 56.2155 100.424C56.0838 100.32 55.9803 100.179 55.905 100.001L52.8707 92.9299L53.28 92.8452ZM50.6691 98.2929L51.4453 96.6698H55.2558L55.524 98.2929H50.6691ZM61.3084 100.509C61.045 100.509 60.8286 100.429 60.6592 100.269C60.4899 100.099 60.4052 99.8923 60.4052 99.6477V91.4621H62.2399V99.6477C62.2399 99.8923 62.1505 100.099 61.9718 100.269C61.8024 100.429 61.5813 100.509 61.3084 100.509ZM58.1895 92.2525C57.9448 92.2525 57.7378 92.1772 57.5685 92.0266C57.4085 91.8761 57.3286 91.6785 57.3286 91.4339C57.3286 91.1893 57.4085 90.9964 57.5685 90.8553C57.7378 90.7047 57.9448 90.6294 58.1895 90.6294H64.4557C64.7003 90.6294 64.9026 90.7047 65.0625 90.8553C65.2319 91.0058 65.3166 91.2034 65.3166 91.448C65.3166 91.6926 65.2319 91.8902 65.0625 92.0408C64.9026 92.1819 64.7003 92.2525 64.4557 92.2525H58.1895ZM70.5702 100.509C70.3067 100.509 70.0903 100.429 69.921 100.269C69.7516 100.099 69.6669 99.8923 69.6669 99.6477V91.4621H71.5016V99.6477C71.5016 99.8923 71.4122 100.099 71.2335 100.269C71.0641 100.429 70.843 100.509 70.5702 100.509ZM67.4512 92.2525C67.2065 92.2525 66.9995 92.1772 66.8302 92.0266C66.6702 91.8761 66.5903 91.6785 66.5903 91.4339C66.5903 91.1893 66.6702 90.9964 66.8302 90.8553C66.9995 90.7047 67.2065 90.6294 67.4512 90.6294H73.7174C73.962 90.6294 74.1643 90.7047 74.3242 90.8553C74.4936 91.0058 74.5783 91.2034 74.5783 91.448C74.5783 91.6926 74.4936 91.8902 74.3242 92.0408C74.1643 92.1819 73.962 92.2525 73.7174 92.2525H67.4512ZM81.5075 98.8574C81.7521 98.8574 81.9544 98.9373 82.1143 99.0973C82.2837 99.2478 82.3684 99.4454 82.3684 99.69C82.3684 99.9253 82.2837 100.123 82.1143 100.283C81.9544 100.433 81.7521 100.509 81.5075 100.509H76.9207C76.6761 100.509 76.4691 100.429 76.2997 100.269C76.1398 100.099 76.0598 99.8923 76.0598 99.6477V91.4903C76.0598 91.2457 76.1445 91.0434 76.3139 90.8835C76.4832 90.7141 76.6996 90.6294 76.9631 90.6294C77.1889 90.6294 77.3865 90.7141 77.5558 90.8835C77.7346 91.0434 77.824 91.2457 77.824 91.4903V99.0973L77.5135 98.8574H81.5075ZM84.8456 90.6294H89.5734C89.8181 90.6294 90.0203 90.7094 90.1803 90.8694C90.3497 91.0199 90.4343 91.2175 90.4343 91.4621C90.4343 91.6973 90.3497 91.8902 90.1803 92.0408C90.0203 92.1819 89.8181 92.2525 89.5734 92.2525H85.6218L85.7488 92.0125V94.7646L85.6359 94.6517H88.9383C89.183 94.6517 89.3853 94.7316 89.5452 94.8916C89.7146 95.0421 89.7992 95.2397 89.7992 95.4843C89.7992 95.7196 89.7146 95.9124 89.5452 96.063C89.3853 96.2041 89.183 96.2747 88.9383 96.2747H85.6782L85.7488 96.1618V99.0126L85.6359 98.8856H89.5734C89.8181 98.8856 90.0203 98.9703 90.1803 99.1396C90.3497 99.2996 90.4343 99.4878 90.4343 99.7042C90.4343 99.9394 90.3497 100.132 90.1803 100.283C90.0203 100.433 89.8181 100.509 89.5734 100.509H84.8456C84.6009 100.509 84.3939 100.429 84.2246 100.269C84.0646 100.099 83.9847 99.8923 83.9847 99.6477V91.4903C83.9847 91.2457 84.0646 91.0434 84.2246 90.8835C84.3939 90.7141 84.6009 90.6294 84.8456 90.6294Z" fill="#E37869"/>
    <path d="M58.3686 140.049C57.71 140.049 57.1173 139.969 56.5904 139.809C56.0635 139.64 55.5601 139.348 55.0803 138.934C54.958 138.83 54.8639 138.713 54.798 138.581C54.7322 138.449 54.6992 138.318 54.6992 138.186C54.6992 137.969 54.7745 137.781 54.925 137.621C55.085 137.452 55.2826 137.367 55.5178 137.367C55.6966 137.367 55.8565 137.424 55.9976 137.537C56.3552 137.828 56.708 138.049 57.0561 138.2C57.4136 138.351 57.8512 138.426 58.3686 138.426C58.7168 138.426 59.0367 138.374 59.3283 138.271C59.62 138.158 59.8552 138.012 60.034 137.833C60.2127 137.645 60.3021 137.433 60.3021 137.198C60.3021 136.916 60.2174 136.676 60.0481 136.478C59.8787 136.281 59.62 136.116 59.2719 135.984C58.9237 135.843 58.4815 135.735 57.9452 135.66C57.4372 135.584 56.9903 135.471 56.6045 135.321C56.2187 135.161 55.8941 134.963 55.6307 134.728C55.3767 134.484 55.1838 134.201 55.0521 133.881C54.9203 133.552 54.8545 133.185 54.8545 132.781C54.8545 132.169 55.0097 131.647 55.3202 131.214C55.6401 130.781 56.0682 130.452 56.6045 130.226C57.1408 130 57.7335 129.887 58.3827 129.887C58.9943 129.887 59.5588 129.981 60.0763 130.17C60.6032 130.348 61.0313 130.579 61.3606 130.861C61.6335 131.078 61.7699 131.327 61.7699 131.609C61.7699 131.816 61.6899 132.004 61.53 132.174C61.37 132.343 61.1818 132.428 60.9654 132.428C60.8243 132.428 60.6973 132.385 60.5844 132.301C60.4338 132.169 60.2316 132.047 59.9775 131.934C59.7235 131.811 59.4553 131.713 59.1731 131.637C58.8908 131.553 58.6274 131.51 58.3827 131.51C57.9782 131.51 57.6348 131.562 57.3525 131.666C57.0796 131.769 56.8726 131.91 56.7315 132.089C56.5904 132.268 56.5198 132.475 56.5198 132.71C56.5198 132.992 56.5998 133.227 56.7597 133.416C56.9291 133.594 57.169 133.74 57.4795 133.853C57.79 133.957 58.1616 134.051 58.5944 134.135C59.159 134.239 59.6529 134.361 60.0763 134.502C60.5091 134.643 60.8666 134.827 61.1489 135.053C61.4312 135.269 61.6429 135.547 61.784 135.885C61.9251 136.215 61.9957 136.619 61.9957 137.099C61.9957 137.711 61.8263 138.238 61.4876 138.68C61.1489 139.122 60.702 139.461 60.1469 139.696C59.6012 139.931 59.0084 140.049 58.3686 140.049ZM64.5033 139.908C64.2399 139.908 64.0235 139.828 63.8541 139.668C63.6942 139.498 63.6142 139.291 63.6142 139.047V130.889C63.6142 130.645 63.6942 130.442 63.8541 130.283C64.0235 130.113 64.2305 130.028 64.4751 130.028H69.0618C69.3065 130.028 69.5087 130.108 69.6687 130.268C69.8381 130.419 69.9227 130.617 69.9227 130.861C69.9227 131.068 69.8381 131.252 69.6687 131.412C69.5087 131.572 69.3065 131.651 69.0618 131.651H65.2513L65.3783 131.482V134.319L65.2795 134.135H68.4267C68.6714 134.135 68.8737 134.215 69.0336 134.375C69.203 134.526 69.2876 134.723 69.2876 134.968C69.2876 135.175 69.203 135.359 69.0336 135.518C68.8737 135.678 68.6714 135.758 68.4267 135.758H65.2513L65.3783 135.631V139.047C65.3783 139.291 65.2889 139.498 65.1102 139.668C64.9408 139.828 64.7385 139.908 64.5033 139.908Z" fill="#E37869"/>
    <path d="M59.7566 177.067C60.0013 177.067 60.2035 177.147 60.3635 177.307C60.5328 177.458 60.6175 177.656 60.6175 177.9C60.6175 178.135 60.5328 178.333 60.3635 178.493C60.2035 178.643 60.0013 178.719 59.7566 178.719H55.1699C54.9252 178.719 54.7183 178.639 54.5489 178.479C54.389 178.309 54.309 178.102 54.309 177.858V169.7C54.309 169.456 54.3937 169.254 54.563 169.094C54.7324 168.924 54.9488 168.84 55.2122 168.84C55.438 168.84 55.6356 168.924 55.805 169.094C55.9837 169.254 56.0731 169.456 56.0731 169.7V177.307L55.7626 177.067H59.7566ZM65.8609 171.055L62.8124 178.225C62.7466 178.403 62.6431 178.545 62.502 178.648C62.3702 178.742 62.2244 178.789 62.0644 178.789C61.8104 178.789 61.6222 178.719 61.4999 178.578C61.3776 178.436 61.3165 178.262 61.3165 178.055C61.3165 177.971 61.3306 177.881 61.3588 177.787L64.873 169.348C64.9482 169.159 65.0611 169.014 65.2117 168.91C65.3716 168.807 65.541 168.764 65.7197 168.783C65.8891 168.783 66.0443 168.835 66.1855 168.938C66.336 169.032 66.4442 169.169 66.5101 169.348L69.9819 177.618C70.0289 177.74 70.0525 177.853 70.0525 177.957C70.0525 178.211 69.9678 178.413 69.7984 178.563C69.6385 178.714 69.4597 178.789 69.2621 178.789C69.0928 178.789 68.9375 178.738 68.7964 178.634C68.6647 178.531 68.5612 178.389 68.4859 178.211L65.4516 171.14L65.8609 171.055ZM63.2499 176.503L64.0262 174.88H67.8367L68.1049 176.503H63.2499Z" fill="#E37869"/>
    <path d="M120.62 178.86C119.961 178.86 119.368 178.78 118.841 178.62C118.315 178.451 117.811 178.159 117.331 177.745C117.209 177.641 117.115 177.524 117.049 177.392C116.983 177.26 116.95 177.129 116.95 176.997C116.95 176.78 117.026 176.592 117.176 176.432C117.336 176.263 117.534 176.178 117.769 176.178C117.948 176.178 118.108 176.235 118.249 176.348C118.606 176.639 118.959 176.86 119.307 177.011C119.665 177.162 120.102 177.237 120.62 177.237C120.968 177.237 121.288 177.185 121.579 177.082C121.871 176.969 122.106 176.823 122.285 176.644C122.464 176.456 122.553 176.244 122.553 176.009C122.553 175.727 122.469 175.487 122.299 175.289C122.13 175.092 121.871 174.927 121.523 174.795C121.175 174.654 120.733 174.546 120.196 174.471C119.688 174.395 119.241 174.282 118.856 174.132C118.47 173.972 118.145 173.774 117.882 173.539C117.628 173.295 117.435 173.012 117.303 172.692C117.171 172.363 117.106 171.996 117.106 171.592C117.106 170.98 117.261 170.458 117.571 170.025C117.891 169.592 118.319 169.263 118.856 169.037C119.392 168.811 119.985 168.698 120.634 168.698C121.245 168.698 121.81 168.792 122.327 168.981C122.854 169.159 123.282 169.39 123.612 169.672C123.885 169.889 124.021 170.138 124.021 170.42C124.021 170.627 123.941 170.815 123.781 170.985C123.621 171.154 123.433 171.239 123.217 171.239C123.075 171.239 122.948 171.196 122.835 171.112C122.685 170.98 122.483 170.858 122.229 170.745C121.975 170.622 121.706 170.524 121.424 170.448C121.142 170.364 120.878 170.321 120.634 170.321C120.229 170.321 119.886 170.373 119.604 170.477C119.331 170.58 119.124 170.721 118.983 170.9C118.841 171.079 118.771 171.286 118.771 171.521C118.771 171.803 118.851 172.038 119.011 172.227C119.18 172.405 119.42 172.551 119.731 172.664C120.041 172.768 120.413 172.862 120.846 172.946C121.41 173.05 121.904 173.172 122.327 173.313C122.76 173.455 123.118 173.638 123.4 173.864C123.682 174.08 123.894 174.358 124.035 174.696C124.176 175.026 124.247 175.43 124.247 175.91C124.247 176.522 124.077 177.049 123.739 177.491C123.4 177.933 122.953 178.272 122.398 178.507C121.852 178.742 121.26 178.86 120.62 178.86ZM130.099 168.84C130.777 168.84 131.379 168.967 131.906 169.221C132.433 169.475 132.875 169.832 133.232 170.293C133.599 170.745 133.872 171.272 134.051 171.874C134.239 172.467 134.333 173.102 134.333 173.779C134.333 174.692 134.168 175.524 133.839 176.277C133.51 177.02 133.03 177.613 132.4 178.055C131.779 178.498 131.012 178.719 130.099 178.719H126.726C126.482 178.719 126.275 178.639 126.105 178.479C125.945 178.309 125.865 178.102 125.865 177.858V169.7C125.865 169.456 125.945 169.254 126.105 169.094C126.275 168.924 126.482 168.84 126.726 168.84H130.099ZM129.958 177.096C130.551 177.096 131.035 176.945 131.412 176.644C131.788 176.334 132.061 175.929 132.23 175.43C132.409 174.922 132.498 174.372 132.498 173.779C132.498 173.337 132.447 172.918 132.343 172.523C132.249 172.118 132.099 171.766 131.892 171.465C131.685 171.154 131.421 170.909 131.101 170.731C130.781 170.552 130.4 170.463 129.958 170.463H127.488L127.629 170.336V177.251L127.545 177.096H129.958Z" fill="#E37869"/>
    <path d="M249.068 104.743C249.294 104.743 249.478 104.818 249.619 104.968C249.76 105.119 249.831 105.307 249.831 105.533V113.761C249.831 114.005 249.746 114.212 249.577 114.382C249.417 114.542 249.214 114.622 248.97 114.622C248.847 114.622 248.72 114.603 248.589 114.565C248.466 114.518 248.372 114.457 248.306 114.382L242.76 107.339L243.127 107.114V113.831C243.127 114.057 243.052 114.245 242.901 114.396C242.76 114.546 242.572 114.622 242.337 114.622C242.111 114.622 241.927 114.546 241.786 114.396C241.645 114.245 241.574 114.057 241.574 113.831V105.603C241.574 105.359 241.654 105.157 241.814 104.997C241.984 104.827 242.191 104.743 242.435 104.743C242.567 104.743 242.703 104.771 242.845 104.827C242.986 104.874 243.089 104.95 243.155 105.053L248.532 111.912L248.292 112.081V105.533C248.292 105.307 248.363 105.119 248.504 104.968C248.645 104.818 248.833 104.743 249.068 104.743ZM252.813 104.743H257.541C257.786 104.743 257.988 104.823 258.148 104.982C258.318 105.133 258.402 105.331 258.402 105.575C258.402 105.81 258.318 106.003 258.148 106.154C257.988 106.295 257.786 106.366 257.541 106.366H253.59L253.717 106.126V108.878L253.604 108.765H256.906C257.151 108.765 257.353 108.845 257.513 109.005C257.682 109.155 257.767 109.353 257.767 109.597C257.767 109.833 257.682 110.026 257.513 110.176C257.353 110.317 257.151 110.388 256.906 110.388H253.646L253.717 110.275V113.126L253.604 112.999H257.541C257.786 112.999 257.988 113.083 258.148 113.253C258.318 113.413 258.402 113.601 258.402 113.817C258.402 114.052 258.318 114.245 258.148 114.396C257.988 114.546 257.786 114.622 257.541 114.622H252.813C252.569 114.622 252.362 114.542 252.192 114.382C252.033 114.212 251.953 114.005 251.953 113.761V105.603C251.953 105.359 252.033 105.157 252.192 104.997C252.362 104.827 252.569 104.743 252.813 104.743ZM271.136 104.7C271.352 104.7 271.559 104.785 271.757 104.954C271.955 105.114 272.053 105.335 272.053 105.618C272.053 105.702 272.039 105.796 272.011 105.9L269.231 114.085C269.174 114.255 269.071 114.386 268.92 114.481C268.779 114.565 268.629 114.612 268.469 114.622C268.309 114.622 268.149 114.575 267.989 114.481C267.838 114.386 267.721 114.25 267.636 114.071L265.547 109.329L265.674 109.414L263.614 114.071C263.529 114.25 263.407 114.386 263.247 114.481C263.096 114.575 262.941 114.622 262.781 114.622C262.63 114.612 262.48 114.565 262.329 114.481C262.179 114.386 262.075 114.255 262.019 114.085L259.239 105.9C259.21 105.796 259.196 105.702 259.196 105.618C259.196 105.335 259.295 105.114 259.493 104.954C259.7 104.785 259.911 104.7 260.128 104.7C260.307 104.7 260.471 104.747 260.622 104.841C260.782 104.935 260.89 105.072 260.946 105.251L263.19 112.053L262.88 112.039L264.884 107.226C264.959 107.057 265.067 106.925 265.208 106.831C265.35 106.728 265.51 106.681 265.688 106.69C265.867 106.681 266.027 106.728 266.168 106.831C266.309 106.925 266.413 107.057 266.479 107.226L268.313 111.827L268.088 111.968L270.303 105.251C270.36 105.072 270.468 104.935 270.628 104.841C270.788 104.747 270.957 104.7 271.136 104.7ZM283.593 104.7C283.809 104.7 284.002 104.785 284.171 104.954C284.35 105.114 284.439 105.321 284.439 105.575C284.439 105.66 284.425 105.749 284.397 105.843C284.378 105.928 284.341 106.013 284.284 106.097L281.081 110.684L281.335 109.71V113.761C281.335 114.005 281.25 114.212 281.081 114.382C280.921 114.542 280.732 114.622 280.516 114.622C280.281 114.622 280.078 114.542 279.909 114.382C279.749 114.212 279.669 114.005 279.669 113.761V109.823L279.782 110.275L276.734 106.224C276.64 106.102 276.574 105.984 276.536 105.872C276.498 105.759 276.48 105.655 276.48 105.561C276.48 105.307 276.578 105.1 276.776 104.94C276.974 104.78 277.176 104.7 277.383 104.7C277.646 104.7 277.877 104.832 278.074 105.095L280.784 108.835L280.389 108.779L282.887 105.124C283.085 104.841 283.32 104.7 283.593 104.7ZM294.422 109.682C294.422 110.388 294.305 111.046 294.069 111.658C293.834 112.27 293.5 112.811 293.067 113.281C292.644 113.742 292.136 114.104 291.543 114.368C290.96 114.631 290.32 114.763 289.624 114.763C288.927 114.763 288.288 114.631 287.704 114.368C287.121 114.104 286.613 113.742 286.18 113.281C285.757 112.811 285.427 112.27 285.192 111.658C284.957 111.046 284.839 110.388 284.839 109.682C284.839 108.976 284.957 108.318 285.192 107.706C285.427 107.095 285.757 106.558 286.18 106.097C286.613 105.627 287.121 105.26 287.704 104.997C288.288 104.733 288.927 104.601 289.624 104.601C290.32 104.601 290.96 104.733 291.543 104.997C292.136 105.26 292.644 105.627 293.067 106.097C293.5 106.558 293.834 107.095 294.069 107.706C294.305 108.318 294.422 108.976 294.422 109.682ZM292.587 109.682C292.587 109.052 292.46 108.483 292.206 107.974C291.952 107.457 291.604 107.048 291.162 106.747C290.72 106.446 290.207 106.295 289.624 106.295C289.04 106.295 288.528 106.446 288.085 106.747C287.643 107.048 287.295 107.452 287.041 107.96C286.796 108.468 286.674 109.042 286.674 109.682C286.674 110.313 286.796 110.886 287.041 111.404C287.295 111.912 287.643 112.317 288.085 112.618C288.528 112.919 289.04 113.069 289.624 113.069C290.207 113.069 290.72 112.919 291.162 112.618C291.604 112.317 291.952 111.912 292.206 111.404C292.46 110.886 292.587 110.313 292.587 109.682ZM297.058 114.622C296.795 114.622 296.56 114.542 296.353 114.382C296.146 114.212 296.042 114.005 296.042 113.761V105.603C296.042 105.359 296.122 105.157 296.282 104.997C296.451 104.827 296.658 104.743 296.903 104.743H300.968C301.457 104.743 301.913 104.874 302.337 105.138C302.769 105.392 303.118 105.749 303.381 106.21C303.644 106.662 303.776 107.184 303.776 107.777C303.776 108.134 303.701 108.483 303.55 108.821C303.409 109.16 303.212 109.466 302.958 109.739C302.713 110.011 302.435 110.223 302.125 110.374L302.139 110.049C302.402 110.19 302.619 110.36 302.788 110.557C302.967 110.745 303.103 110.952 303.197 111.178C303.301 111.395 303.362 111.63 303.381 111.884C303.419 112.119 303.442 112.326 303.452 112.505C303.47 112.684 303.499 112.834 303.536 112.956C303.583 113.079 303.668 113.173 303.79 113.239C303.997 113.361 304.124 113.54 304.171 113.775C304.228 114.001 304.176 114.203 304.016 114.382C303.913 114.504 303.781 114.584 303.621 114.622C303.461 114.65 303.301 114.65 303.141 114.622C302.981 114.584 302.849 114.537 302.746 114.481C302.586 114.386 302.426 114.25 302.266 114.071C302.106 113.883 301.974 113.634 301.871 113.323C301.777 113.013 301.73 112.613 301.73 112.124C301.73 111.964 301.701 111.818 301.645 111.686C301.589 111.545 301.509 111.427 301.405 111.333C301.302 111.23 301.17 111.155 301.01 111.108C300.85 111.051 300.662 111.023 300.445 111.023H297.595L297.806 110.698V113.761C297.806 114.005 297.74 114.212 297.609 114.382C297.477 114.542 297.293 114.622 297.058 114.622ZM297.609 109.569H300.897C301.066 109.569 301.231 109.494 301.391 109.343C301.551 109.183 301.683 108.972 301.786 108.708C301.89 108.435 301.941 108.139 301.941 107.819C301.941 107.405 301.829 107.062 301.603 106.789C301.386 106.507 301.151 106.366 300.897 106.366H297.637L297.806 105.914V109.908L297.609 109.569ZM312.534 114.622C312.27 114.622 312.058 114.514 311.899 114.297L308.638 110.007L309.923 108.694L313.296 113.154C313.427 113.333 313.493 113.526 313.493 113.733C313.493 113.996 313.395 114.212 313.197 114.382C312.999 114.542 312.778 114.622 312.534 114.622ZM312.703 104.672C312.929 104.672 313.112 104.766 313.253 104.954C313.404 105.133 313.479 105.316 313.479 105.505C313.479 105.702 313.395 105.886 313.225 106.055L307.312 111.714L307.241 109.696L312.011 104.997C312.228 104.78 312.458 104.672 312.703 104.672ZM306.606 114.622C306.343 114.622 306.131 114.542 305.971 114.382C305.811 114.212 305.731 114.005 305.731 113.761V105.603C305.731 105.359 305.816 105.157 305.985 104.997C306.154 104.827 306.371 104.743 306.634 104.743C306.898 104.743 307.105 104.827 307.255 104.997C307.415 105.157 307.495 105.359 307.495 105.603V113.761C307.495 114.005 307.415 114.212 307.255 114.382C307.095 114.542 306.879 114.622 306.606 114.622Z" fill="#E37869"/>
    <path d="M125.687 50.5342C125.932 50.6565 126.073 50.8493 126.111 51.1128C126.158 51.3762 126.092 51.6162 125.913 51.8326C125.791 52.0019 125.631 52.096 125.433 52.1148C125.245 52.1336 125.052 52.096 124.854 52.0019C124.629 51.8984 124.389 51.8184 124.135 51.762C123.89 51.7055 123.631 51.6773 123.359 51.6773C122.85 51.6773 122.394 51.7573 121.99 51.9172C121.594 52.0772 121.256 52.3077 120.973 52.6088C120.691 52.9005 120.475 53.2486 120.324 53.6531C120.183 54.0577 120.113 54.5046 120.113 54.9939C120.113 55.5678 120.192 56.0665 120.352 56.4899C120.522 56.9133 120.752 57.2661 121.044 57.5484C121.336 57.8306 121.679 58.0423 122.074 58.1834C122.469 58.3152 122.897 58.381 123.359 58.381C123.613 58.381 123.867 58.3575 124.121 58.3105C124.375 58.2634 124.619 58.1787 124.854 58.0564C125.052 57.9623 125.245 57.9294 125.433 57.9576C125.631 57.9859 125.795 58.0847 125.927 58.254C126.115 58.4892 126.181 58.7339 126.125 58.9879C126.078 59.2325 125.937 59.4113 125.701 59.5242C125.457 59.6465 125.203 59.75 124.939 59.8347C124.685 59.9099 124.426 59.9664 124.163 60.004C123.9 60.0511 123.631 60.0746 123.359 60.0746C122.681 60.0746 122.037 59.9664 121.425 59.75C120.823 59.5336 120.282 59.2137 119.802 58.7903C119.332 58.3669 118.96 57.84 118.687 57.2096C118.414 56.5699 118.278 55.8313 118.278 54.9939C118.278 54.2694 118.4 53.6014 118.645 52.9898C118.899 52.3783 119.252 51.8514 119.703 51.4092C120.164 50.9575 120.705 50.6094 121.326 50.3648C121.947 50.1108 122.625 49.9837 123.359 49.9837C123.772 49.9837 124.177 50.0308 124.572 50.1249C124.967 50.219 125.339 50.3554 125.687 50.5342ZM128.523 50.0543C128.749 50.0543 128.947 50.139 129.116 50.3083C129.295 50.4683 129.384 50.6706 129.384 50.9152V59.0726C129.384 59.3172 129.295 59.5242 129.116 59.6935C128.937 59.8535 128.73 59.9335 128.495 59.9335C128.232 59.9335 128.02 59.8535 127.86 59.6935C127.7 59.5242 127.62 59.3172 127.62 59.0726V50.9152C127.62 50.6706 127.705 50.4683 127.874 50.3083C128.043 50.139 128.26 50.0543 128.523 50.0543ZM134.775 50.0543C135.039 50.0543 135.25 50.139 135.41 50.3083C135.57 50.4683 135.65 50.6706 135.65 50.9152V59.0726C135.65 59.3172 135.566 59.5242 135.396 59.6935C135.236 59.8535 135.02 59.9335 134.747 59.9335C134.521 59.9335 134.319 59.8535 134.14 59.6935C133.971 59.5242 133.886 59.3172 133.886 59.0726V50.9152C133.886 50.6706 133.976 50.4683 134.154 50.3083C134.333 50.139 134.54 50.0543 134.775 50.0543ZM128.481 54.1612H134.775V55.7842H128.481V54.1612ZM139.528 59.0726C139.528 59.3172 139.439 59.5242 139.26 59.6935C139.081 59.8535 138.874 59.9335 138.639 59.9335C138.375 59.9335 138.164 59.8535 138.004 59.6935C137.844 59.5242 137.764 59.3172 137.764 59.0726V50.9152C137.764 50.6706 137.848 50.4683 138.018 50.3083C138.187 50.139 138.404 50.0543 138.667 50.0543C138.893 50.0543 139.09 50.139 139.26 50.3083C139.439 50.4683 139.528 50.6706 139.528 50.9152V59.0726ZM148.566 50.5342C148.81 50.6565 148.952 50.8493 148.989 51.1128C149.036 51.3762 148.97 51.6162 148.792 51.8326C148.669 52.0019 148.509 52.096 148.312 52.1148C148.124 52.1336 147.931 52.096 147.733 52.0019C147.507 51.8984 147.267 51.8184 147.013 51.762C146.769 51.7055 146.51 51.6773 146.237 51.6773C145.729 51.6773 145.273 51.7573 144.868 51.9172C144.473 52.0772 144.134 52.3077 143.852 52.6088C143.57 52.9005 143.353 53.2486 143.203 53.6531C143.062 54.0577 142.991 54.5046 142.991 54.9939C142.991 55.5678 143.071 56.0665 143.231 56.4899C143.4 56.9133 143.631 57.2661 143.923 57.5484C144.214 57.8306 144.558 58.0423 144.953 58.1834C145.348 58.3152 145.776 58.381 146.237 58.381C146.491 58.381 146.745 58.3575 146.999 58.3105C147.253 58.2634 147.498 58.1787 147.733 58.0564C147.931 57.9623 148.124 57.9294 148.312 57.9576C148.509 57.9859 148.674 58.0847 148.806 58.254C148.994 58.4892 149.06 58.7339 149.003 58.9879C148.956 59.2325 148.815 59.4113 148.58 59.5242C148.335 59.6465 148.081 59.75 147.818 59.8347C147.564 59.9099 147.305 59.9664 147.042 60.004C146.778 60.0511 146.51 60.0746 146.237 60.0746C145.56 60.0746 144.915 59.9664 144.304 59.75C143.701 59.5336 143.16 59.2137 142.681 58.7903C142.21 58.3669 141.839 57.84 141.566 57.2096C141.293 56.5699 141.156 55.8313 141.156 54.9939C141.156 54.2694 141.279 53.6014 141.523 52.9898C141.777 52.3783 142.13 51.8514 142.582 51.4092C143.043 50.9575 143.584 50.6094 144.205 50.3648C144.826 50.1108 145.503 49.9837 146.237 49.9837C146.651 49.9837 147.056 50.0308 147.451 50.1249C147.846 50.219 148.218 50.3554 148.566 50.5342ZM154.126 52.2701L151.077 59.4395C151.011 59.6183 150.908 59.7594 150.767 59.8629C150.635 59.957 150.489 60.004 150.329 60.004C150.075 60.004 149.887 59.9335 149.765 59.7923C149.642 59.6512 149.581 59.4771 149.581 59.2702C149.581 59.1855 149.595 59.0961 149.624 59.002L153.138 50.5624C153.213 50.3742 153.326 50.2284 153.476 50.1249C153.636 50.0214 153.806 49.979 153.985 49.9979C154.154 49.9979 154.309 50.0496 154.45 50.1531C154.601 50.2472 154.709 50.3836 154.775 50.5624L158.247 58.8327C158.294 58.955 158.317 59.0679 158.317 59.1714C158.317 59.4254 158.233 59.6277 158.063 59.7782C157.903 59.9288 157.725 60.004 157.527 60.004C157.358 60.004 157.202 59.9523 157.061 59.8488C156.929 59.7453 156.826 59.6042 156.751 59.4254L153.716 52.3547L154.126 52.2701ZM151.515 57.7177L152.291 56.0947H156.102L156.37 57.7177H151.515ZM164.101 60.0746C163.386 60.0746 162.718 59.9429 162.097 59.6794C161.476 59.416 160.93 59.0538 160.459 58.5927C159.989 58.1223 159.617 57.5813 159.345 56.9697C159.081 56.3582 158.949 55.6995 158.949 54.9939C158.949 54.2882 159.081 53.6296 159.345 53.0181C159.617 52.4065 159.989 51.8702 160.459 51.4092C160.93 50.9387 161.476 50.5718 162.097 50.3083C162.718 50.0449 163.386 49.9132 164.101 49.9132C164.543 49.9132 164.971 49.9602 165.385 50.0543C165.799 50.1484 166.18 50.2895 166.528 50.4777C166.669 50.553 166.773 50.6565 166.839 50.7882C166.914 50.9105 166.952 51.0375 166.952 51.1692C166.952 51.3951 166.876 51.5973 166.726 51.7761C166.575 51.9549 166.382 52.0443 166.147 52.0443C166.072 52.0443 165.992 52.0348 165.907 52.016C165.832 51.9972 165.757 51.969 165.681 51.9314C165.446 51.8279 165.197 51.7479 164.933 51.6914C164.67 51.635 164.392 51.6068 164.101 51.6068C163.489 51.6068 162.929 51.762 162.421 52.0725C161.923 52.3736 161.523 52.7828 161.222 53.3003C160.93 53.8084 160.784 54.3729 160.784 54.9939C160.784 55.6055 160.93 56.17 161.222 56.6875C161.523 57.2049 161.923 57.6189 162.421 57.9294C162.929 58.2305 163.489 58.381 164.101 58.381C164.383 58.381 164.693 58.3528 165.032 58.2964C165.371 58.2399 165.648 58.1646 165.865 58.0705L165.738 58.4939V56.0806L165.978 56.2923H164.411C164.167 56.2923 163.96 56.2123 163.79 56.0524C163.63 55.8924 163.55 55.6901 163.55 55.4455C163.55 55.2009 163.63 54.9986 163.79 54.8386C163.96 54.6787 164.167 54.5987 164.411 54.5987H166.726C166.97 54.5987 167.173 54.6834 167.333 54.8528C167.493 55.0127 167.572 55.215 167.572 55.4596V58.4516C167.572 58.6398 167.525 58.795 167.431 58.9173C167.347 59.0396 167.248 59.1384 167.135 59.2137C166.702 59.4771 166.227 59.6888 165.71 59.8488C165.201 59.9993 164.665 60.0746 164.101 60.0746ZM178.359 54.9939C178.359 55.6995 178.241 56.3582 178.006 56.9697C177.771 57.5813 177.437 58.1223 177.004 58.5927C176.581 59.0538 176.073 59.416 175.48 59.6794C174.897 59.9429 174.257 60.0746 173.561 60.0746C172.864 60.0746 172.224 59.9429 171.641 59.6794C171.058 59.416 170.55 59.0538 170.117 58.5927C169.694 58.1223 169.364 57.5813 169.129 56.9697C168.894 56.3582 168.776 55.6995 168.776 54.9939C168.776 54.2882 168.894 53.6296 169.129 53.0181C169.364 52.4065 169.694 51.8702 170.117 51.4092C170.55 50.9387 171.058 50.5718 171.641 50.3083C172.224 50.0449 172.864 49.9132 173.561 49.9132C174.257 49.9132 174.897 50.0449 175.48 50.3083C176.073 50.5718 176.581 50.9387 177.004 51.4092C177.437 51.8702 177.771 52.4065 178.006 53.0181C178.241 53.6296 178.359 54.2882 178.359 54.9939ZM176.524 54.9939C176.524 54.3635 176.397 53.7943 176.143 53.2862C175.889 52.7687 175.541 52.3594 175.099 52.0584C174.657 51.7573 174.144 51.6068 173.561 51.6068C172.977 51.6068 172.464 51.7573 172.022 52.0584C171.58 52.3594 171.232 52.764 170.978 53.2721C170.733 53.7802 170.611 54.3541 170.611 54.9939C170.611 55.6243 170.733 56.1982 170.978 56.7157C171.232 57.2238 171.58 57.6283 172.022 57.9294C172.464 58.2305 172.977 58.381 173.561 58.381C174.144 58.381 174.657 58.2305 175.099 57.9294C175.541 57.6283 175.889 57.2238 176.143 56.7157C176.397 56.1982 176.524 55.6243 176.524 54.9939Z" fill="#E37869"/>
    <path d="M217.985 59.9335C217.722 59.9335 217.505 59.8535 217.336 59.6935C217.166 59.5242 217.082 59.3172 217.082 59.0726V50.887H218.916V59.0726C218.916 59.3172 218.827 59.5242 218.648 59.6935C218.479 59.8535 218.258 59.9335 217.985 59.9335ZM214.866 51.6773C214.621 51.6773 214.414 51.602 214.245 51.4515C214.085 51.301 214.005 51.1034 214.005 50.8588C214.005 50.6141 214.085 50.4213 214.245 50.2801C214.414 50.1296 214.621 50.0543 214.866 50.0543H221.132C221.377 50.0543 221.579 50.1296 221.739 50.2801C221.908 50.4307 221.993 50.6282 221.993 50.8729C221.993 51.1175 221.908 51.3151 221.739 51.4656C221.579 51.6068 221.377 51.6773 221.132 51.6773H214.866ZM232.288 54.9939C232.288 55.6995 232.17 56.3582 231.935 56.9697C231.7 57.5813 231.366 58.1223 230.933 58.5927C230.51 59.0538 230.002 59.416 229.409 59.6794C228.825 59.9429 228.186 60.0746 227.489 60.0746C226.793 60.0746 226.153 59.9429 225.57 59.6794C224.987 59.416 224.479 59.0538 224.046 58.5927C223.622 58.1223 223.293 57.5813 223.058 56.9697C222.823 56.3582 222.705 55.6995 222.705 54.9939C222.705 54.2882 222.823 53.6296 223.058 53.0181C223.293 52.4065 223.622 51.8702 224.046 51.4092C224.479 50.9387 224.987 50.5718 225.57 50.3083C226.153 50.0449 226.793 49.9132 227.489 49.9132C228.186 49.9132 228.825 50.0449 229.409 50.3083C230.002 50.5718 230.51 50.9387 230.933 51.4092C231.366 51.8702 231.7 52.4065 231.935 53.0181C232.17 53.6296 232.288 54.2882 232.288 54.9939ZM230.453 54.9939C230.453 54.3635 230.326 53.7943 230.072 53.2862C229.818 52.7687 229.47 52.3594 229.028 52.0584C228.586 51.7573 228.073 51.6068 227.489 51.6068C226.906 51.6068 226.393 51.7573 225.951 52.0584C225.509 52.3594 225.161 52.764 224.907 53.2721C224.662 53.7802 224.54 54.3541 224.54 54.9939C224.54 55.6243 224.662 56.1982 224.907 56.7157C225.161 57.2238 225.509 57.6283 225.951 57.9294C226.393 58.2305 226.906 58.381 227.489 58.381C228.073 58.381 228.586 58.2305 229.028 57.9294C229.47 57.6283 229.818 57.2238 230.072 56.7157C230.326 56.1982 230.453 55.6243 230.453 54.9939ZM234.924 59.9335C234.661 59.9335 234.425 59.8535 234.218 59.6935C234.011 59.5242 233.908 59.3172 233.908 59.0726V50.9152C233.908 50.6706 233.988 50.4683 234.148 50.3083C234.317 50.139 234.524 50.0543 234.769 50.0543H238.833C239.323 50.0543 239.779 50.186 240.202 50.4495C240.635 50.7035 240.983 51.061 241.247 51.5221C241.51 51.9737 241.642 52.4959 241.642 53.0886C241.642 53.4462 241.567 53.7943 241.416 54.133C241.275 54.4717 241.077 54.7775 240.823 55.0503C240.579 55.3232 240.301 55.5349 239.991 55.6854L240.005 55.3608C240.268 55.502 240.485 55.6713 240.654 55.8689C240.833 56.0571 240.969 56.2641 241.063 56.4899C241.167 56.7063 241.228 56.9415 241.247 57.1955C241.284 57.4308 241.308 57.6377 241.317 57.8165C241.336 57.9953 241.364 58.1458 241.402 58.2681C241.449 58.3904 241.534 58.4845 241.656 58.5504C241.863 58.6727 241.99 58.8515 242.037 59.0867C242.093 59.3125 242.042 59.5148 241.882 59.6935C241.778 59.8159 241.647 59.8958 241.487 59.9335C241.327 59.9617 241.167 59.9617 241.007 59.9335C240.847 59.8958 240.715 59.8488 240.612 59.7923C240.452 59.6983 240.292 59.5618 240.132 59.3831C239.972 59.1949 239.84 58.9456 239.737 58.6351C239.643 58.3246 239.595 57.9247 239.595 57.4355C239.595 57.2755 239.567 57.1297 239.511 56.9979C239.454 56.8568 239.374 56.7392 239.271 56.6451C239.167 56.5416 239.036 56.4664 238.876 56.4193C238.716 56.3629 238.528 56.3346 238.311 56.3346H235.46L235.672 56.01V59.0726C235.672 59.3172 235.606 59.5242 235.474 59.6935C235.343 59.8535 235.159 59.9335 234.924 59.9335ZM235.474 54.881H238.763C238.932 54.881 239.097 54.8057 239.257 54.6552C239.417 54.4952 239.548 54.2835 239.652 54.0201C239.755 53.7472 239.807 53.4509 239.807 53.131C239.807 52.717 239.694 52.3736 239.468 52.1007C239.252 51.8184 239.017 51.6773 238.763 51.6773H235.503L235.672 51.2257V55.2197L235.474 54.881ZM252.548 54.9939C252.548 55.6995 252.43 56.3582 252.195 56.9697C251.96 57.5813 251.626 58.1223 251.193 58.5927C250.77 59.0538 250.262 59.416 249.669 59.6794C249.085 59.9429 248.446 60.0746 247.749 60.0746C247.053 60.0746 246.413 59.9429 245.83 59.6794C245.247 59.416 244.739 59.0538 244.306 58.5927C243.882 58.1223 243.553 57.5813 243.318 56.9697C243.083 56.3582 242.965 55.6995 242.965 54.9939C242.965 54.2882 243.083 53.6296 243.318 53.0181C243.553 52.4065 243.882 51.8702 244.306 51.4092C244.739 50.9387 245.247 50.5718 245.83 50.3083C246.413 50.0449 247.053 49.9132 247.749 49.9132C248.446 49.9132 249.085 50.0449 249.669 50.3083C250.262 50.5718 250.77 50.9387 251.193 51.4092C251.626 51.8702 251.96 52.4065 252.195 53.0181C252.43 53.6296 252.548 54.2882 252.548 54.9939ZM250.713 54.9939C250.713 54.3635 250.586 53.7943 250.332 53.2862C250.078 52.7687 249.73 52.3594 249.288 52.0584C248.846 51.7573 248.333 51.6068 247.749 51.6068C247.166 51.6068 246.653 51.7573 246.211 52.0584C245.769 52.3594 245.421 52.764 245.167 53.2721C244.922 53.7802 244.8 54.3541 244.8 54.9939C244.8 55.6243 244.922 56.1982 245.167 56.7157C245.421 57.2238 245.769 57.6283 246.211 57.9294C246.653 58.2305 247.166 58.381 247.749 58.381C248.333 58.381 248.846 58.2305 249.288 57.9294C249.73 57.6283 250.078 57.2238 250.332 56.7157C250.586 56.1982 250.713 55.6243 250.713 54.9939ZM261.662 50.0543C261.888 50.0543 262.071 50.1296 262.212 50.2801C262.353 50.4307 262.424 50.6188 262.424 50.8446V59.0726C262.424 59.3172 262.339 59.5242 262.17 59.6935C262.01 59.8535 261.808 59.9335 261.563 59.9335C261.441 59.9335 261.314 59.9147 261.182 59.877C261.06 59.83 260.966 59.7688 260.9 59.6935L255.353 52.6511L255.72 52.4253V59.1431C255.72 59.3689 255.645 59.5571 255.495 59.7077C255.353 59.8582 255.165 59.9335 254.93 59.9335C254.704 59.9335 254.521 59.8582 254.38 59.7077C254.238 59.5571 254.168 59.3689 254.168 59.1431V50.9152C254.168 50.6706 254.248 50.4683 254.408 50.3083C254.577 50.139 254.784 50.0543 255.029 50.0543C255.161 50.0543 255.297 50.0825 255.438 50.139C255.579 50.186 255.683 50.2613 255.749 50.3648L261.126 57.2238L260.886 57.3931V50.8446C260.886 50.6188 260.956 50.4307 261.097 50.2801C261.239 50.1296 261.427 50.0543 261.662 50.0543ZM267.891 59.9335C267.627 59.9335 267.411 59.8535 267.242 59.6935C267.072 59.5242 266.988 59.3172 266.988 59.0726V50.887H268.822V59.0726C268.822 59.3172 268.733 59.5242 268.554 59.6935C268.385 59.8535 268.164 59.9335 267.891 59.9335ZM264.772 51.6773C264.527 51.6773 264.32 51.602 264.151 51.4515C263.991 51.301 263.911 51.1034 263.911 50.8588C263.911 50.6141 263.991 50.4213 264.151 50.2801C264.32 50.1296 264.527 50.0543 264.772 50.0543H271.038C271.283 50.0543 271.485 50.1296 271.645 50.2801C271.814 50.4307 271.899 50.6282 271.899 50.8729C271.899 51.1175 271.814 51.3151 271.645 51.4656C271.485 51.6068 271.283 51.6773 271.038 51.6773H264.772ZM282.194 54.9939C282.194 55.6995 282.076 56.3582 281.841 56.9697C281.606 57.5813 281.272 58.1223 280.839 58.5927C280.415 59.0538 279.907 59.416 279.315 59.6794C278.731 59.9429 278.091 60.0746 277.395 60.0746C276.699 60.0746 276.059 59.9429 275.476 59.6794C274.892 59.416 274.384 59.0538 273.952 58.5927C273.528 58.1223 273.199 57.5813 272.964 56.9697C272.728 56.3582 272.611 55.6995 272.611 54.9939C272.611 54.2882 272.728 53.6296 272.964 53.0181C273.199 52.4065 273.528 51.8702 273.952 51.4092C274.384 50.9387 274.892 50.5718 275.476 50.3083C276.059 50.0449 276.699 49.9132 277.395 49.9132C278.091 49.9132 278.731 50.0449 279.315 50.3083C279.907 50.5718 280.415 50.9387 280.839 51.4092C281.272 51.8702 281.606 52.4065 281.841 53.0181C282.076 53.6296 282.194 54.2882 282.194 54.9939ZM280.359 54.9939C280.359 54.3635 280.232 53.7943 279.978 53.2862C279.724 52.7687 279.376 52.3594 278.933 52.0584C278.491 51.7573 277.979 51.6068 277.395 51.6068C276.812 51.6068 276.299 51.7573 275.857 52.0584C275.415 52.3594 275.067 52.764 274.812 53.2721C274.568 53.7802 274.446 54.3541 274.446 54.9939C274.446 55.6243 274.568 56.1982 274.812 56.7157C275.067 57.2238 275.415 57.6283 275.857 57.9294C276.299 58.2305 276.812 58.381 277.395 58.381C277.979 58.381 278.491 58.2305 278.933 57.9294C279.376 57.6283 279.724 57.2238 279.978 56.7157C280.232 56.1982 280.359 55.6243 280.359 54.9939Z" fill="#E37869"/>
    <path d="M251.392 11.8173C251.524 11.8173 251.661 11.8549 251.802 11.9302C251.952 11.9961 252.065 12.0854 252.14 12.1984L255.57 17.4766L254.864 17.4484L258.378 12.1984C258.557 11.9443 258.788 11.8173 259.07 11.8173C259.296 11.8173 259.498 11.8973 259.677 12.0572C259.856 12.2172 259.945 12.4242 259.945 12.6782V20.8497C259.945 21.0943 259.865 21.3013 259.705 21.4706C259.545 21.6306 259.333 21.7106 259.07 21.7106C258.806 21.7106 258.59 21.6306 258.421 21.4706C258.261 21.3013 258.181 21.0943 258.181 20.8497V14.2024L258.731 14.3294L255.852 18.7186C255.767 18.8221 255.659 18.9115 255.527 18.9867C255.405 19.062 255.278 19.0949 255.146 19.0855C255.024 19.0949 254.897 19.062 254.765 18.9867C254.643 18.9115 254.54 18.8221 254.455 18.7186L251.759 14.4564L252.126 13.7085V20.8497C252.126 21.0943 252.051 21.3013 251.9 21.4706C251.75 21.6306 251.552 21.7106 251.308 21.7106C251.072 21.7106 250.88 21.6306 250.729 21.4706C250.579 21.3013 250.503 21.0943 250.503 20.8497V12.6782C250.503 12.443 250.588 12.2407 250.757 12.0713C250.936 11.902 251.148 11.8173 251.392 11.8173ZM271.155 16.771C271.155 17.4766 271.038 18.1353 270.803 18.7468C270.567 19.3584 270.233 19.8994 269.801 20.3698C269.377 20.8309 268.869 21.1931 268.276 21.4565C267.693 21.72 267.053 21.8517 266.357 21.8517C265.661 21.8517 265.021 21.72 264.438 21.4565C263.854 21.1931 263.346 20.8309 262.913 20.3698C262.49 19.8994 262.161 19.3584 261.925 18.7468C261.69 18.1353 261.573 17.4766 261.573 16.771C261.573 16.0653 261.69 15.4067 261.925 14.7952C262.161 14.1836 262.49 13.6473 262.913 13.1863C263.346 12.7158 263.854 12.3489 264.438 12.0854C265.021 11.822 265.661 11.6903 266.357 11.6903C267.053 11.6903 267.693 11.822 268.276 12.0854C268.869 12.3489 269.377 12.7158 269.801 13.1863C270.233 13.6473 270.567 14.1836 270.803 14.7952C271.038 15.4067 271.155 16.0653 271.155 16.771ZM269.321 16.771C269.321 16.1406 269.194 15.5714 268.94 15.0633C268.686 14.5458 268.338 14.1365 267.895 13.8355C267.453 13.5344 266.94 13.3839 266.357 13.3839C265.774 13.3839 265.261 13.5344 264.819 13.8355C264.376 14.1365 264.028 14.5411 263.774 15.0492C263.53 15.5573 263.407 16.1312 263.407 16.771C263.407 17.4014 263.53 17.9753 263.774 18.4928C264.028 19.0009 264.376 19.4054 264.819 19.7065C265.261 20.0076 265.774 20.1581 266.357 20.1581C266.94 20.1581 267.453 20.0076 267.895 19.7065C268.338 19.4054 268.686 19.0009 268.94 18.4928C269.194 17.9753 269.321 17.4014 269.321 16.771ZM280.269 11.8314C280.495 11.8314 280.679 11.9067 280.82 12.0572C280.961 12.2078 281.032 12.3959 281.032 12.6217V20.8497C281.032 21.0943 280.947 21.3013 280.778 21.4706C280.618 21.6306 280.415 21.7106 280.171 21.7106C280.048 21.7106 279.921 21.6918 279.79 21.6541C279.667 21.6071 279.573 21.5459 279.507 21.4706L273.961 14.4282L274.328 14.2024V20.9202C274.328 21.146 274.253 21.3342 274.102 21.4848C273.961 21.6353 273.773 21.7106 273.538 21.7106C273.312 21.7106 273.128 21.6353 272.987 21.4848C272.846 21.3342 272.775 21.146 272.775 20.9202V12.6923C272.775 12.4477 272.855 12.2454 273.015 12.0854C273.185 11.9161 273.392 11.8314 273.636 11.8314C273.768 11.8314 273.904 11.8596 274.046 11.9161C274.187 11.9631 274.29 12.0384 274.356 12.1419L279.733 19.0009L279.493 19.1702V12.6217C279.493 12.3959 279.564 12.2078 279.705 12.0572C279.846 11.9067 280.034 11.8314 280.269 11.8314ZM286.498 21.7106C286.235 21.7106 286.018 21.6306 285.849 21.4706C285.68 21.3013 285.595 21.0943 285.595 20.8497V12.6641H287.43V20.8497C287.43 21.0943 287.34 21.3013 287.162 21.4706C286.992 21.6306 286.771 21.7106 286.498 21.7106ZM283.379 13.4544C283.135 13.4544 282.928 13.3791 282.758 13.2286C282.598 13.0781 282.518 12.8805 282.518 12.6359C282.518 12.3912 282.598 12.1984 282.758 12.0572C282.928 11.9067 283.135 11.8314 283.379 11.8314H289.646C289.89 11.8314 290.092 11.9067 290.252 12.0572C290.422 12.2078 290.506 12.4053 290.506 12.65C290.506 12.8946 290.422 13.0922 290.252 13.2427C290.092 13.3839 289.89 13.4544 289.646 13.4544H283.379ZM293.004 21.7106C292.741 21.7106 292.505 21.6306 292.298 21.4706C292.091 21.3013 291.988 21.0943 291.988 20.8497V12.6923C291.988 12.4477 292.068 12.2454 292.228 12.0854C292.397 11.9161 292.604 11.8314 292.849 11.8314H296.913C297.403 11.8314 297.859 11.9631 298.282 12.2266C298.715 12.4806 299.063 12.8381 299.327 13.2992C299.59 13.7508 299.722 14.273 299.722 14.8657C299.722 15.2233 299.647 15.5714 299.496 15.9101C299.355 16.2488 299.157 16.5546 298.903 16.8274C298.659 17.1003 298.381 17.312 298.071 17.4625L298.085 17.1379C298.348 17.2791 298.565 17.4484 298.734 17.646C298.913 17.8342 299.049 18.0412 299.143 18.267C299.247 18.4834 299.308 18.7186 299.327 18.9726C299.364 19.2079 299.388 19.4148 299.397 19.5936C299.416 19.7724 299.444 19.9229 299.482 20.0452C299.529 20.1675 299.614 20.2616 299.736 20.3275C299.943 20.4498 300.07 20.6286 300.117 20.8638C300.174 21.0896 300.122 21.2919 299.962 21.4706C299.858 21.593 299.727 21.6729 299.567 21.7106C299.407 21.7388 299.247 21.7388 299.087 21.7106C298.927 21.6729 298.795 21.6259 298.692 21.5694C298.532 21.4754 298.372 21.3389 298.212 21.1602C298.052 20.972 297.92 20.7227 297.817 20.4122C297.723 20.1017 297.676 19.7018 297.676 19.2126C297.676 19.0526 297.647 18.9068 297.591 18.775C297.534 18.6339 297.454 18.5163 297.351 18.4222C297.247 18.3187 297.116 18.2435 296.956 18.1964C296.796 18.14 296.608 18.1117 296.391 18.1117H293.54L293.752 17.7871V20.8497C293.752 21.0943 293.686 21.3013 293.555 21.4706C293.423 21.6306 293.239 21.7106 293.004 21.7106ZM293.555 16.6581H296.843C297.012 16.6581 297.177 16.5828 297.337 16.4323C297.497 16.2723 297.629 16.0606 297.732 15.7972C297.836 15.5243 297.887 15.228 297.887 14.9081C297.887 14.4941 297.774 14.1507 297.549 13.8778C297.332 13.5955 297.097 13.4544 296.843 13.4544H293.583L293.752 13.0028V16.9968L293.555 16.6581ZM302.538 11.8314H307.266C307.51 11.8314 307.713 11.9114 307.873 12.0713C308.042 12.2219 308.127 12.4195 308.127 12.6641C308.127 12.8993 308.042 13.0922 307.873 13.2427C307.713 13.3839 307.51 13.4544 307.266 13.4544H303.314L303.441 13.2145V15.9665L303.328 15.8536H306.631C306.875 15.8536 307.078 15.9336 307.238 16.0936C307.407 16.2441 307.492 16.4417 307.492 16.6863C307.492 16.9215 307.407 17.1144 307.238 17.2649C307.078 17.4061 306.875 17.4766 306.631 17.4766H303.371L303.441 17.3637V20.2146L303.328 20.0876H307.266C307.51 20.0876 307.713 20.1722 307.873 20.3416C308.042 20.5016 308.127 20.6897 308.127 20.9061C308.127 21.1413 308.042 21.3342 307.873 21.4848C307.713 21.6353 307.51 21.7106 307.266 21.7106H302.538C302.293 21.7106 302.086 21.6306 301.917 21.4706C301.757 21.3013 301.677 21.0943 301.677 20.8497V12.6923C301.677 12.4477 301.757 12.2454 301.917 12.0854C302.086 11.9161 302.293 11.8314 302.538 11.8314ZM313.38 14.0472L310.332 21.2166C310.266 21.3954 310.163 21.5365 310.022 21.64C309.89 21.7341 309.744 21.7811 309.584 21.7811C309.33 21.7811 309.142 21.7106 309.02 21.5694C308.897 21.4283 308.836 21.2542 308.836 21.0473C308.836 20.9626 308.85 20.8732 308.878 20.7791L312.393 12.3395C312.468 12.1513 312.581 12.0055 312.731 11.902C312.891 11.7985 313.061 11.7561 313.239 11.775C313.409 11.775 313.564 11.8267 313.705 11.9302C313.856 12.0243 313.964 12.1607 314.03 12.3395L317.501 20.6098C317.549 20.7321 317.572 20.845 317.572 20.9485C317.572 21.2025 317.487 21.4048 317.318 21.5553C317.158 21.7059 316.979 21.7811 316.782 21.7811C316.612 21.7811 316.457 21.7294 316.316 21.6259C316.184 21.5224 316.081 21.3813 316.005 21.2025L312.971 14.1318L313.38 14.0472ZM310.77 19.4948L311.546 17.8718H315.356L315.624 19.4948H310.77ZM324.215 20.0593C324.459 20.0593 324.662 20.1393 324.822 20.2993C324.991 20.4498 325.076 20.6474 325.076 20.892C325.076 21.1272 324.991 21.3248 324.822 21.4848C324.662 21.6353 324.459 21.7106 324.215 21.7106H319.628C319.383 21.7106 319.176 21.6306 319.007 21.4706C318.847 21.3013 318.767 21.0943 318.767 20.8497V12.6923C318.767 12.4477 318.852 12.2454 319.021 12.0854C319.19 11.9161 319.407 11.8314 319.67 11.8314C319.896 11.8314 320.094 11.9161 320.263 12.0854C320.442 12.2454 320.531 12.4477 320.531 12.6923V20.2993L320.221 20.0593H324.215Z" fill="#E37869"/>
</svg>
