<svg width="262" height="170" viewBox="0 0 262 170" fill="none" xmlns="http://www.w3.org/2000/svg">
    <path d="M177.57 117.04V53.5555C177.57 46.6417 171.965 41.037 165.052 41.037H157.898C150.985 41.037 145.38 35.4323 145.38 28.5185C145.38 21.6048 139.775 16 132.861 16H47.9185C41.0047 16 35.4 21.6047 35.4 28.5185C35.4 35.4323 29.7952 41.037 22.8815 41.037H17.5184C10.6047 41.037 5 46.6417 5 53.5555V117.04C5 123.954 10.6047 129.559 17.5184 129.559H78.3215C85.2353 129.559 90.8401 123.954 90.8401 117.04C90.8401 110.127 96.4447 104.522 103.359 104.522H106.932C113.845 104.522 119.45 110.127 119.45 117.04C119.45 123.954 125.055 129.559 131.969 129.559H165.052C171.965 129.559 177.57 123.954 177.57 117.04Z" fill="#D2CFC6" stroke="#EDEBDC" stroke-width="8.82" stroke-miterlimit="10"/>
    <path d="M164.16 137.904H158.201C150.629 137.904 144.49 144.042 144.49 151.615C144.49 159.187 150.629 165.325 158.201 165.325H164.16C171.732 165.325 177.87 159.187 177.87 151.615C177.87 144.042 171.732 137.904 164.16 137.904Z" fill="#D2CFC6" stroke="#EDEBDC" stroke-width="8.82" stroke-miterlimit="10"/>
    <path d="M212.371 38.5548L212.288 52.6952C212.223 63.8614 221.223 72.9662 232.389 73.0305H232.391C243.557 73.0949 252.661 64.0946 252.725 52.9286L252.805 38.7882C252.868 27.6234 243.869 18.5209 232.705 18.4565C221.54 18.3922 212.437 27.3902 212.371 38.5548Z" fill="#D2CFC6" stroke="#EDEBDC" stroke-width="8.82" stroke-miterlimit="10"/>
    <path d="M211.933 104.172L211.907 108.709C211.843 119.874 220.841 128.976 232.006 129.041L232.006 129.041C243.17 129.105 252.273 120.106 252.337 108.942L252.363 104.405C252.428 93.2406 243.429 84.1379 232.265 84.0735L232.265 84.0735C221.1 84.0092 211.997 93.0076 211.933 104.172Z" fill="#D2CFC6" stroke="#EDEBDC" stroke-width="8.82" stroke-miterlimit="10"/>
    <rect x="172.47" y="1.47011" width="88.0598" height="30.0598" rx="4.41034" fill="white" stroke="#EDEBDC" stroke-width="2.94023"/>
    <rect x="141.47" y="74.4701" width="68.8013" height="29.9903" rx="4.41034" fill="white" stroke="#EDEBDC" stroke-width="2.94023"/>
    <rect x="50.4701" y="91.4701" width="78.0598" height="30.0598" rx="4.41034" fill="white" stroke="#EDEBDC" stroke-width="2.94023"/>
    <path d="M184.022 14.3366L180.973 21.506C180.907 21.6848 180.804 21.8259 180.663 21.9294C180.531 22.0235 180.385 22.0706 180.225 22.0706C179.971 22.0706 179.783 22 179.661 21.8589C179.538 21.7177 179.477 21.5437 179.477 21.3367C179.477 21.252 179.491 21.1626 179.519 21.0685L183.034 12.6289C183.109 12.4407 183.222 12.2949 183.372 12.1914C183.532 12.0879 183.702 12.0456 183.88 12.0644C184.05 12.0644 184.205 12.1161 184.346 12.2196C184.497 12.3137 184.605 12.4501 184.671 12.6289L188.143 20.8992C188.19 21.0215 188.213 21.1344 188.213 21.2379C188.213 21.4919 188.128 21.6942 187.959 21.8448C187.799 21.9953 187.62 22.0706 187.423 22.0706C187.253 22.0706 187.098 22.0188 186.957 21.9153C186.825 21.8118 186.722 21.6707 186.647 21.4919L183.612 14.4213L184.022 14.3366ZM181.411 19.7842L182.187 18.1612H185.997L186.266 19.7842H181.411ZM196.284 12.1067C196.529 12.1067 196.727 12.1914 196.877 12.3608C197.028 12.5207 197.103 12.723 197.103 12.9676V18.0766C197.103 18.8575 196.934 19.549 196.595 20.1512C196.266 20.7533 195.809 21.2238 195.226 21.5625C194.643 21.9012 193.965 22.0706 193.194 22.0706C192.422 22.0706 191.74 21.9012 191.147 21.5625C190.564 21.2238 190.103 20.7533 189.764 20.1512C189.435 19.549 189.27 18.8575 189.27 18.0766V12.9676C189.27 12.723 189.355 12.5207 189.524 12.3608C189.694 12.1914 189.91 12.1067 190.174 12.1067C190.39 12.1067 190.583 12.1914 190.752 12.3608C190.931 12.5207 191.02 12.723 191.02 12.9676V18.0766C191.02 18.547 191.119 18.9563 191.317 19.3044C191.524 19.6431 191.792 19.9066 192.121 20.0947C192.46 20.2829 192.817 20.377 193.194 20.377C193.598 20.377 193.975 20.2829 194.323 20.0947C194.671 19.9066 194.953 19.6431 195.17 19.3044C195.386 18.9563 195.494 18.547 195.494 18.0766V12.9676C195.494 12.723 195.565 12.5207 195.706 12.3608C195.847 12.1914 196.04 12.1067 196.284 12.1067ZM206.137 12.6007C206.381 12.723 206.522 12.9159 206.56 13.1793C206.607 13.4428 206.541 13.6827 206.362 13.8991C206.24 14.0684 206.08 14.1625 205.882 14.1814C205.694 14.2002 205.501 14.1625 205.304 14.0684C205.078 13.9649 204.838 13.885 204.584 13.8285C204.339 13.7721 204.081 13.7438 203.808 13.7438C203.3 13.7438 202.843 13.8238 202.439 13.9838C202.044 14.1437 201.705 14.3742 201.423 14.6753C201.14 14.967 200.924 15.3151 200.774 15.7197C200.632 16.1243 200.562 16.5712 200.562 17.0604C200.562 17.6344 200.642 18.133 200.802 18.5564C200.971 18.9798 201.202 19.3326 201.493 19.6149C201.785 19.8972 202.128 20.1088 202.524 20.25C202.919 20.3817 203.347 20.4476 203.808 20.4476C204.062 20.4476 204.316 20.424 204.57 20.377C204.824 20.33 205.069 20.2453 205.304 20.123C205.501 20.0289 205.694 19.9959 205.882 20.0242C206.08 20.0524 206.245 20.1512 206.376 20.3205C206.565 20.5558 206.63 20.8004 206.574 21.0544C206.527 21.2991 206.386 21.4778 206.151 21.5907C205.906 21.713 205.652 21.8165 205.389 21.9012C205.135 21.9765 204.876 22.0329 204.612 22.0706C204.349 22.1176 204.081 22.1411 203.808 22.1411C203.13 22.1411 202.486 22.0329 201.874 21.8165C201.272 21.6001 200.731 21.2802 200.251 20.8568C199.781 20.4334 199.409 19.9066 199.136 19.2762C198.864 18.6364 198.727 17.8978 198.727 17.0604C198.727 16.3359 198.849 15.6679 199.094 15.0564C199.348 14.4448 199.701 13.9179 200.153 13.4757C200.614 13.0241 201.155 12.676 201.776 12.4313C202.397 12.1773 203.074 12.0503 203.808 12.0503C204.222 12.0503 204.626 12.0973 205.022 12.1914C205.417 12.2855 205.788 12.4219 206.137 12.6007ZM214.872 22C214.608 22 214.397 21.8918 214.237 21.6754L210.977 17.385L212.261 16.0725L215.634 20.5322C215.766 20.711 215.832 20.9039 215.832 21.1109C215.832 21.3743 215.733 21.5907 215.535 21.7601C215.338 21.92 215.116 22 214.872 22ZM215.041 12.0503C215.267 12.0503 215.451 12.1444 215.592 12.3325C215.742 12.5113 215.817 12.6948 215.817 12.8829C215.817 13.0805 215.733 13.264 215.563 13.4334L209.65 19.0927L209.579 17.0745L214.35 12.3749C214.566 12.1585 214.797 12.0503 215.041 12.0503ZM208.944 22C208.681 22 208.469 21.92 208.309 21.7601C208.149 21.5907 208.069 21.3837 208.069 21.1391V12.9817C208.069 12.7371 208.154 12.5348 208.323 12.3749C208.493 12.2055 208.709 12.1208 208.973 12.1208C209.236 12.1208 209.443 12.2055 209.594 12.3749C209.754 12.5348 209.833 12.7371 209.833 12.9817V21.1391C209.833 21.3837 209.754 21.5907 209.594 21.7601C209.434 21.92 209.217 22 208.944 22ZM222.765 20.3488C223.01 20.3488 223.212 20.4287 223.372 20.5887C223.541 20.7392 223.626 20.9368 223.626 21.1814C223.626 21.4167 223.541 21.6142 223.372 21.7742C223.212 21.9247 223.01 22 222.765 22H218.178C217.934 22 217.727 21.92 217.557 21.7601C217.397 21.5907 217.317 21.3837 217.317 21.1391V12.9817C217.317 12.7371 217.402 12.5348 217.571 12.3749C217.741 12.2055 217.957 12.1208 218.221 12.1208C218.446 12.1208 218.644 12.2055 218.813 12.3749C218.992 12.5348 219.081 12.7371 219.081 12.9817V20.5887L218.771 20.3488H222.765ZM228.869 14.3366L225.821 21.506C225.755 21.6848 225.651 21.8259 225.51 21.9294C225.379 22.0235 225.233 22.0706 225.073 22.0706C224.819 22.0706 224.631 22 224.508 21.8589C224.386 21.7177 224.325 21.5437 224.325 21.3367C224.325 21.252 224.339 21.1626 224.367 21.0685L227.881 12.6289C227.957 12.4407 228.069 12.2949 228.22 12.1914C228.38 12.0879 228.549 12.0456 228.728 12.0644C228.897 12.0644 229.053 12.1161 229.194 12.2196C229.344 12.3137 229.453 12.4501 229.518 12.6289L232.99 20.8992C233.037 21.0215 233.061 21.1344 233.061 21.2379C233.061 21.4919 232.976 21.6942 232.807 21.8448C232.647 21.9953 232.468 22.0706 232.27 22.0706C232.101 22.0706 231.946 22.0188 231.805 21.9153C231.673 21.8118 231.569 21.6707 231.494 21.4919L228.46 14.4213L228.869 14.3366ZM226.258 19.7842L227.034 18.1612H230.845L231.113 19.7842H226.258ZM241.75 12.1208C241.976 12.1208 242.159 12.1961 242.3 12.3466C242.441 12.4972 242.512 12.6854 242.512 12.9112V21.1391C242.512 21.3837 242.427 21.5907 242.258 21.7601C242.098 21.92 241.896 22 241.651 22C241.529 22 241.402 21.9812 241.27 21.9435C241.148 21.8965 241.054 21.8353 240.988 21.7601L235.441 14.7176L235.808 14.4918V21.2097C235.808 21.4355 235.733 21.6237 235.582 21.7742C235.441 21.9247 235.253 22 235.018 22C234.792 22 234.609 21.9247 234.467 21.7742C234.326 21.6237 234.256 21.4355 234.256 21.2097V12.9817C234.256 12.7371 234.336 12.5348 234.496 12.3749C234.665 12.2055 234.872 12.1208 235.117 12.1208C235.248 12.1208 235.385 12.1491 235.526 12.2055C235.667 12.2526 235.771 12.3278 235.836 12.4313L241.214 19.2903L240.974 19.4596V12.9112C240.974 12.6854 241.044 12.4972 241.185 12.3466C241.326 12.1961 241.515 12.1208 241.75 12.1208ZM248.868 12.1208C249.545 12.1208 250.147 12.2479 250.674 12.5019C251.201 12.7559 251.643 13.1135 252.001 13.5745C252.368 14.0261 252.641 14.553 252.819 15.1552C253.008 15.7479 253.102 16.383 253.102 17.0604C253.102 17.9731 252.937 18.8057 252.608 19.5584C252.278 20.3017 251.799 20.8945 251.168 21.3367C250.547 21.7789 249.78 22 248.868 22H245.495C245.25 22 245.043 21.92 244.874 21.7601C244.714 21.5907 244.634 21.3837 244.634 21.1391V12.9817C244.634 12.7371 244.714 12.5348 244.874 12.3749C245.043 12.2055 245.25 12.1208 245.495 12.1208H248.868ZM248.727 20.377C249.319 20.377 249.804 20.2265 250.18 19.9254C250.557 19.6149 250.829 19.2103 250.999 18.7117C251.178 18.2036 251.267 17.6532 251.267 17.0604C251.267 16.6182 251.215 16.1995 251.112 15.8044C251.018 15.3998 250.867 15.047 250.66 14.7459C250.453 14.4354 250.19 14.1908 249.87 14.012C249.55 13.8332 249.169 13.7438 248.727 13.7438H246.257L246.398 13.6168V20.5322L246.313 20.377H248.727Z" fill="#E37869"/>
    <path d="M153.149 94.7857C152.491 94.7857 151.898 94.7057 151.371 94.5457C150.844 94.3764 150.341 94.0847 149.861 93.6707C149.739 93.5672 149.644 93.4496 149.579 93.3179C149.513 93.1862 149.48 93.0545 149.48 92.9227C149.48 92.7063 149.555 92.5182 149.706 92.3582C149.866 92.1889 150.063 92.1042 150.298 92.1042C150.477 92.1042 150.637 92.1606 150.778 92.2735C151.136 92.5652 151.489 92.7863 151.837 92.9368C152.194 93.0874 152.632 93.1627 153.149 93.1627C153.497 93.1627 153.817 93.1109 154.109 93.0074C154.401 92.8945 154.636 92.7487 154.815 92.5699C154.993 92.3817 155.083 92.17 155.083 91.9348C155.083 91.6526 154.998 91.4126 154.829 91.2151C154.659 91.0175 154.401 90.8528 154.052 90.7211C153.704 90.58 153.262 90.4718 152.726 90.3965C152.218 90.3212 151.771 90.2083 151.385 90.0578C150.999 89.8978 150.675 89.7002 150.411 89.465C150.157 89.2204 149.964 88.9381 149.833 88.6182C149.701 88.2889 149.635 87.922 149.635 87.5174C149.635 86.9059 149.79 86.3837 150.101 85.9509C150.421 85.5181 150.849 85.1888 151.385 84.963C151.921 84.7371 152.514 84.6242 153.163 84.6242C153.775 84.6242 154.339 84.7183 154.857 84.9065C155.384 85.0853 155.812 85.3158 156.141 85.598C156.414 85.8144 156.55 86.0638 156.55 86.346C156.55 86.553 156.47 86.7412 156.311 86.9106C156.151 87.0799 155.962 87.1646 155.746 87.1646C155.605 87.1646 155.478 87.1223 155.365 87.0376C155.214 86.9059 155.012 86.7835 154.758 86.6706C154.504 86.5483 154.236 86.4495 153.954 86.3743C153.671 86.2896 153.408 86.2472 153.163 86.2472C152.759 86.2472 152.415 86.299 152.133 86.4025C151.86 86.506 151.653 86.6471 151.512 86.8259C151.371 87.0046 151.3 87.2116 151.3 87.4469C151.3 87.7291 151.38 87.9643 151.54 88.1525C151.71 88.3313 151.95 88.4771 152.26 88.59C152.571 88.6935 152.942 88.7876 153.375 88.8723C153.94 88.9758 154.433 89.0981 154.857 89.2392C155.29 89.3803 155.647 89.5638 155.929 89.7896C156.212 90.006 156.423 90.2836 156.565 90.6223C156.706 90.9516 156.776 91.3562 156.776 91.836C156.776 92.4476 156.607 92.9745 156.268 93.4167C155.929 93.8589 155.483 94.1976 154.927 94.4328C154.382 94.6681 153.789 94.7857 153.149 94.7857ZM164.482 84.723C164.699 84.723 164.892 84.8077 165.061 84.9771C165.24 85.137 165.329 85.344 165.329 85.598C165.329 85.6827 165.315 85.7721 165.287 85.8662C165.268 85.9509 165.23 86.0355 165.174 86.1202L161.97 90.707L162.224 89.7332V93.7836C162.224 94.0283 162.14 94.2353 161.97 94.4046C161.81 94.5646 161.622 94.6445 161.406 94.6445C161.171 94.6445 160.968 94.5646 160.799 94.4046C160.639 94.2353 160.559 94.0283 160.559 93.7836V89.8461L160.672 90.2977L157.623 86.2472C157.529 86.1249 157.464 86.0073 157.426 85.8944C157.388 85.7815 157.369 85.678 157.369 85.5839C157.369 85.3299 157.468 85.1229 157.666 84.963C157.863 84.803 158.066 84.723 158.273 84.723C158.536 84.723 158.767 84.8548 158.964 85.1182L161.674 88.8582L161.279 88.8017L163.777 85.1464C163.974 84.8642 164.21 84.723 164.482 84.723ZM170.829 84.7654C171.507 84.7654 172.109 84.8924 172.636 85.1464C173.162 85.4005 173.605 85.758 173.962 86.219C174.329 86.6706 174.602 87.1975 174.781 87.7997C174.969 88.3924 175.063 89.0275 175.063 89.705C175.063 90.6176 174.898 91.4503 174.569 92.203C174.24 92.9463 173.76 93.539 173.13 93.9812C172.509 94.4234 171.742 94.6445 170.829 94.6445H167.456C167.211 94.6445 167.004 94.5646 166.835 94.4046C166.675 94.2353 166.595 94.0283 166.595 93.7836V85.6263C166.595 85.3816 166.675 85.1794 166.835 85.0194C167.004 84.85 167.211 84.7654 167.456 84.7654H170.829ZM170.688 93.0215C171.281 93.0215 171.765 92.871 172.142 92.5699C172.518 92.2594 172.791 91.8548 172.96 91.3562C173.139 90.8481 173.228 90.2977 173.228 89.705C173.228 89.2627 173.177 88.8441 173.073 88.4489C172.979 88.0443 172.828 87.6915 172.621 87.3904C172.414 87.0799 172.151 86.8353 171.831 86.6565C171.511 86.4778 171.13 86.3884 170.688 86.3884H168.218L168.359 86.2614V93.1768L168.275 93.0215H170.688ZM184.178 84.7654C184.404 84.7654 184.587 84.8406 184.728 84.9912C184.869 85.1417 184.94 85.3299 184.94 85.5557V93.7836C184.94 94.0283 184.855 94.2353 184.686 94.4046C184.526 94.5646 184.324 94.6445 184.079 94.6445C183.957 94.6445 183.83 94.6257 183.698 94.5881C183.576 94.541 183.482 94.4799 183.416 94.4046L177.869 87.3622L178.236 87.1364V93.8542C178.236 94.08 178.161 94.2682 178.01 94.4187C177.869 94.5693 177.681 94.6445 177.446 94.6445C177.22 94.6445 177.037 94.5693 176.896 94.4187C176.754 94.2682 176.684 94.08 176.684 93.8542V85.6263C176.684 85.3816 176.764 85.1794 176.924 85.0194C177.093 84.85 177.3 84.7654 177.545 84.7654C177.676 84.7654 177.813 84.7936 177.954 84.85C178.095 84.8971 178.199 84.9724 178.265 85.0759L183.642 91.9348L183.402 92.1042V85.5557C183.402 85.3299 183.472 85.1417 183.613 84.9912C183.755 84.8406 183.943 84.7654 184.178 84.7654ZM187.923 84.7654H192.651C192.895 84.7654 193.098 84.8453 193.258 85.0053C193.427 85.1558 193.512 85.3534 193.512 85.598C193.512 85.8333 193.427 86.0261 193.258 86.1767C193.098 86.3178 192.895 86.3884 192.651 86.3884H188.699L188.826 86.1485V88.9005L188.713 88.7876H192.016C192.26 88.7876 192.463 88.8676 192.622 89.0275C192.792 89.1781 192.877 89.3756 192.877 89.6203C192.877 89.8555 192.792 90.0484 192.622 90.1989C192.463 90.34 192.26 90.4106 192.016 90.4106H188.756L188.826 90.2977V93.1485L188.713 93.0215H192.651C192.895 93.0215 193.098 93.1062 193.258 93.2756C193.427 93.4355 193.512 93.6237 193.512 93.8401C193.512 94.0753 193.427 94.2682 193.258 94.4187C193.098 94.5693 192.895 94.6445 192.651 94.6445H187.923C187.678 94.6445 187.471 94.5646 187.302 94.4046C187.142 94.2353 187.062 94.0283 187.062 93.7836V85.6263C187.062 85.3816 187.142 85.1794 187.302 85.0194C187.471 84.85 187.678 84.7654 187.923 84.7654ZM201.433 84.723C201.649 84.723 201.842 84.8077 202.011 84.9771C202.19 85.137 202.28 85.344 202.28 85.598C202.28 85.6827 202.265 85.7721 202.237 85.8662C202.218 85.9509 202.181 86.0355 202.124 86.1202L198.921 90.707L199.175 89.7332V93.7836C199.175 94.0283 199.09 94.2353 198.921 94.4046C198.761 94.5646 198.573 94.6445 198.356 94.6445C198.121 94.6445 197.919 94.5646 197.749 94.4046C197.589 94.2353 197.509 94.0283 197.509 93.7836V89.8461L197.622 90.2977L194.574 86.2472C194.48 86.1249 194.414 86.0073 194.376 85.8944C194.339 85.7815 194.32 85.678 194.32 85.5839C194.32 85.3299 194.419 85.1229 194.616 84.963C194.814 84.803 195.016 84.723 195.223 84.723C195.486 84.723 195.717 84.8548 195.915 85.1182L198.624 88.8582L198.229 88.8017L200.727 85.1464C200.925 84.8642 201.16 84.723 201.433 84.723Z" fill="#E37869"/>
    <path d="M61.1011 104.337L58.0527 111.506C57.9868 111.685 57.8833 111.826 57.7422 111.929C57.6105 112.024 57.4646 112.071 57.3047 112.071C57.0507 112.071 56.8625 112 56.7402 111.859C56.6179 111.718 56.5567 111.544 56.5567 111.337C56.5567 111.252 56.5708 111.163 56.599 111.069L60.1132 102.629C60.1885 102.441 60.3014 102.295 60.4519 102.191C60.6119 102.088 60.7812 102.046 60.96 102.064C61.1293 102.064 61.2846 102.116 61.4257 102.22C61.5763 102.314 61.6845 102.45 61.7503 102.629L65.2221 110.899C65.2692 111.021 65.2927 111.134 65.2927 111.238C65.2927 111.492 65.208 111.694 65.0387 111.845C64.8787 111.995 64.6999 112.071 64.5024 112.071C64.333 112.071 64.1778 112.019 64.0366 111.915C63.9049 111.812 63.8014 111.671 63.7261 111.492L60.6918 104.421L61.1011 104.337ZM58.4902 109.784L59.2664 108.161H63.0769L63.3451 109.784H58.4902ZM70.7216 102.121C71.399 102.121 72.0012 102.248 72.5281 102.502C73.055 102.756 73.4972 103.113 73.8547 103.574C74.2216 104.026 74.4945 104.553 74.6733 105.155C74.8614 105.748 74.9555 106.383 74.9555 107.06C74.9555 107.973 74.7909 108.806 74.4616 109.558C74.1323 110.302 73.6524 110.894 73.022 111.337C72.4011 111.779 71.6343 112 70.7216 112H67.3486C67.1039 112 66.897 111.92 66.7276 111.76C66.5677 111.591 66.4877 111.384 66.4877 111.139V102.982C66.4877 102.737 66.5677 102.535 66.7276 102.375C66.897 102.206 67.1039 102.121 67.3486 102.121H70.7216ZM70.5805 110.377C71.1732 110.377 71.6578 110.226 72.0341 109.925C72.4105 109.615 72.6833 109.21 72.8527 108.712C73.0314 108.204 73.1208 107.653 73.1208 107.06C73.1208 106.618 73.0691 106.2 72.9656 105.804C72.8715 105.4 72.721 105.047 72.514 104.746C72.307 104.435 72.0435 104.191 71.7236 104.012C71.4037 103.833 71.0227 103.744 70.5805 103.744H68.1107L68.2518 103.617V110.532L68.1671 110.377H70.5805ZM77.4372 102.121H82.1651C82.4097 102.121 82.612 102.201 82.772 102.361C82.9413 102.511 83.026 102.709 83.026 102.954C83.026 103.189 82.9413 103.382 82.772 103.532C82.612 103.673 82.4097 103.744 82.1651 103.744H78.2134L78.3405 103.504V106.256L78.2276 106.143H81.53C81.7746 106.143 81.9769 106.223 82.1369 106.383C82.3062 106.534 82.3909 106.731 82.3909 106.976C82.3909 107.211 82.3062 107.404 82.1369 107.554C81.9769 107.696 81.7746 107.766 81.53 107.766H78.2699L78.3405 107.653V110.504L78.2276 110.377H82.1651C82.4097 110.377 82.612 110.462 82.772 110.631C82.9413 110.791 83.026 110.979 83.026 111.196C83.026 111.431 82.9413 111.624 82.772 111.774C82.612 111.925 82.4097 112 82.1651 112H77.4372C77.1926 112 76.9856 111.92 76.8163 111.76C76.6563 111.591 76.5763 111.384 76.5763 111.139V102.982C76.5763 102.737 76.6563 102.535 76.8163 102.375C76.9856 102.206 77.1926 102.121 77.4372 102.121ZM90.1004 110.349C90.345 110.349 90.5473 110.429 90.7073 110.589C90.8766 110.739 90.9613 110.937 90.9613 111.181C90.9613 111.417 90.8766 111.614 90.7073 111.774C90.5473 111.925 90.345 112 90.1004 112H85.5137C85.269 112 85.062 111.92 84.8927 111.76C84.7327 111.591 84.6528 111.384 84.6528 111.139V102.982C84.6528 102.737 84.7374 102.535 84.9068 102.375C85.0762 102.206 85.2926 102.121 85.556 102.121C85.7818 102.121 85.9794 102.206 86.1487 102.375C86.3275 102.535 86.4169 102.737 86.4169 102.982V110.589L86.1064 110.349H90.1004ZM96.2047 104.337L93.1562 111.506C93.0904 111.685 92.9869 111.826 92.8457 111.929C92.714 112.024 92.5682 112.071 92.4082 112.071C92.1542 112.071 91.966 112 91.8437 111.859C91.7214 111.718 91.6602 111.544 91.6602 111.337C91.6602 111.252 91.6744 111.163 91.7026 111.069L95.2167 102.629C95.292 102.441 95.4049 102.295 95.5555 102.191C95.7154 102.088 95.8848 102.046 96.0635 102.064C96.2329 102.064 96.3881 102.116 96.5293 102.22C96.6798 102.314 96.788 102.45 96.8539 102.629L100.326 110.899C100.373 111.021 100.396 111.134 100.396 111.238C100.396 111.492 100.312 111.694 100.142 111.845C99.9823 111.995 99.8035 112.071 99.6059 112.071C99.4366 112.071 99.2813 112.019 99.1402 111.915C99.0085 111.812 98.905 111.671 98.8297 111.492L95.7954 104.421L96.2047 104.337ZM93.5937 109.784L94.37 108.161H98.1805L98.4486 109.784H93.5937ZM103.355 111.139C103.355 111.384 103.266 111.591 103.087 111.76C102.908 111.92 102.701 112 102.466 112C102.203 112 101.991 111.92 101.831 111.76C101.671 111.591 101.591 111.384 101.591 111.139V102.982C101.591 102.737 101.676 102.535 101.845 102.375C102.015 102.206 102.231 102.121 102.494 102.121C102.72 102.121 102.918 102.206 103.087 102.375C103.266 102.535 103.355 102.737 103.355 102.982V111.139ZM109.712 102.121C110.389 102.121 110.991 102.248 111.518 102.502C112.045 102.756 112.487 103.113 112.845 103.574C113.212 104.026 113.485 104.553 113.663 105.155C113.852 105.748 113.946 106.383 113.946 107.06C113.946 107.973 113.781 108.806 113.452 109.558C113.122 110.302 112.643 110.894 112.012 111.337C111.391 111.779 110.624 112 109.712 112H106.339C106.094 112 105.887 111.92 105.718 111.76C105.558 111.591 105.478 111.384 105.478 111.139V102.982C105.478 102.737 105.558 102.535 105.718 102.375C105.887 102.206 106.094 102.121 106.339 102.121H109.712ZM109.571 110.377C110.163 110.377 110.648 110.226 111.024 109.925C111.401 109.615 111.673 109.21 111.843 108.712C112.022 108.204 112.111 107.653 112.111 107.06C112.111 106.618 112.059 106.2 111.956 105.804C111.862 105.4 111.711 105.047 111.504 104.746C111.297 104.435 111.034 104.191 110.714 104.012C110.394 103.833 110.013 103.744 109.571 103.744H107.101L107.242 103.617V110.532L107.157 110.377H109.571ZM116.427 102.121H121.155C121.4 102.121 121.602 102.201 121.762 102.361C121.931 102.511 122.016 102.709 122.016 102.954C122.016 103.189 121.931 103.382 121.762 103.532C121.602 103.673 121.4 103.744 121.155 103.744H117.204L117.331 103.504V106.256L117.218 106.143H120.52C120.765 106.143 120.967 106.223 121.127 106.383C121.296 106.534 121.381 106.731 121.381 106.976C121.381 107.211 121.296 107.404 121.127 107.554C120.967 107.696 120.765 107.766 120.52 107.766H117.26L117.331 107.653V110.504L117.218 110.377H121.155C121.4 110.377 121.602 110.462 121.762 110.631C121.931 110.791 122.016 110.979 122.016 111.196C122.016 111.431 121.931 111.624 121.762 111.774C121.602 111.925 121.4 112 121.155 112H116.427C116.183 112 115.976 111.92 115.806 111.76C115.646 111.591 115.566 111.384 115.566 111.139V102.982C115.566 102.737 115.646 102.535 115.806 102.375C115.976 102.206 116.183 102.121 116.427 102.121Z" fill="#E37869"/>
</svg>
