<svg width="211" height="294" viewBox="0 0 211 294" fill="none" xmlns="http://www.w3.org/2000/svg">
    <path d="M182.603 61.2242H147.83C140.628 61.2242 134.79 55.373 134.79 48.1551V17.6606C134.79 10.4428 128.952 4.59155 121.75 4.59155H18.1562C10.9544 4.59155 5.11621 10.4428 5.11621 17.6606V105.514C5.11621 112.731 10.9544 118.583 18.1562 118.583H24.6751C31.8769 118.583 37.7151 124.434 37.7151 131.652V276.136C37.7151 283.354 43.5533 289.205 50.755 289.205H97.1191C104.321 289.205 110.159 283.354 110.159 276.136V261.079C110.159 253.861 115.997 248.01 123.199 248.01C130.401 248.01 136.239 242.159 136.239 234.941V187.558C136.239 180.34 142.077 174.489 149.279 174.489H182.603C189.805 174.489 195.643 168.637 195.643 161.42V74.2933C195.643 67.0754 189.805 61.2242 182.603 61.2242Z" fill="#D2CFC6" stroke="#EDEBDC" stroke-width="8.82068" stroke-miterlimit="10"/>
    <rect x="161.243" y="98.3847" width="47.6317" height="29.9903" rx="4.41034" fill="white" stroke="#EDEBDC" stroke-width="2.94023"/>
    <rect x="94.7934" y="190.12" width="114.081" height="29.9903" rx="4.41034" fill="white" stroke="#EDEBDC" stroke-width="2.94023"/>
    <rect x="2.47011" y="144.252" width="82.9144" height="29.9903" rx="4.41034" fill="white" stroke="#EDEBDC" stroke-width="2.94023"/>
    <path d="M175.142 118.559C174.878 118.559 174.643 118.479 174.436 118.319C174.229 118.15 174.126 117.943 174.126 117.698V109.541C174.126 109.296 174.206 109.094 174.366 108.934C174.535 108.765 174.742 108.68 174.987 108.68H179.051C179.54 108.68 179.997 108.812 180.42 109.075C180.853 109.329 181.201 109.687 181.465 110.148C181.728 110.599 181.86 111.122 181.86 111.714C181.86 112.072 181.784 112.42 181.634 112.759C181.493 113.097 181.295 113.403 181.041 113.676C180.797 113.949 180.519 114.161 180.208 114.311L180.223 113.987C180.486 114.128 180.702 114.297 180.872 114.495C181.051 114.683 181.187 114.89 181.281 115.116C181.385 115.332 181.446 115.567 181.465 115.821C181.502 116.056 181.526 116.263 181.535 116.442C181.554 116.621 181.582 116.771 181.62 116.894C181.667 117.016 181.752 117.11 181.874 117.176C182.081 117.298 182.208 117.477 182.255 117.712C182.311 117.938 182.26 118.14 182.1 118.319C181.996 118.442 181.864 118.522 181.704 118.559C181.545 118.587 181.385 118.587 181.225 118.559C181.065 118.522 180.933 118.474 180.829 118.418C180.67 118.324 180.51 118.187 180.35 118.009C180.19 117.821 180.058 117.571 179.954 117.261C179.86 116.95 179.813 116.55 179.813 116.061C179.813 115.901 179.785 115.755 179.729 115.624C179.672 115.482 179.592 115.365 179.489 115.271C179.385 115.167 179.253 115.092 179.094 115.045C178.934 114.989 178.745 114.96 178.529 114.96H175.678L175.89 114.636V117.698C175.89 117.943 175.824 118.15 175.692 118.319C175.561 118.479 175.377 118.559 175.142 118.559ZM175.692 113.507H178.981C179.15 113.507 179.315 113.431 179.475 113.281C179.635 113.121 179.766 112.909 179.87 112.646C179.973 112.373 180.025 112.077 180.025 111.757C180.025 111.343 179.912 110.999 179.686 110.726C179.47 110.444 179.235 110.303 178.981 110.303H175.721L175.89 109.851V113.845L175.692 113.507ZM185.579 117.698C185.579 117.943 185.489 118.15 185.311 118.319C185.132 118.479 184.925 118.559 184.69 118.559C184.426 118.559 184.215 118.479 184.055 118.319C183.895 118.15 183.815 117.943 183.815 117.698V109.541C183.815 109.296 183.899 109.094 184.069 108.934C184.238 108.765 184.454 108.68 184.718 108.68C184.944 108.68 185.141 108.765 185.311 108.934C185.489 109.094 185.579 109.296 185.579 109.541V117.698ZM196.79 113.62C196.79 114.325 196.673 114.984 196.437 115.595C196.202 116.207 195.868 116.748 195.435 117.218C195.012 117.679 194.504 118.042 193.911 118.305C193.328 118.569 192.688 118.7 191.992 118.7C191.295 118.7 190.656 118.569 190.072 118.305C189.489 118.042 188.981 117.679 188.548 117.218C188.125 116.748 187.795 116.207 187.56 115.595C187.325 114.984 187.207 114.325 187.207 113.62C187.207 112.914 187.325 112.255 187.56 111.644C187.795 111.032 188.125 110.496 188.548 110.035C188.981 109.564 189.489 109.197 190.072 108.934C190.656 108.671 191.295 108.539 191.992 108.539C192.688 108.539 193.328 108.671 193.911 108.934C194.504 109.197 195.012 109.564 195.435 110.035C195.868 110.496 196.202 111.032 196.437 111.644C196.673 112.255 196.79 112.914 196.79 113.62ZM194.955 113.62C194.955 112.989 194.828 112.42 194.574 111.912C194.32 111.394 193.972 110.985 193.53 110.684C193.088 110.383 192.575 110.232 191.992 110.232C191.408 110.232 190.896 110.383 190.453 110.684C190.011 110.985 189.663 111.39 189.409 111.898C189.164 112.406 189.042 112.98 189.042 113.62C189.042 114.25 189.164 114.824 189.409 115.341C189.663 115.849 190.011 116.254 190.453 116.555C190.896 116.856 191.408 117.007 191.992 117.007C192.575 117.007 193.088 116.856 193.53 116.555C193.972 116.254 194.32 115.849 194.574 115.341C194.828 114.824 194.955 114.25 194.955 113.62Z" fill="#E37869"/>
    <path d="M107.707 200.415C108.611 200.415 109.283 200.627 109.725 201.05C110.168 201.474 110.389 202.099 110.389 202.927C110.389 203.369 110.281 203.76 110.064 204.099C109.848 204.428 109.528 204.687 109.104 204.875C108.681 205.054 108.159 205.143 107.538 205.143L107.594 204.508C107.886 204.508 108.22 204.55 108.596 204.635C108.973 204.71 109.335 204.851 109.683 205.058C110.041 205.256 110.332 205.538 110.558 205.905C110.793 206.263 110.911 206.724 110.911 207.288C110.911 207.909 110.807 208.417 110.6 208.812C110.403 209.208 110.139 209.513 109.81 209.73C109.481 209.946 109.128 210.097 108.752 210.181C108.375 210.257 108.013 210.294 107.665 210.294H104.151C103.906 210.294 103.699 210.214 103.53 210.054C103.37 209.885 103.29 209.678 103.29 209.433V201.276C103.29 201.031 103.37 200.829 103.53 200.669C103.699 200.5 103.906 200.415 104.151 200.415H107.707ZM107.453 202.08H104.941L105.125 201.855V204.409L104.955 204.282H107.496C107.768 204.282 108.013 204.193 108.229 204.014C108.446 203.835 108.554 203.576 108.554 203.238C108.554 202.833 108.451 202.542 108.244 202.363C108.046 202.175 107.783 202.08 107.453 202.08ZM107.566 205.947H104.998L105.125 205.835V208.812L104.983 208.671H107.665C108.098 208.671 108.441 208.558 108.695 208.333C108.949 208.097 109.076 207.749 109.076 207.288C109.076 206.865 108.992 206.559 108.822 206.371C108.653 206.183 108.451 206.065 108.215 206.018C107.98 205.971 107.764 205.947 107.566 205.947ZM119.552 200.401C119.797 200.401 119.994 200.486 120.145 200.655C120.295 200.815 120.371 201.017 120.371 201.262V206.371C120.371 207.152 120.201 207.843 119.863 208.445C119.533 209.048 119.077 209.518 118.494 209.857C117.91 210.196 117.233 210.365 116.461 210.365C115.69 210.365 115.008 210.196 114.415 209.857C113.832 209.518 113.37 209.048 113.032 208.445C112.702 207.843 112.538 207.152 112.538 206.371V201.262C112.538 201.017 112.622 200.815 112.792 200.655C112.961 200.486 113.178 200.401 113.441 200.401C113.657 200.401 113.85 200.486 114.02 200.655C114.198 200.815 114.288 201.017 114.288 201.262V206.371C114.288 206.841 114.387 207.251 114.584 207.599C114.791 207.937 115.059 208.201 115.389 208.389C115.727 208.577 116.085 208.671 116.461 208.671C116.866 208.671 117.242 208.577 117.59 208.389C117.938 208.201 118.221 207.937 118.437 207.599C118.653 207.251 118.762 206.841 118.762 206.371V201.262C118.762 201.017 118.832 200.815 118.973 200.655C119.115 200.486 119.307 200.401 119.552 200.401ZM123.35 200.415H128.077C128.322 200.415 128.524 200.495 128.684 200.655C128.854 200.806 128.938 201.003 128.938 201.248C128.938 201.483 128.854 201.676 128.684 201.826C128.524 201.968 128.322 202.038 128.077 202.038H124.126L124.253 201.798V204.55L124.14 204.437H127.442C127.687 204.437 127.889 204.517 128.049 204.677C128.219 204.828 128.303 205.025 128.303 205.27C128.303 205.505 128.219 205.698 128.049 205.849C127.889 205.99 127.687 206.06 127.442 206.06H124.182L124.253 205.947V208.798L124.14 208.671H128.077C128.322 208.671 128.524 208.756 128.684 208.925C128.854 209.085 128.938 209.273 128.938 209.49C128.938 209.725 128.854 209.918 128.684 210.069C128.524 210.219 128.322 210.294 128.077 210.294H123.35C123.105 210.294 122.898 210.214 122.729 210.054C122.569 209.885 122.489 209.678 122.489 209.433V201.276C122.489 201.031 122.569 200.829 122.729 200.669C122.898 200.5 123.105 200.415 123.35 200.415ZM138.059 200.415C138.285 200.415 138.468 200.49 138.61 200.641C138.751 200.791 138.821 200.98 138.821 201.205V209.433C138.821 209.678 138.737 209.885 138.567 210.054C138.407 210.214 138.205 210.294 137.96 210.294C137.838 210.294 137.711 210.275 137.579 210.238C137.457 210.191 137.363 210.13 137.297 210.054L131.751 203.012L132.118 202.786V209.504C132.118 209.73 132.042 209.918 131.892 210.069C131.751 210.219 131.562 210.294 131.327 210.294C131.101 210.294 130.918 210.219 130.777 210.069C130.636 209.918 130.565 209.73 130.565 209.504V201.276C130.565 201.031 130.645 200.829 130.805 200.669C130.974 200.5 131.181 200.415 131.426 200.415C131.558 200.415 131.694 200.443 131.835 200.5C131.976 200.547 132.08 200.622 132.146 200.726L137.523 207.585L137.283 207.754V201.205C137.283 200.98 137.353 200.791 137.495 200.641C137.636 200.49 137.824 200.415 138.059 200.415ZM150.032 205.355C150.032 206.06 149.914 206.719 149.679 207.331C149.444 207.942 149.11 208.483 148.677 208.954C148.254 209.415 147.746 209.777 147.153 210.04C146.57 210.304 145.93 210.435 145.234 210.435C144.537 210.435 143.897 210.304 143.314 210.04C142.731 209.777 142.223 209.415 141.79 208.954C141.367 208.483 141.037 207.942 140.802 207.331C140.567 206.719 140.449 206.06 140.449 205.355C140.449 204.649 140.567 203.99 140.802 203.379C141.037 202.767 141.367 202.231 141.79 201.77C142.223 201.3 142.731 200.933 143.314 200.669C143.897 200.406 144.537 200.274 145.234 200.274C145.93 200.274 146.57 200.406 147.153 200.669C147.746 200.933 148.254 201.3 148.677 201.77C149.11 202.231 149.444 202.767 149.679 203.379C149.914 203.99 150.032 204.649 150.032 205.355ZM148.197 205.355C148.197 204.724 148.07 204.155 147.816 203.647C147.562 203.13 147.214 202.72 146.772 202.419C146.33 202.118 145.817 201.968 145.234 201.968C144.65 201.968 144.137 202.118 143.695 202.419C143.253 202.72 142.905 203.125 142.651 203.633C142.406 204.141 142.284 204.715 142.284 205.355C142.284 205.985 142.406 206.559 142.651 207.077C142.905 207.585 143.253 207.989 143.695 208.29C144.137 208.591 144.65 208.742 145.234 208.742C145.817 208.742 146.33 208.591 146.772 208.29C147.214 207.989 147.562 207.585 147.816 207.077C148.07 206.559 148.197 205.985 148.197 205.355ZM154.827 210.435C154.169 210.435 153.576 210.355 153.049 210.196C152.522 210.026 152.019 209.734 151.539 209.321C151.417 209.217 151.323 209.099 151.257 208.968C151.191 208.836 151.158 208.704 151.158 208.573C151.158 208.356 151.233 208.168 151.384 208.008C151.544 207.839 151.741 207.754 151.977 207.754C152.155 207.754 152.315 207.81 152.456 207.923C152.814 208.215 153.167 208.436 153.515 208.587C153.872 208.737 154.31 208.812 154.827 208.812C155.176 208.812 155.495 208.761 155.787 208.657C156.079 208.544 156.314 208.398 156.493 208.22C156.672 208.032 156.761 207.82 156.761 207.585C156.761 207.302 156.676 207.062 156.507 206.865C156.338 206.667 156.079 206.503 155.731 206.371C155.383 206.23 154.94 206.122 154.404 206.046C153.896 205.971 153.449 205.858 153.063 205.708C152.678 205.548 152.353 205.35 152.09 205.115C151.835 204.87 151.643 204.588 151.511 204.268C151.379 203.939 151.313 203.572 151.313 203.167C151.313 202.556 151.469 202.033 151.779 201.601C152.099 201.168 152.527 200.839 153.063 200.613C153.6 200.387 154.192 200.274 154.842 200.274C155.453 200.274 156.018 200.368 156.535 200.556C157.062 200.735 157.49 200.966 157.819 201.248C158.092 201.464 158.229 201.714 158.229 201.996C158.229 202.203 158.149 202.391 157.989 202.56C157.829 202.73 157.641 202.814 157.424 202.814C157.283 202.814 157.156 202.772 157.043 202.687C156.893 202.556 156.69 202.433 156.436 202.32C156.182 202.198 155.914 202.099 155.632 202.024C155.35 201.939 155.086 201.897 154.842 201.897C154.437 201.897 154.094 201.949 153.811 202.052C153.538 202.156 153.331 202.297 153.19 202.476C153.049 202.654 152.979 202.861 152.979 203.097C152.979 203.379 153.059 203.614 153.219 203.802C153.388 203.981 153.628 204.127 153.938 204.24C154.249 204.343 154.62 204.437 155.053 204.522C155.618 204.626 156.112 204.748 156.535 204.889C156.968 205.03 157.325 205.214 157.608 205.439C157.89 205.656 158.102 205.933 158.243 206.272C158.384 206.601 158.455 207.006 158.455 207.486C158.455 208.097 158.285 208.624 157.946 209.066C157.608 209.509 157.161 209.847 156.606 210.083C156.06 210.318 155.467 210.435 154.827 210.435ZM167.656 202.631L164.607 209.8C164.541 209.979 164.438 210.12 164.297 210.224C164.165 210.318 164.019 210.365 163.859 210.365C163.605 210.365 163.417 210.294 163.295 210.153C163.172 210.012 163.111 209.838 163.111 209.631C163.111 209.546 163.125 209.457 163.154 209.363L166.668 200.923C166.743 200.735 166.856 200.589 167.006 200.486C167.166 200.382 167.336 200.34 167.514 200.359C167.684 200.359 167.839 200.41 167.98 200.514C168.131 200.608 168.239 200.744 168.305 200.923L171.777 209.193C171.824 209.316 171.847 209.429 171.847 209.532C171.847 209.786 171.762 209.989 171.593 210.139C171.433 210.29 171.254 210.365 171.057 210.365C170.887 210.365 170.732 210.313 170.591 210.21C170.459 210.106 170.356 209.965 170.281 209.786L167.246 202.716L167.656 202.631ZM165.045 208.079L165.821 206.456H169.631L169.9 208.079H165.045ZM174.806 209.433C174.806 209.678 174.717 209.885 174.538 210.054C174.359 210.214 174.152 210.294 173.917 210.294C173.654 210.294 173.442 210.214 173.282 210.054C173.122 209.885 173.042 209.678 173.042 209.433V201.276C173.042 201.031 173.127 200.829 173.296 200.669C173.466 200.5 173.682 200.415 173.945 200.415C174.171 200.415 174.369 200.5 174.538 200.669C174.717 200.829 174.806 201.031 174.806 201.276V209.433ZM177.945 210.294C177.681 210.294 177.446 210.214 177.239 210.054C177.032 209.885 176.929 209.678 176.929 209.433V201.276C176.929 201.031 177.009 200.829 177.169 200.669C177.338 200.5 177.545 200.415 177.79 200.415H181.854C182.343 200.415 182.8 200.547 183.223 200.81C183.656 201.064 184.004 201.422 184.268 201.883C184.531 202.335 184.663 202.857 184.663 203.449C184.663 203.807 184.587 204.155 184.437 204.494C184.296 204.833 184.098 205.138 183.844 205.411C183.6 205.684 183.322 205.896 183.012 206.046L183.026 205.722C183.289 205.863 183.505 206.032 183.675 206.23C183.854 206.418 183.99 206.625 184.084 206.851C184.188 207.067 184.249 207.302 184.268 207.556C184.305 207.792 184.329 207.999 184.338 208.177C184.357 208.356 184.385 208.507 184.423 208.629C184.47 208.751 184.555 208.845 184.677 208.911C184.884 209.034 185.011 209.212 185.058 209.448C185.114 209.673 185.063 209.876 184.903 210.054C184.799 210.177 184.667 210.257 184.508 210.294C184.348 210.323 184.188 210.323 184.028 210.294C183.868 210.257 183.736 210.21 183.632 210.153C183.473 210.059 183.313 209.923 183.153 209.744C182.993 209.556 182.861 209.306 182.757 208.996C182.663 208.685 182.616 208.286 182.616 207.796C182.616 207.636 182.588 207.491 182.532 207.359C182.475 207.218 182.395 207.1 182.292 207.006C182.188 206.902 182.057 206.827 181.897 206.78C181.737 206.724 181.548 206.695 181.332 206.695H178.481L178.693 206.371V209.433C178.693 209.678 178.627 209.885 178.495 210.054C178.364 210.214 178.18 210.294 177.945 210.294ZM178.495 205.242H181.784C181.953 205.242 182.118 205.167 182.278 205.016C182.438 204.856 182.569 204.644 182.673 204.381C182.776 204.108 182.828 203.812 182.828 203.492C182.828 203.078 182.715 202.734 182.489 202.462C182.273 202.179 182.038 202.038 181.784 202.038H178.524L178.693 201.587V205.581L178.495 205.242ZM187.479 200.415H192.207C192.451 200.415 192.653 200.495 192.813 200.655C192.983 200.806 193.067 201.003 193.067 201.248C193.067 201.483 192.983 201.676 192.813 201.826C192.653 201.968 192.451 202.038 192.207 202.038H188.255L188.382 201.798V204.55L188.269 204.437H191.571C191.816 204.437 192.018 204.517 192.178 204.677C192.348 204.828 192.432 205.025 192.432 205.27C192.432 205.505 192.348 205.698 192.178 205.849C192.018 205.99 191.816 206.06 191.571 206.06H188.311L188.382 205.947V208.798L188.269 208.671H192.207C192.451 208.671 192.653 208.756 192.813 208.925C192.983 209.085 193.067 209.273 193.067 209.49C193.067 209.725 192.983 209.918 192.813 210.069C192.653 210.219 192.451 210.294 192.207 210.294H187.479C187.234 210.294 187.027 210.214 186.858 210.054C186.698 209.885 186.618 209.678 186.618 209.433V201.276C186.618 201.031 186.698 200.829 186.858 200.669C187.027 200.5 187.234 200.415 187.479 200.415ZM197.87 210.435C197.211 210.435 196.618 210.355 196.091 210.196C195.564 210.026 195.061 209.734 194.581 209.321C194.459 209.217 194.365 209.099 194.299 208.968C194.233 208.836 194.2 208.704 194.2 208.573C194.2 208.356 194.275 208.168 194.426 208.008C194.586 207.839 194.784 207.754 195.019 207.754C195.198 207.754 195.357 207.81 195.499 207.923C195.856 208.215 196.209 208.436 196.557 208.587C196.915 208.737 197.352 208.812 197.87 208.812C198.218 208.812 198.538 208.761 198.829 208.657C199.121 208.544 199.356 208.398 199.535 208.22C199.714 208.032 199.803 207.82 199.803 207.585C199.803 207.302 199.718 207.062 199.549 206.865C199.38 206.667 199.121 206.503 198.773 206.371C198.425 206.23 197.983 206.122 197.446 206.046C196.938 205.971 196.491 205.858 196.105 205.708C195.72 205.548 195.395 205.35 195.132 205.115C194.878 204.87 194.685 204.588 194.553 204.268C194.421 203.939 194.355 203.572 194.355 203.167C194.355 202.556 194.511 202.033 194.821 201.601C195.141 201.168 195.569 200.839 196.105 200.613C196.642 200.387 197.235 200.274 197.884 200.274C198.495 200.274 199.06 200.368 199.577 200.556C200.104 200.735 200.532 200.966 200.862 201.248C201.134 201.464 201.271 201.714 201.271 201.996C201.271 202.203 201.191 202.391 201.031 202.56C200.871 202.73 200.683 202.814 200.466 202.814C200.325 202.814 200.198 202.772 200.085 202.687C199.935 202.556 199.733 202.433 199.479 202.32C199.224 202.198 198.956 202.099 198.674 202.024C198.392 201.939 198.128 201.897 197.884 201.897C197.479 201.897 197.136 201.949 196.853 202.052C196.581 202.156 196.374 202.297 196.232 202.476C196.091 202.654 196.021 202.861 196.021 203.097C196.021 203.379 196.101 203.614 196.261 203.802C196.43 203.981 196.67 204.127 196.98 204.24C197.291 204.343 197.663 204.437 198.095 204.522C198.66 204.626 199.154 204.748 199.577 204.889C200.01 205.03 200.368 205.214 200.65 205.439C200.932 205.656 201.144 205.933 201.285 206.272C201.426 206.601 201.497 207.006 201.497 207.486C201.497 208.097 201.327 208.624 200.989 209.066C200.65 209.509 200.203 209.847 199.648 210.083C199.102 210.318 198.509 210.435 197.87 210.435Z" fill="#E37869"/>
    <path d="M13.5477 164.568C12.889 164.568 12.2963 164.488 11.7694 164.328C11.2425 164.158 10.7392 163.867 10.2593 163.453C10.137 163.349 10.0429 163.232 9.97705 163.1C9.91119 162.968 9.87826 162.837 9.87826 162.705C9.87826 162.488 9.95353 162.3 10.1041 162.14C10.264 161.971 10.4616 161.886 10.6968 161.886C10.8756 161.886 11.0355 161.943 11.1767 162.056C11.5342 162.347 11.887 162.568 12.2351 162.719C12.5927 162.869 13.0302 162.945 13.5477 162.945C13.8958 162.945 14.2157 162.893 14.5073 162.79C14.799 162.677 15.0342 162.531 15.213 162.352C15.3918 162.164 15.4812 161.952 15.4812 161.717C15.4812 161.435 15.3965 161.195 15.2271 160.997C15.0578 160.8 14.799 160.635 14.4509 160.503C14.1028 160.362 13.6606 160.254 13.1243 160.179C12.6162 160.103 12.1693 159.99 11.7835 159.84C11.3978 159.68 11.0732 159.482 10.8097 159.247C10.5557 159.003 10.3628 158.72 10.2311 158.4C10.0994 158.071 10.0335 157.704 10.0335 157.3C10.0335 156.688 10.1887 156.166 10.4992 155.733C10.8191 155.3 11.2472 154.971 11.7835 154.745C12.3198 154.519 12.9126 154.406 13.5618 154.406C14.1733 154.406 14.7379 154.5 15.2553 154.689C15.7822 154.867 16.2103 155.098 16.5396 155.38C16.8125 155.597 16.9489 155.846 16.9489 156.128C16.9489 156.335 16.8689 156.523 16.709 156.693C16.549 156.862 16.3609 156.947 16.1445 156.947C16.0033 156.947 15.8763 156.904 15.7634 156.82C15.6129 156.688 15.4106 156.566 15.1566 156.453C14.9025 156.33 14.6344 156.232 14.3521 156.156C14.0698 156.072 13.8064 156.029 13.5618 156.029C13.1572 156.029 12.8138 156.081 12.5315 156.185C12.2587 156.288 12.0517 156.429 11.9105 156.608C11.7694 156.787 11.6988 156.994 11.6988 157.229C11.6988 157.511 11.7788 157.746 11.9388 157.935C12.1081 158.113 12.348 158.259 12.6585 158.372C12.969 158.476 13.3407 158.57 13.7735 158.654C14.338 158.758 14.8319 158.88 15.2553 159.021C15.6881 159.162 16.0457 159.346 16.3279 159.572C16.6102 159.788 16.8219 160.066 16.963 160.404C17.1042 160.734 17.1747 161.138 17.1747 161.618C17.1747 162.23 17.0054 162.757 16.6667 163.199C16.3279 163.641 15.881 163.98 15.3259 164.215C14.7802 164.45 14.1875 164.568 13.5477 164.568ZM22.4203 156.763L19.3718 163.933C19.306 164.111 19.2025 164.253 19.0614 164.356C18.9296 164.45 18.7838 164.497 18.6238 164.497C18.3698 164.497 18.1816 164.427 18.0593 164.286C17.937 164.144 17.8759 163.97 17.8759 163.763C17.8759 163.679 17.89 163.589 17.9182 163.495L21.4324 155.056C21.5076 154.867 21.6205 154.722 21.7711 154.618C21.931 154.515 22.1004 154.472 22.2791 154.491C22.4485 154.491 22.6037 154.543 22.7449 154.646C22.8954 154.74 23.0036 154.877 23.0695 155.056L26.5413 163.326C26.5883 163.448 26.6119 163.561 26.6119 163.665C26.6119 163.919 26.5272 164.121 26.3578 164.271C26.1979 164.422 26.0191 164.497 25.8215 164.497C25.6522 164.497 25.4969 164.445 25.3558 164.342C25.2241 164.238 25.1206 164.097 25.0453 163.919L22.011 156.848L22.4203 156.763ZM19.8093 162.211L20.5856 160.588H24.3961L24.6642 162.211H19.8093ZM35.3009 154.547C35.5267 154.547 35.7102 154.623 35.8513 154.773C35.9924 154.924 36.063 155.112 36.063 155.338V163.566C36.063 163.81 35.9783 164.017 35.809 164.187C35.649 164.347 35.4467 164.427 35.2021 164.427C35.0798 164.427 34.9528 164.408 34.821 164.37C34.6987 164.323 34.6046 164.262 34.5388 164.187L28.9923 157.144L29.3593 156.918V163.636C29.3593 163.862 29.284 164.05 29.1335 164.201C28.9923 164.351 28.8042 164.427 28.5689 164.427C28.3431 164.427 28.1597 164.351 28.0185 164.201C27.8774 164.05 27.8068 163.862 27.8068 163.636V155.408C27.8068 155.164 27.8868 154.961 28.0468 154.802C28.2161 154.632 28.4231 154.547 28.6677 154.547C28.7995 154.547 28.9359 154.576 29.077 154.632C29.2181 154.679 29.3216 154.754 29.3875 154.858L34.7646 161.717L34.5247 161.886V155.338C34.5247 155.112 34.5952 154.924 34.7364 154.773C34.8775 154.623 35.0657 154.547 35.3009 154.547ZM41.5297 164.427C41.2663 164.427 41.0499 164.347 40.8805 164.187C40.7112 164.017 40.6265 163.81 40.6265 163.566V155.38H42.4612V163.566C42.4612 163.81 42.3718 164.017 42.193 164.187C42.0237 164.347 41.8026 164.427 41.5297 164.427ZM38.4107 156.17C38.1661 156.17 37.9591 156.095 37.7897 155.945C37.6298 155.794 37.5498 155.597 37.5498 155.352C37.5498 155.107 37.6298 154.914 37.7897 154.773C37.9591 154.623 38.1661 154.547 38.4107 154.547H44.6769C44.9216 154.547 45.1239 154.623 45.2838 154.773C45.4532 154.924 45.5378 155.121 45.5378 155.366C45.5378 155.611 45.4532 155.808 45.2838 155.959C45.1239 156.1 44.9216 156.17 44.6769 156.17H38.4107ZM48.7835 163.566C48.7835 163.81 48.6941 164.017 48.5154 164.187C48.3366 164.347 48.1296 164.427 47.8944 164.427C47.6309 164.427 47.4192 164.347 47.2593 164.187C47.0994 164.017 47.0194 163.81 47.0194 163.566V155.408C47.0194 155.164 47.1041 154.961 47.2734 154.802C47.4428 154.632 47.6592 154.547 47.9226 154.547C48.1484 154.547 48.346 154.632 48.5154 154.802C48.6941 154.961 48.7835 155.164 48.7835 155.408V163.566ZM54.5331 156.763L51.4846 163.933C51.4188 164.111 51.3153 164.253 51.1741 164.356C51.0424 164.45 50.8966 164.497 50.7366 164.497C50.4826 164.497 50.2944 164.427 50.1721 164.286C50.0498 164.144 49.9886 163.97 49.9886 163.763C49.9886 163.679 50.0028 163.589 50.031 163.495L53.5451 155.056C53.6204 154.867 53.7333 154.722 53.8839 154.618C54.0438 154.515 54.2132 154.472 54.3919 154.491C54.5613 154.491 54.7165 154.543 54.8577 154.646C55.0082 154.74 55.1164 154.877 55.1823 155.056L58.6541 163.326C58.7011 163.448 58.7246 163.561 58.7246 163.665C58.7246 163.919 58.64 164.121 58.4706 164.271C58.3107 164.422 58.1319 164.497 57.9343 164.497C57.7649 164.497 57.6097 164.445 57.4686 164.342C57.3369 164.238 57.2334 164.097 57.1581 163.919L54.1238 156.848L54.5331 156.763ZM51.9221 162.211L52.6984 160.588H56.5089L56.777 162.211H51.9221ZM64.508 164.568C63.793 164.568 63.1249 164.436 62.504 164.173C61.883 163.909 61.3373 163.547 60.8668 163.086C60.3964 162.615 60.0248 162.074 59.7519 161.463C59.4885 160.851 59.3567 160.193 59.3567 159.487C59.3567 158.781 59.4885 158.123 59.7519 157.511C60.0248 156.9 60.3964 156.363 60.8668 155.902C61.3373 155.432 61.883 155.065 62.504 154.802C63.1249 154.538 63.793 154.406 64.508 154.406C64.9502 154.406 65.3783 154.453 65.7923 154.547C66.2063 154.642 66.5874 154.783 66.9355 154.971C67.0766 155.046 67.1801 155.15 67.246 155.281C67.3212 155.404 67.3589 155.531 67.3589 155.662C67.3589 155.888 67.2836 156.091 67.1331 156.269C66.9825 156.448 66.7896 156.537 66.5544 156.537C66.4792 156.537 66.3992 156.528 66.3145 156.509C66.2392 156.49 66.164 156.462 66.0887 156.425C65.8535 156.321 65.6041 156.241 65.3407 156.185C65.0773 156.128 64.7997 156.1 64.508 156.1C63.8965 156.1 63.3366 156.255 62.8286 156.566C62.3299 156.867 61.93 157.276 61.629 157.793C61.3373 158.302 61.1914 158.866 61.1914 159.487C61.1914 160.099 61.3373 160.663 61.629 161.181C61.93 161.698 62.3299 162.112 62.8286 162.423C63.3366 162.724 63.8965 162.874 64.508 162.874C64.7903 162.874 65.1008 162.846 65.4395 162.79C65.7782 162.733 66.0558 162.658 66.2722 162.564L66.1451 162.987V160.574L66.3851 160.785H64.8185C64.5739 160.785 64.3669 160.705 64.1975 160.546C64.0376 160.386 63.9576 160.183 63.9576 159.939C63.9576 159.694 64.0376 159.492 64.1975 159.332C64.3669 159.172 64.5739 159.092 64.8185 159.092H67.1331C67.3777 159.092 67.58 159.177 67.7399 159.346C67.8999 159.506 67.9798 159.708 67.9798 159.953V162.945C67.9798 163.133 67.9328 163.288 67.8387 163.41C67.754 163.533 67.6552 163.632 67.5423 163.707C67.1095 163.97 66.6344 164.182 66.1169 164.342C65.6088 164.492 65.0725 164.568 64.508 164.568ZM78.7663 159.487C78.7663 160.193 78.6487 160.851 78.4135 161.463C78.1783 162.074 77.8443 162.615 77.4115 163.086C76.9881 163.547 76.48 163.909 75.8873 164.173C75.3039 164.436 74.6641 164.568 73.9679 164.568C73.2716 164.568 72.6318 164.436 72.0485 164.173C71.4652 163.909 70.9571 163.547 70.5243 163.086C70.1009 162.615 69.7716 162.074 69.5364 161.463C69.3011 160.851 69.1835 160.193 69.1835 159.487C69.1835 158.781 69.3011 158.123 69.5364 157.511C69.7716 156.9 70.1009 156.363 70.5243 155.902C70.9571 155.432 71.4652 155.065 72.0485 154.802C72.6318 154.538 73.2716 154.406 73.9679 154.406C74.6641 154.406 75.3039 154.538 75.8873 154.802C76.48 155.065 76.9881 155.432 77.4115 155.902C77.8443 156.363 78.1783 156.9 78.4135 157.511C78.6487 158.123 78.7663 158.781 78.7663 159.487ZM76.9316 159.487C76.9316 158.857 76.8046 158.287 76.5506 157.779C76.2965 157.262 75.9484 156.853 75.5062 156.552C75.064 156.25 74.5512 156.1 73.9679 156.1C73.3845 156.1 72.8718 156.25 72.4295 156.552C71.9873 156.853 71.6392 157.257 71.3852 157.765C71.1406 158.273 71.0182 158.847 71.0182 159.487C71.0182 160.117 71.1406 160.691 71.3852 161.209C71.6392 161.717 71.9873 162.121 72.4295 162.423C72.8718 162.724 73.3845 162.874 73.9679 162.874C74.5512 162.874 75.064 162.724 75.5062 162.423C75.9484 162.121 76.2965 161.717 76.5506 161.209C76.8046 160.691 76.9316 160.117 76.9316 159.487Z" fill="#E37869"/>
</svg>
