<svg width="1440" height="705" viewBox="0 0 1440 705" fill="none" xmlns="http://www.w3.org/2000/svg">
<path d="M95.6457 203.113H357.866V324.551H95.6457V203.113Z" fill="white"/>
<path d="M240.995 251.204H320.789V372.911H240.995V251.204Z" fill="white"/>
<path d="M95.9144 56.9575H297.415V222.994H95.9144V56.9575Z" fill="white"/>
<path d="M0 56.9576L95.9144 56.9575V152.872H0V56.9576Z" fill="white"/>
<path d="M240.995 142.394H442.496V264.1H240.995V142.394Z" fill="white"/>
<path d="M348.999 83.5556H442.496V205.262H348.999V83.5556Z" fill="white"/>
<circle cx="357.866" cy="277.803" r="13.1201" fill="white" stroke="black" stroke-width="6"/>
<circle cx="128.154" cy="317.297" r="13.1201" fill="white" stroke="black" stroke-width="6"/>
<circle cx="405.42" cy="181.888" r="13.1201" fill="white" stroke="black" stroke-width="6"/>
<circle cx="357.866" cy="218.964" r="13.1201" fill="white" stroke="black" stroke-width="6"/>
<circle cx="97.5263" cy="277.803" r="13.1201" fill="white" stroke="black" stroke-width="6"/>
<circle cx="304.669" cy="218.964" r="13.1201" fill="white" stroke="black" stroke-width="6"/>
<circle cx="96.7204" cy="231.86" r="13.1201" fill="white" stroke="black" stroke-width="6"/>
<path d="M296.609 389.031H440.884V515.574H296.609V389.031Z" fill="white"/>
<path d="M332.879 451.899H508.588V577.636H332.879V451.899Z" fill="white"/>
<path d="M332.879 577.636H413.48V704.984H332.879V577.636Z" fill="white"/>
<circle cx="508.588" cy="518.798" r="13.1201" fill="white" stroke="black" stroke-width="6"/>
<circle cx="412.674" cy="610.414" r="13.1201" fill="white" stroke="black" stroke-width="6"/>
<circle cx="332.073" cy="559.904" r="13.1201" fill="white" stroke="black" stroke-width="6"/>
<path d="M671.312 91.8844L798.363 92.6165L797.854 180.948L670.803 180.216L671.312 91.8844Z" fill="white"/>
<path d="M742.62 180.242L905.19 181.171L904.535 293.666L741.966 292.738L742.62 180.242Z" fill="white"/>
<path d="M777.758 61.5899L905.948 62.322L905.214 188.651L777.023 187.918L777.758 61.5899Z" fill="white"/>
<path d="M556.023 133.342L589.069 133.533L588.651 206.072L555.605 205.881L556.023 133.342Z" fill="white"/>
<path d="M659.519 173.291L659.519 224.875H603.099L603.099 173.291H659.519Z" fill="white"/>
<path d="M715.94 141.051V224.875L603.099 224.875L603.099 141.051H715.94Z" fill="white"/>
<path d="M757.852 3.17084e-06V72.5403H711.104L711.104 1.12741e-06L757.852 3.17084e-06Z" fill="white"/>
<path d="M829.586 3.17084e-06V37.8822L757.046 37.8822V0L829.586 3.17084e-06Z" fill="white"/>
<path d="M572.397 216.647L627.865 216.967L627.535 274.101L572.068 273.782L572.397 216.647Z" fill="white"/>
<circle cx="654.683" cy="186.187" r="13.1201" fill="white" stroke="black" stroke-width="6"/>
<circle cx="575.695" cy="186.187" r="13.1201" fill="white" stroke="black" stroke-width="6"/>
<circle cx="880.364" cy="108.004" r="13.1201" fill="white" stroke="black" stroke-width="6"/>
<circle cx="883.38" cy="245.025" r="13.1201" fill="white" stroke="black" stroke-width="6"/>
<circle cx="718.357" cy="141.857" r="13.1201" fill="white" stroke="black" stroke-width="6"/>
<path d="M904.876 151.241L1262.17 153.299L1261.5 269.716L904.205 267.657L904.876 151.241Z" fill="white"/>
<path d="M1061.59 257.581V372.718H1005.84V257.581H1061.59Z" fill="white"/>
<path d="M1132.7 257.286L1231.88 257.857L1231.47 329.205L1132.29 328.633L1132.7 257.286Z" fill="white"/>
<path d="M1194.92 328.444L1251.2 328.769L1251.02 360.216L1194.73 359.892L1194.92 328.444Z" fill="white"/>
<path d="M1283.89 152.058L1313.32 152.228L1313.06 197.524L1283.63 197.355L1283.89 152.058Z" fill="white"/>
<path d="M1351.66 184.925L1381.09 185.095L1380.6 270.964L1351.17 270.795L1351.66 184.925Z" fill="white"/>
<path d="M1283.97 232.034L1298.93 232.121L1298.81 251.567L1283.86 251.481L1283.97 232.034Z" fill="white"/>
<path d="M905.574 39.7878L1421.74 42.7619L1421.09 154.682L904.93 151.708L905.574 39.7878Z" fill="white"/>
<circle cx="1247.64" cy="326.091" r="13.1201" fill="white" stroke="black" stroke-width="6"/>
<circle cx="1210.56" cy="170.533" r="13.1201" fill="white" stroke="black" stroke-width="6"/>
<circle cx="1262.15" cy="225.341" r="13.1201" fill="white" stroke="black" stroke-width="6"/>
<circle cx="1300.03" cy="178.593" r="13.1201" fill="white" stroke="black" stroke-width="6"/>
<circle cx="1381.44" cy="214.057" r="13.1201" fill="white" stroke="black" stroke-width="6"/>
<circle cx="1382.24" cy="261.611" r="13.1201" fill="white" stroke="black" stroke-width="6"/>
<circle cx="1306.48" cy="247.909" r="13.1201" fill="white" stroke="black" stroke-width="6"/>
<circle cx="1215.4" cy="268.059" r="13.1201" fill="white" stroke="black" stroke-width="6"/>
<circle cx="1254.9" cy="268.059" r="13.1201" fill="white" stroke="black" stroke-width="6"/>
<path d="M595.368 335.297H799.555V467.482H595.368V335.297Z" fill="white"/>
<path d="M707.402 467.482H817.019V627.071H707.402V467.482Z" fill="white"/>
<path d="M752.539 440.078H865.379V512.618H752.539V440.078Z" fill="white"/>
<path d="M866.991 515.842H900.037V584.352H866.991V515.842Z" fill="white"/>
<path d="M871.021 314.879V389.031H798.481V314.879L871.021 314.879Z" fill="white"/>
<circle cx="867.26" cy="378.284" r="13.1201" fill="white" stroke="black" stroke-width="6"/>
<path d="M1318.83 449.313V549.056L1194.91 549.056L1194.91 449.313L1318.83 449.313Z" fill="white"/>
<path d="M1257.37 477.523V577.266L1160.65 577.266L1160.65 477.523L1257.37 477.523Z" fill="white"/>
<path d="M1355.1 477.523V577.266L1289.61 577.266V477.523L1355.1 477.523Z" fill="white"/>
<path d="M1355.44 586.669V617.566H1317.82V586.669L1355.44 586.669Z" fill="white"/>
<path d="M1394.44 451.949L1440 452.211L1439.65 513.704L1394.09 513.441L1394.44 451.949Z" fill="white"/>
<path d="M1393.95 525.883L1439.51 526.146L1439.21 576.813L1393.65 576.551L1393.95 525.883Z" fill="white"/>
<circle cx="1397.07" cy="465.332" r="13.1201" fill="white" stroke="black" stroke-width="6"/>
<circle cx="1349.79" cy="533.037" r="13.1201" fill="white" stroke="black" stroke-width="6"/>
<circle cx="1275.64" cy="546.739" r="13.1201" fill="white" stroke="black" stroke-width="6"/>
</svg>
