<?xml version="1.0" encoding="UTF-8"?>
<svg id="Layer_1" data-name="Layer 1" xmlns="http://www.w3.org/2000/svg" viewBox="0 0 1293.58466 643.85903">
  <defs>
    <style>
      .cls-1, .cls-2, .cls-3, .cls-4 {
        fill: #edebdc;
      }

      .cls-1, .cls-5 {
        stroke: #000;
        stroke-width: 6px;
      }

      .cls-3 {
        stroke-linejoin: round;
      }

      .cls-3, .cls-4 {
        stroke: #fff;
        stroke-width: 15px;
      }

      .cls-5 {
        fill: #fff;
      }

      .cls-6 {
        fill: #b2dee9;
      }

      .cls-4 {
        stroke-miterlimit: 10;
      }
    </style>
  </defs>
  <rect class="cls-6" width="1293.58466" height="643.85903"/>
  <path class="cls-3" d="M317.39003,99.36425v19.314c0,9.08646-7.36603,16.4525-16.4525,16.4525h-12.87601c-9.08646,0-16.4525-7.36603-16.4525-16.4525v-42.92002c0-9.08646-7.36603-16.4525-16.4525-16.4525H24.10553c-9.08646,0-16.4525,7.36603-16.4525,16.4525v52.21903c0,9.08646,7.36603,16.4525,16.4525,16.4525h52.21903c9.08646,0,16.4525,7.36603,16.4525,16.4525v28.13649h-.23804v91.3235c0,9.08646,7.36603,16.4525,16.4525,16.4525h96.09201c9.08646,0,16.4525,7.36603,16.4525,16.4525v10.01401c0,9.08646,7.36603,16.4525,16.4525,16.4525h37.913c9.08646,0,16.4525-7.36603,16.4525-16.4525v-10.01401c0-9.08646,7.36603-16.4525,16.4525-16.4525h.00003c9.08646,0,16.4525-7.36603,16.4525-16.4525v-20.74503c0-9.08646,7.36603-16.4525,16.4525-16.4525h42.20401c9.08646,0,16.4525-7.36603,16.4525-16.4525v-127.32797c0-9.08646-7.36603-16.4525-16.4525-16.4525h-50.07303c-9.08646,0-16.4525,7.36603-16.4525,16.4525Z"/>
  <circle class="cls-5" cx="325.25902" cy="255.30574" r="11.30661"/>
  <circle class="cls-5" cx="121.39003" cy="290.35676" r="11.3066"/>
  <circle class="cls-5" cx="367.46303" cy="170.18174" r="11.30661"/>
  <circle class="cls-5" cx="325.25902" cy="203.08674" r="11.30661"/>
  <circle class="cls-5" cx="94.20803" cy="255.30574" r="11.3066"/>
  <circle class="cls-5" cx="278.04705" cy="203.08674" r="11.30661"/>
  <circle class="cls-5" cx="93.49204" cy="214.53175" r="11.3066"/>
  <path class="cls-4" d="M446.14905,409.81672h-34.33602c-7.11122,0-12.87599-5.76478-12.87599-12.87599v-30.04397c0-7.11122-5.76478-12.87599-12.87599-12.87599h-102.29098c-7.11122,0-12.87599,5.76478-12.87599,12.87599v86.55502c0,7.11122,5.76478,12.87599,12.87599,12.87599h6.43698c7.11122,0,12.87599,5.76478,12.87599,12.87599v142.35c0,7.11122,5.76478,12.87599,12.87599,12.87599h45.78103c7.11122,0,12.87599-5.76478,12.87599-12.87599v-14.83486c0-7.11122,5.76478-12.87599,12.87599-12.87599h.00003c7.11122,0,12.87599-5.76478,12.87599-12.87599v-46.68319c0-7.11122,5.76478-12.87599,12.87599-12.87599h32.90499c7.11122,0,12.87599-5.76478,12.87599-12.87599v-85.83902c0-7.11122-5.76478-12.87599-12.87599-12.87599Z"/>
  <circle class="cls-1" cx="459.02504" cy="469.18873" r="11.30658"/>
  <circle class="cls-1" cx="373.90102" cy="550.49775" r="11.30659"/>
  <circle class="cls-1" cx="302.36803" cy="505.67073" r="11.30659"/>
  <path class="cls-2" d="M592.97701,162.55174l-.00098,45.78101h-50.07202v-45.78101h50.073Z"/>
  <g>
    <path class="cls-4" d="M799.87671,63.99928l-90.16078-.51509c-6.51875-.03724-11.83362,5.2167-11.87154,11.73545l-.02224,3.82326c-.03792,6.51898-5.35316,11.77302-11.87214,11.73545l-70.70374-.40756c-6.51928-.03758-11.83464,5.21692-11.87215,11.73619l-.11561,20.09438c-.03735,6.49272-5.31128,11.73639-11.80411,11.73639h-36.7461c-6.51934,0-11.8043,5.28497-11.8043,11.8043v43.57296c0,6.54586-5.32642,11.84174-11.87217,11.80411l-3.57279-.02054c-6.51919-.03748-11.83444,5.21694-11.87198,11.73613l-.15604,27.09802c-.03754,6.51917,5.21682,11.83446,11.73599,11.87208l25.61976.14783c6.51928.03762,11.83467-5.21685,11.87222-11.73613l.11602-20.14748c.03739-6.4927,5.3113-11.73632,11.8041-11.73632h54.6656c6.51934,0,11.8043-5.28497,11.8043-11.8043v-15.72819c0-6.54592,5.32653-11.84183,11.87234-11.8041h.00002c6.51944.03758,11.77394,5.35324,11.73606,11.87268l-.44085,75.88668c-.03787,6.51968,5.21701,11.83545,11.73669,11.87268l120.67193.68915c6.51873.03723,11.83358-5.21669,11.87151-11.73542l.47368-81.39951.05963.00037.58333-100.31072c.03791-6.5197-5.21696-11.8355-11.73666-11.87275Z"/>
    <rect class="cls-4" x="483.41251" y="144.70649" width="64.38004" height="29.32849" rx="14.66423" ry="14.66423" transform="translate(353.26325 674.04632) rotate(-89.66983)"/>
    <path class="cls-4" d="M695.62702,42.37574h32.90402c8.49413,0,15.37999-6.88586,15.37999-15.37999v-2.86002c0-8.49413-6.88586-15.37999-15.37999-15.37999h-74.39327c-8.49404,0-15.37986,6.88571-15.37999,15.37976l-.00051,33.62003c-.00013,8.49422,6.88576,15.38022,15.37999,15.38022h10.72978c8.49413,0,15.37999-6.88586,15.37999-15.37999v-.00003c0-8.49413,6.88586-15.37999,15.37999-15.37999Z"/>
  </g>
  <circle class="cls-1" cx="588.68404" cy="173.99674" r="11.30659"/>
  <circle class="cls-1" cx="518.58205" cy="173.99674" r="11.30659"/>
  <circle class="cls-1" cx="788.97603" cy="104.60975" r="11.30659"/>
  <circle class="cls-1" cx="791.65206" cy="226.21574" r="11.30659"/>
  <circle class="cls-1" cx="645.19503" cy="134.65376" r="11.30659"/>
  <g>
    <rect class="cls-4" x="1181.98791" y="197.9965" width="76.21025" height="26.12043" rx="13.0602" ry="13.0602" transform="translate(1001.98653 1429.90925) rotate(-89.66877)"/>
    <path class="cls-4" d="M1166.03873,254.89183h.00002c6.79688.0412,12.33851-5.76259,12.37793-12.9635l.04278-7.81388c.03942-7.2017-5.43946-13.07353-12.23709-13.11474h-.00008c-6.79691-.0412-12.33856,5.76264-12.37793,12.96359l-.04272,7.81388c-.03938,7.20166,5.43949,13.07344,12.23709,13.11465Z"/>
    <path class="cls-4" d="M820.10342,44.11819c-4.83435-.02785-8.77593,3.86859-8.80377,8.70294l-.51923,90.16094-.05035-.00031-.54462,94.56662c-.02784,4.83433,3.86858,8.7759,8.70291,8.80376l72.74461.41914c4.81466.02774,8.70306,3.93861,8.70306,8.75335v75.26462c0,4.83442,3.91907,8.75349,8.75349,8.75349h31.97c4.83442,0,8.75349-3.91907,8.75349-8.75349v-74.87866c0-4.85413,3.94987-8.78131,8.80392-8.75335l45.4915.26207c4.83463.02785,8.73117,3.96988,8.70292,8.80451l-.20712,35.43984c-.02826,4.83463,3.86829,8.77666,8.70292,8.80451l38.07996.21935c4.83425.02785,8.73065,3.96929,8.70293,8.80354l-.05685,9.91563c-.02772,4.83423,3.86865,8.77566,8.70287,8.80354l32.44334.18708c4.83447.02788,8.77612-3.86873,8.80382-8.70319l.05961-10.40334c.0277-4.83422-3.86866-8.77562-8.70287-8.8035h-.00002c-4.83461-.02788-8.73113-3.96991-8.70287-8.80451l.20431-34.95318c.02826-4.83406,3.96973-8.73004,8.80379-8.70218l8.83489.05091c4.83418.02786,8.77571-3.86832,8.80379-8.7025l.49609-85.39966c.02808-4.83417,3.96959-8.73035,8.80377-8.7025l1.75701.01012c4.83421.02785,8.73059,3.96922,8.70293,8.80343l-.12054,21.06771c-.02766,4.83414,3.86861,8.77548,8.70275,8.80343l8.6133.04979c4.83454.02795,8.77629-3.86872,8.80395-8.70326l.12053-21.06653c.02766-4.83448,3.9693-8.73112,8.80378-8.70326l78.15207.45023c4.83441.02785,8.77603-3.8687,8.80378-8.70311l.46959-81.82228c.02774-4.83427-3.86866-8.77574-8.70292-8.80358l-440.5865-2.53813Z"/>
  </g>
  <circle class="cls-1" cx="1114.93306" cy="298.16175" r="11.30661"/>
  <circle class="cls-1" cx="1082.03304" cy="160.10374" r="11.30663"/>
  <circle class="cls-1" cx="1127.81307" cy="208.74574" r="11.30663"/>
  <circle class="cls-1" cx="1161.43306" cy="167.25675" r="11.30663"/>
  <circle class="cls-1" cx="1233.68306" cy="198.73075" r="11.30663"/>
  <circle class="cls-1" cx="1234.39302" cy="240.93574" r="11.30663"/>
  <circle class="cls-1" cx="1167.15303" cy="228.77476" r="11.30663"/>
  <circle class="cls-1" cx="1086.32308" cy="246.65876" r="11.30663"/>
  <circle class="cls-1" cx="1121.373" cy="246.65876" r="11.30663"/>
  <g>
    <path class="cls-4" d="M726.31956,354.02076h45.30397c5.00398,0,9.06051-4.05653,9.06051-9.06051v-47.68904c0-5.00398-4.05653-9.06051-9.06051-9.06051h-46.25801c-5.00398,0-9.06051,4.05653-9.06051,9.06051v.00002c0,5.00398-4.05653,9.06051-9.06051,9.06051h-162.14199c-5.00398,0-9.06051,4.05653-9.06051,9.06051v99.19301c0,5.00398,4.05653,9.06051,9.06051,9.06051h81.31002c5.00398,0,9.06051,4.05653,9.06051,9.06051v123.514c0,5.00398,4.05653,9.06051,9.06051,9.06051h79.16298c5.00398,0,9.06051-4.05653,9.06051-9.06051v-83.45504c0-5.00398,4.05653-9.06051,9.06051-9.06051h24.79897c5.00398,0,9.06051-4.05653,9.06051-9.06051v-46.25899c0-5.00398-4.05653-9.06051-9.06051-9.06051h-40.29695c-5.00398,0-9.06051-4.05653-9.06051-9.06051v-27.18294c0-5.00398,4.05653-9.06051,9.06051-9.06051Z"/>
    <rect class="cls-4" x="777.10805" y="466.56574" width="29.328" height="60.80298" rx="14.66399" ry="14.66399"/>
  </g>
  <circle class="cls-1" cx="777.34603" cy="344.48274" r="11.30658"/>
  <g>
    <path class="cls-4" d="M1210.30306,508.56124v-63.48501c0-6.91377-5.60471-12.51848-12.51848-12.51848h-7.1531c-6.91377,0-12.51848-5.60471-12.51848-12.51848v-.00003c0-6.91377-5.60471-12.51848-12.51848-12.51848h-84.94302c-6.91377,0-12.51848,5.60471-12.51848,12.51848v.00003c0,6.91377-5.60471,12.51848-12.51848,12.51848h-5.36306c-6.91377,0-12.51848,5.60471-12.51848,12.51848v63.48501c0,6.91377,5.60471,12.51848,12.51848,12.51848h60.80313c6.91377,0,12.51848-5.60471,12.51848-12.51848v-.00003c0-6.91377,5.60471-12.51848,12.51848-12.51848h3.57302c6.91377,0,12.51848,5.60471,12.51848,12.51848v.00003c0,6.91377,5.60471,12.51848,12.51848,12.51848h33.08303c6.91377,0,12.51848-5.60471,12.51848-12.51848Z"/>
    <rect class="cls-4" x="1177.22298" y="529.42475" width="33.38" height="27.42102" rx="13.7105" ry="13.7105"/>
    <path class="cls-4" d="M1245.10447,430.07556l-.0829,14.14032c-.06546,11.16625,8.9341,20.27103,20.10036,20.33536h.0026c11.16608.06434,20.26988-8.93588,20.33331-20.10196l.08034-14.14034c.06343-11.16481-8.93552-20.26735-20.10032-20.3317h-.00004c-11.16467-.06435-20.2679,8.93365-20.33335,20.09831Z"/>
    <rect class="cls-4" x="1242.38418" y="477.86239" width="44.96776" height="40.43073" rx="20.21534" ry="20.21534" transform="translate(759.51007 1760.05476) rotate(-89.66984)"/>
  </g>
  <circle class="cls-1" cx="1247.55306" cy="421.73872" r="11.30661"/>
  <circle class="cls-1" cx="1205.59298" cy="481.82575" r="11.30661"/>
  <circle class="cls-1" cx="1139.78304" cy="493.98677" r="11.30661"/>
</svg>